<svg width="25" height="24" viewBox="0 0 25 24" fill="none" xmlns="http://www.w3.org/2000/svg">
<path d="M17.75 14C18.3023 14 18.75 13.5523 18.75 13C18.75 12.4477 18.3023 12 17.75 12C17.1977 12 16.75 12.4477 16.75 13C16.75 13.5523 17.1977 14 17.75 14Z" fill="#757575"/>
<path d="M17.75 18C18.3023 18 18.75 17.5523 18.75 17C18.75 16.4477 18.3023 16 17.75 16C17.1977 16 16.75 16.4477 16.75 17C16.75 17.5523 17.1977 18 17.75 18Z" fill="#757575"/>
<path d="M13.75 13C13.75 13.5523 13.3023 14 12.75 14C12.1977 14 11.75 13.5523 11.75 13C11.75 12.4477 12.1977 12 12.75 12C13.3023 12 13.75 12.4477 13.75 13Z" fill="#757575"/>
<path d="M13.75 17C13.75 17.5523 13.3023 18 12.75 18C12.1977 18 11.75 17.5523 11.75 17C11.75 16.4477 12.1977 16 12.75 16C13.3023 16 13.75 16.4477 13.75 17Z" fill="#757575"/>
<path d="M7.75 14C8.30229 14 8.75 13.5523 8.75 13C8.75 12.4477 8.30229 12 7.75 12C7.19772 12 6.75 12.4477 6.75 13C6.75 13.5523 7.19772 14 7.75 14Z" fill="#757575"/>
<path d="M7.75 18C8.30229 18 8.75 17.5523 8.75 17C8.75 16.4477 8.30229 16 7.75 16C7.19772 16 6.75 16.4477 6.75 17C6.75 17.5523 7.19772 18 7.75 18Z" fill="#757575"/>
<path fill-rule="evenodd" clip-rule="evenodd" d="M7.75 1.75C8.16421 1.75 8.5 2.08579 8.5 2.5V3.26272C9.162 3.24999 9.89133 3.24999 10.6935 3.25H14.8064C15.6086 3.24999 16.338 3.24999 17 3.26272V2.5C17 2.08579 17.3358 1.75 17.75 1.75C18.1642 1.75 18.5 2.08579 18.5 2.5V3.32709C18.7599 3.34691 19.0061 3.37182 19.239 3.40313C20.4114 3.56076 21.3604 3.89288 22.1088 4.64124C22.8571 5.38961 23.1892 6.33855 23.3469 7.51098C23.5 8.65018 23.5 10.1058 23.5 11.9435V14.0564C23.5 15.8941 23.5 17.3498 23.3469 18.489C23.1892 19.6614 22.8571 20.6104 22.1088 21.3588C21.3604 22.1071 20.4114 22.4392 19.239 22.5969C18.0998 22.75 16.6442 22.75 14.8065 22.75H10.6936C8.85585 22.75 7.40018 22.75 6.26098 22.5969C5.08856 22.4392 4.13961 22.1071 3.39124 21.3588C2.64288 20.6104 2.31076 19.6614 2.15314 18.489C1.99997 17.3498 1.99998 15.8942 2 14.0564V11.9436C1.99998 10.1058 1.99997 8.65019 2.15314 7.51098C2.31076 6.33855 2.64288 5.38961 3.39124 4.64124C4.13961 3.89288 5.08856 3.56076 6.26098 3.40313C6.4939 3.37182 6.74006 3.34691 7 3.32709V2.5C7 2.08579 7.33579 1.75 7.75 1.75ZM6.46085 4.88976C5.45476 5.02502 4.87511 5.27869 4.4519 5.7019C4.02869 6.12511 3.77502 6.70476 3.63976 7.71085C3.61685 7.88123 3.5977 8.06061 3.58168 8.25H21.9183C21.9023 8.06061 21.8831 7.88124 21.8602 7.71085C21.725 6.70476 21.4713 6.12511 21.0481 5.7019C20.6249 5.27869 20.0452 5.02502 19.0392 4.88976C18.0115 4.75159 16.6568 4.75 14.75 4.75H10.75C8.84318 4.75 7.48851 4.75159 6.46085 4.88976ZM3.5 12C3.5 11.146 3.50032 10.4027 3.51309 9.75H21.9869C21.9997 10.4027 22 11.146 22 12V14C22 15.9068 21.9984 17.2615 21.8602 18.2892C21.725 19.2952 21.4713 19.8749 21.0481 20.2981C20.6249 20.7213 20.0452 20.975 19.0392 21.1102C18.0115 21.2484 16.6568 21.25 14.75 21.25H10.75C8.84318 21.25 7.48851 21.2484 6.46085 21.1102C5.45476 20.975 4.87511 20.7213 4.4519 20.2981C4.02869 19.8749 3.77502 19.2952 3.63976 18.2892C3.50159 17.2615 3.5 15.9068 3.5 14V12Z" fill="#757575"/>
</svg>
