<svg width="20" height="20" viewBox="0 0 20 20" fill="none" xmlns="http://www.w3.org/2000/svg">
<path d="M14.5416 18.9577C13.6 18.9577 12.6083 18.7327 11.5833 18.2993C10.5833 17.8743 9.57496 17.291 8.59163 16.5827C7.61663 15.866 6.67496 15.066 5.78329 14.191C4.89996 13.2993 4.09996 12.3577 3.39163 11.391C2.67496 10.391 2.09996 9.39102 1.69163 8.42435C1.25829 7.39102 1.04163 6.39102 1.04163 5.44935C1.04163 4.79935 1.15829 4.18268 1.38329 3.60768C1.61663 3.01602 1.99163 2.46602 2.49996 1.99102C3.14163 1.35768 3.87496 1.04102 4.65829 1.04102C4.98329 1.04102 5.31663 1.11602 5.59996 1.24935C5.92496 1.39935 6.19996 1.62435 6.39996 1.92435L8.33329 4.64935C8.50829 4.89102 8.64163 5.12435 8.73329 5.35768C8.84163 5.60768 8.89996 5.85768 8.89996 6.09935C8.89996 6.41602 8.80829 6.72435 8.63329 7.01602C8.50829 7.24102 8.31663 7.48268 8.07496 7.72435L7.50829 8.31602C7.51663 8.34102 7.52496 8.35768 7.53329 8.37435C7.63329 8.54935 7.83329 8.84935 8.21663 9.29935C8.62496 9.76602 9.00829 10.191 9.39163 10.5827C9.88329 11.066 10.2916 11.4493 10.675 11.766C11.15 12.166 11.4583 12.366 11.6416 12.4577L11.625 12.4993L12.2333 11.8993C12.4916 11.641 12.7416 11.4493 12.9833 11.3243C13.4416 11.041 14.025 10.991 14.6083 11.2327C14.825 11.3243 15.0583 11.4493 15.3083 11.6243L18.075 13.591C18.3833 13.7993 18.6083 14.066 18.7416 14.3827C18.8666 14.6993 18.925 14.991 18.925 15.2827C18.925 15.6827 18.8333 16.0827 18.6583 16.4577C18.4833 16.8327 18.2666 17.1577 17.9916 17.4577C17.5166 17.9827 17 18.3577 16.4 18.5993C15.825 18.8327 15.2 18.9577 14.5416 18.9577ZM4.65829 2.29102C4.19996 2.29102 3.77496 2.49102 3.36663 2.89102C2.98329 3.24935 2.71663 3.64102 2.54996 4.06602C2.37496 4.49935 2.29163 4.95768 2.29163 5.44935C2.29163 6.22435 2.47496 7.06602 2.84163 7.93268C3.21663 8.81602 3.74163 9.73268 4.40829 10.6493C5.07496 11.566 5.83329 12.4577 6.66663 13.2993C7.49996 14.1243 8.39996 14.891 9.32496 15.566C10.225 16.2243 11.15 16.7577 12.0666 17.141C13.4916 17.7493 14.825 17.891 15.925 17.4327C16.35 17.2577 16.725 16.991 17.0666 16.6077C17.2583 16.3994 17.4083 16.1743 17.5333 15.9077C17.6333 15.6993 17.6833 15.4827 17.6833 15.266C17.6833 15.1327 17.6583 14.9993 17.5916 14.8493C17.5666 14.7993 17.5166 14.7077 17.3583 14.5993L14.5916 12.6327C14.425 12.516 14.275 12.4327 14.1333 12.3743C13.95 12.2993 13.875 12.2243 13.5916 12.3993C13.425 12.4827 13.275 12.6077 13.1083 12.7743L12.475 13.3993C12.15 13.716 11.65 13.791 11.2666 13.6493L11.0416 13.5493C10.7 13.366 10.3 13.0827 9.85829 12.7077C9.45829 12.366 9.02496 11.966 8.49996 11.4493C8.09163 11.0327 7.68329 10.591 7.25829 10.0993C6.86663 9.64102 6.58329 9.24935 6.40829 8.92435L6.30829 8.67435C6.25829 8.48268 6.24163 8.37435 6.24163 8.25768C6.24163 7.95768 6.34996 7.69102 6.55829 7.48268L7.18329 6.83268C7.34996 6.66602 7.47496 6.50768 7.55829 6.36602C7.62496 6.25768 7.64996 6.16602 7.64996 6.08268C7.64996 6.01602 7.62496 5.91602 7.58329 5.81602C7.52496 5.68268 7.43329 5.53268 7.31663 5.37435L5.38329 2.64102C5.29996 2.52435 5.19996 2.44102 5.07496 2.38268C4.94163 2.32435 4.79996 2.29102 4.65829 2.29102ZM11.625 12.5077L11.4916 13.0743L11.7166 12.491C11.675 12.4827 11.6416 12.491 11.625 12.5077Z" fill="#B29569"/>
<path d="M15.4167 8.12565C15.075 8.12565 14.7917 7.84232 14.7917 7.50065C14.7917 7.20065 14.4917 6.57565 13.9917 6.04232C13.5 5.51732 12.9583 5.20898 12.5 5.20898C12.1583 5.20898 11.875 4.92565 11.875 4.58398C11.875 4.24232 12.1583 3.95898 12.5 3.95898C13.3083 3.95898 14.1583 4.39232 14.9 5.18398C15.5917 5.92565 16.0417 6.83398 16.0417 7.50065C16.0417 7.84232 15.7583 8.12565 15.4167 8.12565Z" fill="#B29569"/>
<path d="M18.3333 8.12435C17.9917 8.12435 17.7083 7.84102 17.7083 7.49935C17.7083 4.62435 15.375 2.29102 12.5 2.29102C12.1583 2.29102 11.875 2.00768 11.875 1.66602C11.875 1.32435 12.1583 1.04102 12.5 1.04102C16.0583 1.04102 18.9583 3.94102 18.9583 7.49935C18.9583 7.84102 18.675 8.12435 18.3333 8.12435Z" fill="#B29569"/>
</svg>
