<svg width="16" height="16" viewBox="0 0 16 16" fill="none" xmlns="http://www.w3.org/2000/svg">
<path fill-rule="evenodd" clip-rule="evenodd" d="M5.06554 2.99111C5.24342 2.11785 6.02051 1.5 6.91081 1.5H9.08903C9.97933 1.5 10.7564 2.11785 10.9343 2.99111C10.9754 3.1927 11.158 3.34057 11.3479 3.34057H11.3588L11.3698 3.34105C12.3054 3.38196 13.024 3.49678 13.624 3.89039C14.002 4.13838 14.3272 4.45745 14.5806 4.82976C14.8958 5.29298 15.0349 5.82463 15.1015 6.46763C15.1666 7.09586 15.1666 7.88333 15.1666 8.8807V8.93748C15.1666 9.93485 15.1666 10.7223 15.1015 11.3505C15.0349 11.9936 14.8958 12.5252 14.5806 12.9884C14.3272 13.3607 14.002 13.6798 13.624 13.9278C13.155 14.2355 12.6174 14.3711 11.9653 14.4362C11.3268 14.5 10.5259 14.5 9.50888 14.5H6.49096C5.47391 14.5 4.67303 14.5 4.03456 14.4362C3.38245 14.3711 2.84479 14.2355 2.37582 13.9278C1.9978 13.6798 1.67262 13.3607 1.41924 12.9884C1.104 12.5252 0.964956 11.9936 0.898333 11.3505C0.833242 10.7223 0.833246 9.93485 0.833252 8.93748V8.88071C0.833246 7.88334 0.833242 7.09586 0.898333 6.46763C0.964956 5.82463 1.104 5.29298 1.41924 4.82976C1.67262 4.45745 1.9978 4.13838 2.37582 3.89039C2.9758 3.49678 3.69445 3.38196 4.63007 3.34105L4.64099 3.34057H4.65192C4.84184 3.34057 5.02447 3.1927 5.06554 2.99111ZM6.91081 2.5C6.4834 2.5 6.12595 2.79533 6.04541 3.19071C5.91497 3.83106 5.34725 4.33458 4.66414 4.34052C3.76507 4.38046 3.28349 4.49091 2.92434 4.72652C2.65531 4.90301 2.42493 5.1294 2.24596 5.39238C2.06186 5.6629 1.95122 6.00883 1.89301 6.57069C1.83388 7.14138 1.83325 7.87707 1.83325 8.90909C1.83325 9.94111 1.83388 10.6768 1.89301 11.2475C1.95122 11.8093 2.06186 12.1553 2.24596 12.4258C2.42493 12.6888 2.65531 12.9152 2.92435 13.0917C3.2027 13.2743 3.55888 13.3838 4.13394 13.4412C4.71691 13.4994 5.46787 13.5 6.51844 13.5H9.4814C10.532 13.5 11.2829 13.4994 11.8659 13.4412C12.441 13.3838 12.7971 13.2743 13.0755 13.0917C13.3445 12.9152 13.5749 12.6888 13.7539 12.4258C13.938 12.1553 14.0486 11.8093 14.1068 11.2475C14.166 10.6768 14.1666 9.94111 14.1666 8.90909C14.1666 7.87707 14.166 7.14138 14.1068 6.57069C14.0486 6.00883 13.938 5.6629 13.7539 5.39238C13.5749 5.1294 13.3445 4.90301 13.0755 4.72652C12.7163 4.49091 12.2348 4.38046 11.3357 4.34052C10.6526 4.33458 10.0849 3.83106 9.95443 3.19071C9.87388 2.79533 9.51644 2.5 9.08903 2.5H6.91081ZM7.99992 7.16667C7.17149 7.16667 6.49992 7.83824 6.49992 8.66667C6.49992 9.49509 7.17149 10.1667 7.99992 10.1667C8.82835 10.1667 9.49992 9.49509 9.49992 8.66667C9.49992 7.83824 8.82835 7.16667 7.99992 7.16667ZM5.49992 8.66667C5.49992 7.28595 6.61921 6.16667 7.99992 6.16667C9.38063 6.16667 10.4999 7.28595 10.4999 8.66667C10.4999 10.0474 9.38063 11.1667 7.99992 11.1667C6.61921 11.1667 5.49992 10.0474 5.49992 8.66667ZM11.4999 6.66667C11.4999 6.39052 11.7238 6.16667 11.9999 6.16667H12.6666C12.9427 6.16667 13.1666 6.39052 13.1666 6.66667C13.1666 6.94281 12.9427 7.16667 12.6666 7.16667H11.9999C11.7238 7.16667 11.4999 6.94281 11.4999 6.66667Z" fill="white"/>
</svg>
