<svg width="28" height="28" viewBox="0 0 28 28" fill="none" xmlns="http://www.w3.org/2000/svg">
<path fill-rule="evenodd" clip-rule="evenodd" d="M20.9999 16.3333C20.9999 21.488 16.8212 25.6667 11.6666 25.6667C10.2252 25.6667 8.86006 25.3399 7.6413 24.7564C7.22241 24.5559 6.74784 24.4855 6.2992 24.6055L4.86882 24.9882C3.74144 25.2899 2.71003 24.2585 3.01168 23.1311L3.3944 21.7007C3.51444 21.2521 3.44403 20.7775 3.24349 20.3586C2.66001 19.1399 2.33325 17.7748 2.33325 16.3333C2.33325 11.1787 6.51193 7 11.6666 7C16.8212 7 20.9999 11.1787 20.9999 16.3333ZM7.58325 17.5C8.22758 17.5 8.74992 16.9777 8.74992 16.3333C8.74992 15.689 8.22758 15.1667 7.58325 15.1667C6.93892 15.1667 6.41658 15.689 6.41658 16.3333C6.41658 16.9777 6.93892 17.5 7.58325 17.5ZM11.6666 17.5C12.3109 17.5 12.8333 16.9777 12.8333 16.3333C12.8333 15.689 12.3109 15.1667 11.6666 15.1667C11.0223 15.1667 10.4999 15.689 10.4999 16.3333C10.4999 16.9777 11.0223 17.5 11.6666 17.5ZM15.7499 17.5C16.3942 17.5 16.9166 16.9777 16.9166 16.3333C16.9166 15.689 16.3942 15.1667 15.7499 15.1667C15.1056 15.1667 14.5833 15.689 14.5833 16.3333C14.5833 16.9777 15.1056 17.5 15.7499 17.5Z" fill="#B29569"/>
<path opacity="0.6" d="M20.9815 16.9267C21.1073 16.8746 21.2315 16.8192 21.3539 16.7606C21.6942 16.5977 22.0798 16.5405 22.4443 16.638L23.6065 16.9489C24.5225 17.194 25.3605 16.356 25.1154 15.44L24.8045 14.2778C24.707 13.9133 24.7642 13.5277 24.9271 13.1874C25.4012 12.1971 25.6667 11.088 25.6667 9.91683C25.6667 5.72867 22.2715 2.3335 18.0833 2.3335C14.9216 2.3335 12.2118 4.26841 11.0735 7.01871C11.2696 7.00641 11.4674 7.00016 11.6667 7.00016C16.8213 7.00016 21 11.1788 21 16.3335C21 16.5327 20.9938 16.7305 20.9815 16.9267Z" fill="#B29569"/>
</svg>
