<svg width="20" height="20" viewBox="0 0 20 20" fill="none" xmlns="http://www.w3.org/2000/svg">
<path fill-rule="evenodd" clip-rule="evenodd" d="M5.83335 1.04199C6.17853 1.04199 6.45835 1.32181 6.45835 1.66699V3.12533H6.66669C6.67915 3.12533 6.69158 3.12532 6.70398 3.12532C7.06466 3.12528 7.39535 3.12524 7.66436 3.16141C7.96059 3.20124 8.2737 3.29494 8.53122 3.55246C8.78874 3.80998 8.88244 4.12309 8.92227 4.41932C8.95844 4.68833 8.9584 5.01902 8.95836 5.37971C8.95836 5.3921 8.95835 5.40453 8.95835 5.41699V6.56871C9.01408 6.61285 9.06816 6.66089 9.12047 6.71321C9.50003 7.09276 9.65476 7.5651 9.72509 8.08826C9.77366 8.44948 9.78682 8.87906 9.79038 9.37533H10.2084L10.2084 6.42533C10.2083 5.3767 10.2083 4.51948 10.3047 3.86541C10.4047 3.18718 10.6273 2.5816 11.1947 2.18841C11.7621 1.79522 12.4073 1.79936 13.0774 1.94391C13.7237 2.08332 14.5263 2.38433 15.5082 2.75255L15.5881 2.78251C16.0843 2.96859 16.5042 3.12604 16.8341 3.29351C17.185 3.47162 17.4882 3.68667 17.7169 4.01667C17.9456 4.34668 18.0405 4.70616 18.0841 5.09719C18.1251 5.46487 18.125 5.91332 18.125 6.44331V17.7087H18.3334C18.6785 17.7087 18.9584 17.9885 18.9584 18.3337C18.9584 18.6788 18.6785 18.9587 18.3334 18.9587H1.66669C1.32151 18.9587 1.04169 18.6788 1.04169 18.3337C1.04169 17.9885 1.32151 17.7087 1.66669 17.7087H1.87502L1.87502 9.95699C1.87499 9.20826 1.87497 8.58391 1.94161 8.08826C2.01195 7.5651 2.16668 7.09276 2.54623 6.71321C2.59855 6.66089 2.65262 6.61285 2.70835 6.56871V5.41699C2.70835 5.40453 2.70835 5.3921 2.70835 5.3797C2.70831 5.01902 2.70827 4.68833 2.74444 4.41932C2.78426 4.12309 2.87797 3.80998 3.13549 3.55246C3.39301 3.29494 3.70611 3.20124 4.00235 3.16141C4.27136 3.12524 4.60205 3.12528 4.96273 3.12532C4.97512 3.12532 4.98756 3.12533 5.00002 3.12533H5.20835V1.66699C5.20835 1.32181 5.48818 1.04199 5.83335 1.04199ZM3.95835 6.10375C4.44794 6.04195 5.05984 6.04197 5.79003 6.04199H5.87668C6.60687 6.04197 7.21876 6.04195 7.70835 6.10375V5.41699C7.70835 5.00649 7.70703 4.76148 7.68342 4.58588C7.6726 4.50541 7.65986 4.46511 7.65239 4.44696C7.65066 4.44276 7.64931 4.44 7.64847 4.43839L7.64732 4.43636L7.64529 4.43521C7.64368 4.43437 7.64092 4.43302 7.63672 4.43129C7.61857 4.42382 7.57827 4.41108 7.4978 4.40026C7.3222 4.37665 7.07719 4.37533 6.66669 4.37533H5.00002C4.58951 4.37533 4.34451 4.37665 4.16891 4.40026C4.08844 4.41108 4.04814 4.42382 4.02999 4.43129C4.02579 4.43302 4.02302 4.43437 4.02141 4.43521L4.01938 4.43636L4.01824 4.43839C4.0174 4.44 4.01605 4.44276 4.01432 4.44696C4.00685 4.46511 3.99411 4.50541 3.98329 4.58588C3.95968 4.76148 3.95835 5.00649 3.95835 5.41699V6.10375ZM3.12502 17.7087H5.20835L5.20835 13.2903C5.20833 12.5416 5.20831 11.9172 5.27495 11.4216C5.34528 10.8984 5.50001 10.4261 5.87957 10.0465C6.25913 9.66698 6.73146 9.51226 7.25462 9.44192C7.61548 9.3934 8.04456 9.38022 8.54019 9.37665C8.53667 8.90146 8.52499 8.543 8.48624 8.25482C8.43454 7.87027 8.34519 7.70569 8.23659 7.59709C8.12799 7.48849 7.96341 7.39914 7.57886 7.34744C7.17633 7.29332 6.6367 7.29199 5.83335 7.29199C5.03001 7.29199 4.49038 7.29332 4.08785 7.34744C3.7033 7.39914 3.53871 7.48849 3.43012 7.59709C3.32152 7.70569 3.23217 7.87027 3.18047 8.25482C3.12635 8.65735 3.12502 9.19698 3.12502 10.0003V17.7087ZM6.45835 17.7087H13.5417V13.3337C13.5417 12.5303 13.5404 11.9907 13.4862 11.5882C13.4345 11.2036 13.3452 11.039 13.2366 10.9304C13.128 10.8218 12.9634 10.7325 12.5789 10.6808C12.1763 10.6267 11.6367 10.6253 10.8334 10.6253H9.16669C8.36334 10.6253 7.82371 10.6267 7.42118 10.6808C7.03663 10.7325 6.87205 10.8218 6.76345 10.9304C6.65485 11.039 6.5655 11.2036 6.5138 11.5882C6.45968 11.9907 6.45835 12.5303 6.45835 13.3337V17.7087ZM14.7917 17.7087H16.875V6.47699C16.875 5.90432 16.8741 5.52595 16.8418 5.23564C16.8112 4.96092 16.7576 4.82693 16.6895 4.72867C16.6214 4.6304 16.5148 4.53323 16.2683 4.40811C16.0078 4.27588 15.6539 4.14218 15.1176 3.9411C14.0755 3.5503 13.3594 3.28348 12.8139 3.16581C12.2816 3.05101 12.0567 3.11189 11.9067 3.21582C11.7567 3.31975 11.6207 3.50903 11.5413 4.04766C11.46 4.59974 11.4584 5.36399 11.4584 6.47699V9.37664C11.9546 9.38019 12.3842 9.39335 12.7454 9.44192C13.2686 9.51226 13.7409 9.66698 14.1205 10.0465C14.5 10.4261 14.6548 10.8984 14.7251 11.4216C14.7917 11.9172 14.7917 12.5416 14.7917 13.2903L14.7917 17.7087ZM4.01938 4.43636C4.01966 4.43613 4.01972 4.43602 4.01938 4.43636C4.019 4.43674 4.01915 4.43664 4.01938 4.43636ZM7.70835 12.5003C7.70835 12.1551 7.98818 11.8753 8.33335 11.8753H11.6667C12.0119 11.8753 12.2917 12.1551 12.2917 12.5003C12.2917 12.8455 12.0119 13.1253 11.6667 13.1253H8.33335C7.98818 13.1253 7.70835 12.8455 7.70835 12.5003ZM7.70835 15.0003C7.70835 14.6551 7.98818 14.3753 8.33335 14.3753H11.6667C12.0119 14.3753 12.2917 14.6551 12.2917 15.0003C12.2917 15.3455 12.0119 15.6253 11.6667 15.6253H8.33335C7.98818 15.6253 7.70835 15.3455 7.70835 15.0003Z" fill="#404040"/>
</svg>
