<svg width="25" height="24" viewBox="0 0 25 24" fill="none" xmlns="http://www.w3.org/2000/svg">
<path fill-rule="evenodd" clip-rule="evenodd" d="M11.1936 1.25H13.3064C15.1442 1.24998 16.5998 1.24997 17.739 1.40314C18.9114 1.56076 19.8604 1.89288 20.6088 2.64124C20.9016 2.93414 20.9016 3.40901 20.6088 3.7019C20.3159 3.9948 19.841 3.9948 19.5481 3.7019C19.1249 3.27869 18.5452 3.02502 17.5392 2.88976C16.5115 2.75159 15.1568 2.75 13.25 2.75H11.25C9.34318 2.75 7.98851 2.75159 6.96085 2.88976C5.95476 3.02502 5.37511 3.27869 4.9519 3.7019C4.52869 4.12511 4.27502 4.70476 4.13976 5.71085C4.00159 6.73851 4 8.09318 4 10V14C4 15.9068 4.00159 17.2615 4.13976 18.2892C4.27502 19.2952 4.52869 19.8749 4.9519 20.2981C5.37511 20.7213 5.95476 20.975 6.96085 21.1102C7.98851 21.2484 9.34318 21.25 11.25 21.25H13.25C15.1568 21.25 16.5115 21.2484 17.5392 21.1102C18.5452 20.975 19.1249 20.7213 19.5481 20.2981C20.244 19.6022 20.4548 18.5208 20.4914 15.9892C20.4974 15.575 20.838 15.2441 21.2522 15.2501C21.6663 15.2561 21.9972 15.5967 21.9912 16.0108C21.9561 18.4383 21.799 20.1685 20.6088 21.3588C19.8604 22.1071 18.9114 22.4392 17.739 22.5969C16.5998 22.75 15.1442 22.75 13.3064 22.75H11.1936C9.35583 22.75 7.90019 22.75 6.76098 22.5969C5.58856 22.4392 4.63961 22.1071 3.89124 21.3588C3.14288 20.6104 2.81076 19.6614 2.65314 18.489C2.49997 17.3498 2.49998 15.8942 2.5 14.0564V9.94358C2.49998 8.10582 2.49997 6.65019 2.65314 5.51098C2.81076 4.33856 3.14288 3.38961 3.89124 2.64124C4.63961 1.89288 5.58856 1.56076 6.76098 1.40314C7.90019 1.24997 9.35582 1.24998 11.1936 1.25ZM18.3631 7.04556C19.4239 5.98481 21.1437 5.98481 22.2044 7.04556C23.2652 8.1063 23.2652 9.82611 22.2044 10.8869L17.4491 15.6422C17.1904 15.901 17.0154 16.076 16.8193 16.2289C16.5887 16.4088 16.3392 16.563 16.0752 16.6889C15.8507 16.7958 15.6159 16.8741 15.2687 16.9897L13.1851 17.6843C12.7251 17.8376 12.2179 17.7179 11.875 17.375C11.5321 17.0321 11.4124 16.5249 11.5657 16.0649L12.2463 14.0232C12.251 14.0091 12.2556 13.9951 12.2602 13.9813C12.3759 13.6342 12.4542 13.3993 12.5611 13.1748C12.687 12.9108 12.8412 12.6613 13.0211 12.4307C13.174 12.2346 13.349 12.0596 13.6078 11.8009C13.6181 11.7906 13.6285 11.7802 13.6391 11.7696L18.3631 7.04556ZM21.1438 8.10622C20.6688 7.63126 19.8988 7.63126 19.4238 8.10622L19.242 8.288C19.2519 8.32149 19.2632 8.3571 19.2762 8.39452C19.3702 8.66565 19.5488 9.02427 19.8872 9.36276C20.2257 9.70125 20.5843 9.87975 20.8555 9.97382C20.8929 9.9868 20.9285 9.99812 20.962 10.008L21.1438 9.8262C21.6187 9.35124 21.6187 8.58118 21.1438 8.10622ZM19.8164 11.1536C19.4985 10.9866 19.1553 10.7521 18.8266 10.4234C18.4979 10.0947 18.2634 9.75146 18.0964 9.43357L14.6997 12.8303C14.3987 13.1314 14.293 13.2388 14.2038 13.3532C14.091 13.4979 13.9942 13.6545 13.9152 13.8202C13.8528 13.9511 13.8039 14.0936 13.6693 14.4976L13.269 15.6985L13.5515 15.981L14.7524 15.5807C15.1564 15.4461 15.2989 15.3972 15.4298 15.3348C15.5955 15.2558 15.7521 15.159 15.8968 15.0462C16.0112 14.957 16.1186 14.8513 16.4197 14.5503L19.8164 11.1536ZM7.5 9C7.5 8.58579 7.83579 8.25 8.25 8.25H14.75C15.1642 8.25 15.5 8.58579 15.5 9C15.5 9.41421 15.1642 9.75 14.75 9.75H8.25C7.83579 9.75 7.5 9.41421 7.5 9ZM7.5 13C7.5 12.5858 7.83579 12.25 8.25 12.25H10.75C11.1642 12.25 11.5 12.5858 11.5 13C11.5 13.4142 11.1642 13.75 10.75 13.75H8.25C7.83579 13.75 7.5 13.4142 7.5 13ZM7.5 17C7.5 16.5858 7.83579 16.25 8.25 16.25H9.75C10.1642 16.25 10.5 16.5858 10.5 17C10.5 17.4142 10.1642 17.75 9.75 17.75H8.25C7.83579 17.75 7.5 17.4142 7.5 17Z" fill="#757575"/>
</svg>
