<svg width="20" height="20" viewBox="0 0 20 20" fill="none" xmlns="http://www.w3.org/2000/svg">
<path fill-rule="evenodd" clip-rule="evenodd" d="M8.2864 2.70898H11.7138C13.2452 2.70897 14.4583 2.70896 15.4076 2.8366C16.3846 2.96795 17.1754 3.24472 17.799 3.86835C18.4227 4.49199 18.6994 5.28278 18.8308 6.2598C18.9584 7.20915 18.9584 8.42217 18.9584 9.95364V10.0477C18.9584 11.5791 18.9584 12.7922 18.8308 13.7415C18.6994 14.7185 18.4227 15.5093 17.799 16.1329C17.1754 16.7566 16.3846 17.0333 15.4076 17.1647C14.4583 17.2923 13.2452 17.2923 11.7138 17.2923H8.28641C6.75494 17.2923 5.54191 17.2923 4.59256 17.1647C3.61554 17.0333 2.82475 16.7566 2.20112 16.1329C1.57748 15.5093 1.30072 14.7185 1.16936 13.7415C1.04172 12.7922 1.04174 11.5791 1.04175 10.0477V9.95364C1.04174 8.42217 1.04172 7.20914 1.16936 6.2598C1.30072 5.28278 1.57748 4.49199 2.20112 3.86835C2.82475 3.24472 3.61554 2.96795 4.59256 2.8366C5.54191 2.70896 6.75493 2.70897 8.2864 2.70898ZM4.75912 4.07545C3.92071 4.18817 3.43768 4.39956 3.085 4.75224C2.73233 5.10491 2.52094 5.58795 2.40821 6.42636C2.29308 7.28275 2.29175 8.41163 2.29175 10.0007C2.29175 11.5897 2.29308 12.7186 2.40821 13.5749C2.52094 14.4134 2.73233 14.8964 3.085 15.2491C3.43768 15.6017 3.92071 15.8131 4.75912 15.9259C5.61551 16.041 6.7444 16.0423 8.33341 16.0423H11.6667C13.2558 16.0423 14.3847 16.041 15.241 15.9259C16.0794 15.8131 16.5625 15.6017 16.9152 15.2491C17.2678 14.8964 17.4792 14.4134 17.5919 13.5749C17.7071 12.7186 17.7084 11.5897 17.7084 10.0007C17.7084 8.41163 17.7071 7.28275 17.5919 6.42636C17.4792 5.58795 17.2678 5.10491 16.9152 4.75224C16.5625 4.39956 16.0794 4.18817 15.241 4.07545C14.3847 3.96031 13.2558 3.95898 11.6667 3.95898H8.33342C6.7444 3.95898 5.61551 3.96031 4.75912 4.07545ZM4.51994 6.2672C4.74092 6.00203 5.13502 5.9662 5.4002 6.18718L7.19928 7.68641C7.97674 8.3343 8.51652 8.78266 8.97223 9.07576C9.41337 9.35948 9.71252 9.45471 10.0001 9.45471C10.2876 9.45471 10.5868 9.35948 11.0279 9.07576C11.4836 8.78266 12.0234 8.3343 12.8009 7.68641L14.6 6.18718C14.8651 5.9662 15.2592 6.00203 15.4802 6.2672C15.7012 6.53238 15.6654 6.92648 15.4002 7.14746L13.5698 8.6728C12.8312 9.28834 12.2325 9.78725 11.7041 10.1271C11.1537 10.4811 10.6176 10.7047 10.0001 10.7047C9.38252 10.7047 8.84648 10.4811 8.29606 10.1271C7.76768 9.78725 7.16901 9.28835 6.43038 8.6728L4.59997 7.14746C4.33479 6.92648 4.29897 6.53238 4.51994 6.2672Z" fill="#9E9E9E"/>
</svg>
