<svg width="20" height="20" viewBox="0 0 20 20" fill="none" xmlns="http://www.w3.org/2000/svg">
<path fill-rule="evenodd" clip-rule="evenodd" d="M5.83342 1.4585C6.17859 1.4585 6.45842 1.73832 6.45842 2.0835V2.7191C7.01011 2.70848 7.61792 2.70849 8.2864 2.7085H11.7138C12.3822 2.70849 12.9901 2.70848 13.5417 2.7191V2.0835C13.5417 1.73832 13.8216 1.4585 14.1667 1.4585C14.5119 1.4585 14.7917 1.73832 14.7917 2.0835V2.77274C15.0084 2.78925 15.2135 2.81001 15.4076 2.83611C16.3846 2.96746 17.1754 3.24423 17.799 3.86787C18.4227 4.4915 18.6994 5.28229 18.8308 6.25931C18.8728 6.57155 18.901 6.91232 18.9199 7.28356C18.9448 7.35105 18.9584 7.42401 18.9584 7.50016C18.9584 7.55793 18.9506 7.61386 18.9359 7.66697C18.9584 8.33528 18.9584 9.09412 18.9584 9.95315V11.7138C18.9584 13.2453 18.9584 14.4583 18.8308 15.4077C18.6994 16.3847 18.4227 17.1755 17.799 17.7991C17.1754 18.4228 16.3846 18.6995 15.4076 18.8309C14.4583 18.9585 13.2452 18.9585 11.7138 18.9585H8.28641C6.75494 18.9585 5.54191 18.9585 4.59256 18.8309C3.61554 18.6995 2.82475 18.4228 2.20112 17.7991C1.57748 17.1755 1.30072 16.3847 1.16936 15.4077C1.04172 14.4583 1.04174 13.2453 1.04175 11.7138V9.95315C1.04174 9.09412 1.04173 8.33528 1.06426 7.66697C1.04959 7.61387 1.04175 7.55793 1.04175 7.50016C1.04175 7.42401 1.05537 7.35104 1.08031 7.28355C1.09921 6.91231 1.12738 6.57155 1.16936 6.25931C1.30072 5.28229 1.57748 4.4915 2.20112 3.86787C2.82475 3.24423 3.61554 2.96746 4.59256 2.83611C4.78667 2.81001 4.9918 2.78925 5.20842 2.77274V2.0835C5.20842 1.73832 5.48824 1.4585 5.83342 1.4585ZM2.30265 8.12516C2.29201 8.6691 2.29175 9.28848 2.29175 10.0002V11.6668C2.29175 13.2558 2.29308 14.3847 2.40821 15.2411C2.52094 16.0795 2.73233 16.5626 3.085 16.9152C3.43768 17.2679 3.92071 17.4793 4.75912 17.592C5.61551 17.7072 6.7444 17.7085 8.33341 17.7085H11.6667C13.2558 17.7085 14.3847 17.7072 15.241 17.592C16.0794 17.4793 16.5625 17.2679 16.9152 16.9152C17.2678 16.5626 17.4792 16.0795 17.5919 15.2411C17.7071 14.3847 17.7084 13.2558 17.7084 11.6668V10.0002C17.7084 9.28848 17.7081 8.6691 17.6975 8.12516H2.30265ZM17.6403 6.87516H2.35982C2.37316 6.71734 2.38912 6.56786 2.40821 6.42587C2.52094 5.58746 2.73233 5.10442 3.085 4.75175C3.43768 4.39907 3.92071 4.18768 4.75912 4.07496C5.61551 3.95982 6.7444 3.9585 8.33342 3.9585H11.6667C13.2558 3.9585 14.3847 3.95982 15.241 4.07496C16.0794 4.18768 16.5625 4.39907 16.9152 4.75175C17.2678 5.10442 17.4792 5.58746 17.5919 6.42587C17.611 6.56786 17.627 6.71734 17.6403 6.87516ZM13.7501 13.1252C13.4049 13.1252 13.1251 13.405 13.1251 13.7502C13.1251 14.0953 13.4049 14.3752 13.7501 14.3752C14.0953 14.3752 14.3751 14.0953 14.3751 13.7502C14.3751 13.405 14.0953 13.1252 13.7501 13.1252ZM11.8751 13.7502C11.8751 12.7146 12.7145 11.8752 13.7501 11.8752C14.7856 11.8752 15.6251 12.7146 15.6251 13.7502C15.6251 14.7857 14.7856 15.6252 13.7501 15.6252C12.7145 15.6252 11.8751 14.7857 11.8751 13.7502Z" fill="#9E9E9E"/>
</svg>
