<svg width="22" height="22" viewBox="0 0 22 22" fill="none" xmlns="http://www.w3.org/2000/svg">
<path d="M11.9168 3.6665H2.75012" stroke="#B29569" stroke-width="1.2" stroke-linecap="round" stroke-linejoin="round"/>
<path d="M10.0835 17.4165H2.75012" stroke="#B29569" stroke-width="1.2" stroke-linecap="round" stroke-linejoin="round"/>
<path d="M19.2502 17.4165H15.5835" stroke="#B29569" stroke-width="1.2" stroke-linecap="round" stroke-linejoin="round"/>
<path d="M19.25 10.5415H10.0834" stroke="#B29569" stroke-width="1.2" stroke-linecap="round" stroke-linejoin="round"/>
<path d="M19.25 3.6665H17.4166" stroke="#B29569" stroke-width="1.2" stroke-linecap="round" stroke-linejoin="round"/>
<path d="M4.58346 10.5415H2.75012" stroke="#B29569" stroke-width="1.2" stroke-linecap="round" stroke-linejoin="round"/>
<path d="M13.2916 1.8335C13.7187 1.8335 13.9323 1.8335 14.1008 1.90327C14.3254 1.99631 14.5038 2.17476 14.5969 2.39937C14.6666 2.56783 14.6666 2.78138 14.6666 3.2085V4.12516C14.6666 4.55227 14.6666 4.76583 14.5969 4.93429C14.5038 5.1589 14.3254 5.33735 14.1008 5.43039C13.9323 5.50016 13.7187 5.50016 13.2916 5.50016C12.8646 5.50016 12.651 5.50016 12.4825 5.43039C12.2579 5.33735 12.0794 5.1589 11.9864 4.93429C11.9166 4.76583 11.9166 4.55227 11.9166 4.12516V3.2085C11.9166 2.78138 11.9166 2.56783 11.9864 2.39937C12.0794 2.17476 12.2579 1.99631 12.4825 1.90327C12.651 1.8335 12.8646 1.8335 13.2916 1.8335Z" stroke="#B29569" stroke-width="1.2" stroke-linecap="round" stroke-linejoin="round"/>
<path d="M11.4584 15.5835C11.8854 15.5835 12.099 15.5835 12.2675 15.6533C12.4921 15.7463 12.6706 15.9248 12.7636 16.1494C12.8334 16.3178 12.8334 16.5314 12.8334 16.9585V17.8752C12.8334 18.3022 12.8334 18.5158 12.7636 18.6843C12.6706 18.9089 12.4921 19.0874 12.2675 19.1804C12.099 19.2502 11.8854 19.2502 11.4584 19.2502C11.0313 19.2502 10.8177 19.2502 10.6492 19.1804C10.4246 19.0874 10.2462 18.9089 10.1531 18.6843C10.0834 18.5158 10.0834 18.3022 10.0834 17.8752V16.9585C10.0834 16.5314 10.0834 16.3178 10.1531 16.1494C10.2462 15.9248 10.4246 15.7463 10.6492 15.6533C10.8177 15.5835 11.0313 15.5835 11.4584 15.5835Z" stroke="#B29569" stroke-width="1.2" stroke-linecap="round" stroke-linejoin="round"/>
<path d="M8.7085 8.7085C9.13561 8.7085 9.34915 8.7085 9.51764 8.77827C9.74222 8.87131 9.9207 9.04976 10.0137 9.27435C10.0835 9.44284 10.0835 9.65642 10.0835 10.0835V11.0002C10.0835 11.4272 10.0835 11.6408 10.0137 11.8093C9.9207 12.0339 9.74222 12.2124 9.51764 12.3054C9.34915 12.3752 9.13561 12.3752 8.7085 12.3752C8.28138 12.3752 8.06783 12.3752 7.89937 12.3054C7.67476 12.2124 7.49631 12.0339 7.40327 11.8093C7.3335 11.6408 7.3335 11.4272 7.3335 11.0002V10.0835C7.3335 9.65642 7.3335 9.44284 7.40327 9.27435C7.49631 9.04976 7.67476 8.87131 7.89937 8.77827C8.06783 8.7085 8.28138 8.7085 8.7085 8.7085Z" stroke="#B29569" stroke-width="1.2" stroke-linecap="round" stroke-linejoin="round"/>
</svg>
