<svg width="18" height="18" viewBox="0 0 18 18" fill="none" xmlns="http://www.w3.org/2000/svg">
<path d="M13.8626 12.5753C13.3853 12.6894 12.8872 12.7498 12.375 12.7498C8.85418 12.7498 6 9.89558 6 6.37476C6 6.01216 6.03027 5.65662 6.08843 5.31055C6.06129 5.33665 6.03324 5.3607 6.00371 5.38312C5.79325 5.54288 5.53114 5.60219 5.00692 5.7208L4.52965 5.82878C2.68489 6.24618 1.76251 6.45487 1.54307 7.16056C1.32362 7.86624 1.95244 8.60156 3.21007 10.0722L3.53544 10.4527C3.89282 10.8706 4.07151 11.0795 4.1519 11.338C4.23229 11.5966 4.20527 11.8753 4.15124 12.4329L4.10205 12.9406C3.91191 14.9027 3.81684 15.8838 4.39136 16.3199C4.96588 16.7561 5.8295 16.3584 7.55674 15.5631L8.00362 15.3574C8.49444 15.1314 8.73986 15.0184 9 15.0184C9.26014 15.0184 9.50556 15.1314 9.99639 15.3574L10.4432 15.5631C12.1705 16.3584 13.0341 16.7561 13.6086 16.3199C14.1832 15.8838 14.0881 14.9027 13.898 12.9406L13.8626 12.5753Z" fill="#FEBC2F"/>
<path opacity="0.5" d="M6.86477 4.05628L6.61899 4.49718C6.34904 4.98145 6.21406 5.22359 6.0036 5.38336C6.03313 5.36094 6.06118 5.3369 6.08832 5.31079C6.03017 5.65687 5.99989 6.0124 5.99989 6.375C5.99989 9.89582 8.85408 12.75 12.3749 12.75C12.8871 12.75 13.3852 12.6896 13.8624 12.5755L13.8487 12.4332C13.7946 11.8756 13.7676 11.5968 13.848 11.3383C13.9284 11.0798 14.1071 10.8708 14.4645 10.4529L14.7898 10.0724C16.0475 8.60181 16.6763 7.86648 16.4568 7.1608C16.2374 6.45511 15.315 6.24642 13.4702 5.82902L12.993 5.72104C12.4688 5.60243 12.2066 5.54312 11.9962 5.38336C11.7857 5.22359 11.6508 4.98145 11.3808 4.49718L11.135 4.05628C10.185 2.35209 9.71004 1.5 8.99989 1.5C8.28975 1.5 7.81475 2.3521 6.86477 4.05628Z" fill="#FEBC2F"/>
</svg>
