<svg width="25" height="24" viewBox="0 0 25 24" fill="none" xmlns="http://www.w3.org/2000/svg">
<path d="M10.1966 15.3975C9.86385 15.1508 9.39413 15.2206 9.14748 15.5534C8.90082 15.8862 8.97062 16.3559 9.30339 16.6025C10.2758 17.3233 11.465 17.75 12.75 17.75C14.035 17.75 15.2242 17.3233 16.1966 16.6025C16.5294 16.3559 16.5992 15.8862 16.3525 15.5534C16.1059 15.2206 15.6362 15.1508 15.3034 15.3975C14.575 15.9373 13.6959 16.25 12.75 16.25C11.8041 16.25 10.925 15.9373 10.1966 15.3975Z" fill="#757575"/>
<path fill-rule="evenodd" clip-rule="evenodd" d="M12.75 1.25C12.0419 1.25 11.3985 1.45282 10.7006 1.79224C10.0258 2.12035 9.24642 2.60409 8.27286 3.20832L6.20628 4.4909C5.28509 5.06261 4.54744 5.5204 3.9789 5.95581C3.39015 6.40669 2.93795 6.86589 2.61131 7.46263C2.28535 8.05812 2.13857 8.69174 2.06819 9.4407C1.99999 10.1665 1.99999 11.0541 2 12.1672V13.7799C1.99999 15.6837 1.99998 17.1866 2.1527 18.3616C2.30937 19.567 2.63856 20.5401 3.38236 21.3094C4.12958 22.0824 5.08046 22.4277 6.25761 22.5914C7.39849 22.75 8.85556 22.75 10.6918 22.75H14.8081C16.6444 22.75 18.1015 22.75 19.2424 22.5914C20.4195 22.4277 21.3704 22.0824 22.1176 21.3094C22.8614 20.5401 23.1906 19.567 23.3473 18.3616C23.5 17.1866 23.5 15.6838 23.5 13.7799V12.1672C23.5 11.0541 23.5 10.1665 23.4318 9.4407C23.3614 8.69174 23.2146 8.05812 22.8887 7.46263C22.5621 6.86589 22.1099 6.40669 21.5211 5.95581C20.9526 5.5204 20.2149 5.06262 19.2937 4.49091L17.2271 3.20831C16.2536 2.60409 15.4741 2.12034 14.7994 1.79224C14.1015 1.45282 13.4581 1.25 12.75 1.25ZM9.02953 4.50412C10.0453 3.87371 10.7595 3.43153 11.3565 3.1412C11.9382 2.85833 12.3502 2.75 12.75 2.75C13.1498 2.75 13.5618 2.85833 14.1435 3.14119C14.7405 3.43153 15.4547 3.87371 16.4705 4.50412L18.4705 5.74537C19.4313 6.34169 20.1059 6.76135 20.6091 7.1467C21.0987 7.52164 21.3803 7.83106 21.5729 8.18285C21.7662 8.53589 21.879 8.94865 21.9384 9.58104C21.9992 10.2286 22 11.0458 22 12.2039V13.725C22 15.6959 21.9985 17.1012 21.8598 18.1683C21.7236 19.2163 21.467 19.8244 21.0392 20.2669C20.6149 20.7058 20.0371 20.9664 19.0358 21.1057C18.0102 21.2483 16.6575 21.25 14.75 21.25H10.75C8.84247 21.25 7.48983 21.2483 6.46422 21.1057C5.46286 20.9664 4.88514 20.7058 4.46079 20.2669C4.03301 19.8244 3.77642 19.2163 3.64019 18.1683C3.50149 17.1012 3.5 15.6959 3.5 13.725V12.2039C3.5 11.0458 3.50076 10.2286 3.56161 9.58104C3.62103 8.94865 3.73385 8.53589 3.92709 8.18285C4.11965 7.83106 4.40133 7.52164 4.89092 7.1467C5.3941 6.76135 6.06869 6.34169 7.02953 5.74537L9.02953 4.50412Z" fill="#757575"/>
</svg>
