<svg width="20" height="20" viewBox="0 0 20 20" fill="none" xmlns="http://www.w3.org/2000/svg">
<path fill-rule="evenodd" clip-rule="evenodd" d="M9.95297 1.04102H10.047C11.5785 1.041 12.7915 1.04099 13.7408 1.16863C14.7179 1.29999 15.5086 1.57675 16.1323 2.20039C16.7559 2.82402 17.0327 3.61481 17.164 4.59183C17.2917 5.54118 17.2917 6.75421 17.2916 8.28567V11.713C17.2917 13.2445 17.2917 14.4575 17.164 15.4069C17.0327 16.3839 16.7559 17.1747 16.1323 17.7983C15.5086 18.4219 14.7179 18.6987 13.7408 18.8301C12.7915 18.9577 11.5785 18.9577 10.047 18.9577H9.95297C8.4215 18.9577 7.20847 18.9577 6.25913 18.8301C5.28211 18.6987 4.49132 18.4219 3.86768 17.7983C3.24405 17.1747 2.96728 16.3839 2.83593 15.4069C2.70829 14.4575 2.7083 13.2445 2.70831 11.713V8.28567C2.7083 6.7542 2.70829 5.54117 2.83593 4.59183C2.96728 3.61481 3.24405 2.82402 3.86768 2.20039C4.49132 1.57675 5.28211 1.29999 6.25913 1.16863C7.20847 1.04099 8.4215 1.041 9.95297 1.04102ZM6.42569 2.40748C5.58728 2.5202 5.10424 2.73159 4.75157 3.08427C4.39889 3.43694 4.1875 3.91998 4.07478 4.75839C3.95964 5.61478 3.95831 6.74367 3.95831 8.33268V11.666C3.95831 13.255 3.95964 14.3839 4.07478 15.2403C4.1875 16.0787 4.39889 16.5618 4.75157 16.9144C5.10424 17.2671 5.58728 17.4785 6.42569 17.5912C7.28207 17.7064 8.41096 17.7077 9.99998 17.7077C11.589 17.7077 12.7179 17.7064 13.5743 17.5912C14.4127 17.4785 14.8957 17.2671 15.2484 16.9144C15.6011 16.5618 15.8125 16.0787 15.9252 15.2403C16.0403 14.3839 16.0416 13.255 16.0416 11.666V8.33268C16.0416 6.74367 16.0403 5.61478 15.9252 4.75839C15.8125 3.91998 15.6011 3.43694 15.2484 3.08427C14.8957 2.73159 14.4127 2.5202 13.5743 2.40748C12.7179 2.29234 11.589 2.29102 9.99998 2.29102C8.41096 2.29102 7.28207 2.29234 6.42569 2.40748ZM6.87498 15.8327C6.87498 15.4875 7.1548 15.2077 7.49998 15.2077H12.5C12.8452 15.2077 13.125 15.4875 13.125 15.8327C13.125 16.1779 12.8452 16.4577 12.5 16.4577H7.49998C7.1548 16.4577 6.87498 16.1779 6.87498 15.8327Z" fill="#9E9E9E"/>
</svg>
