<svg width="100" height="40" viewBox="0 0 100 40" fill="none" xmlns="http://www.w3.org/2000/svg">
<g clip-path="url(#clip0_981_4946)">
<path d="M12.9245 30.5679C12.9837 30.5097 13.0125 30.437 13.0125 30.3482C13.0125 30.2545 12.9837 30.1786 12.9245 30.1204C12.8653 30.0623 12.7932 30.0332 12.7052 30.0332C12.6172 30.0332 12.5452 30.0623 12.486 30.1204C12.4268 30.1786 12.3979 30.2545 12.3979 30.3482C12.3979 30.437 12.4268 30.5097 12.486 30.5679C12.5452 30.626 12.6172 30.6551 12.7052 30.6551C12.7932 30.6551 12.8653 30.626 12.9245 30.5679Z" fill="#B29569"/>
<path d="M11.3113 31.9813C11.2217 32.1315 11.1785 32.306 11.1785 32.5031C11.1785 32.6759 11.2121 32.8294 11.2809 32.9602C11.3497 33.0911 11.4425 33.1993 11.561 33.2865C11.6794 33.3738 11.8186 33.4384 11.977 33.482C12.1355 33.5256 12.3051 33.5482 12.486 33.5482C12.6252 33.5482 12.7644 33.5353 12.9037 33.5078C12.9853 33.4917 13.0653 33.4707 13.1421 33.4465C13.1997 33.5046 13.2653 33.5547 13.339 33.5951C13.4926 33.6775 13.6846 33.7178 13.9135 33.7178H14.3248C14.5568 33.7178 14.7505 33.6758 14.9041 33.5918C14.9633 33.5595 15.0161 33.5191 15.0657 33.4755C15.1153 33.5208 15.1682 33.5611 15.2306 33.5951C15.3842 33.6775 15.5779 33.7178 15.8099 33.7178H17.247V31.4321H16.6453V33.0151H15.8083C15.6851 33.0151 15.5907 33.0055 15.5282 32.9861C15.4642 32.9667 15.4226 32.9279 15.4018 32.8714C15.381 32.8148 15.3698 32.7373 15.3698 32.6355V31.4305H14.7633V32.6355C14.7633 32.7357 14.7521 32.8148 14.7313 32.8714C14.7105 32.9279 14.6672 32.9651 14.6048 32.9861C14.5408 33.0055 14.448 33.0151 14.3248 33.0151H13.9135C13.7935 33.0151 13.7006 33.0055 13.6382 32.9861C13.5742 32.9667 13.5326 32.9279 13.5086 32.8714C13.4862 32.8148 13.475 32.7373 13.475 32.6355V31.1025H12.8732V31.2398C12.6444 31.2592 12.4283 31.2964 12.2315 31.3529C12.0203 31.4143 11.8362 31.4967 11.6794 31.6001C11.5225 31.7035 11.3993 31.8311 11.3113 31.9813ZM11.8762 32.2478C11.9402 32.1719 12.0283 32.1073 12.1387 32.0556C12.2491 32.0039 12.3739 31.9619 12.5132 31.9296C12.6284 31.9038 12.7484 31.8876 12.8732 31.8763V32.6355C12.8732 32.7147 12.8796 32.789 12.8876 32.8601C12.8556 32.8681 12.822 32.8778 12.7884 32.8843C12.694 32.9037 12.59 32.9134 12.478 32.9134C12.3419 32.9134 12.2219 32.8988 12.1163 32.8681C12.0107 32.8375 11.9274 32.7922 11.8682 32.7308C11.8074 32.6695 11.7786 32.5935 11.7786 32.5031C11.7786 32.4126 11.8106 32.3238 11.8762 32.2478Z" fill="#B29569"/>
<path d="M12.2204 30.5679C12.2796 30.5097 12.3084 30.437 12.3084 30.3482C12.3084 30.2545 12.2796 30.1786 12.2204 30.1204C12.1612 30.0623 12.0891 30.0332 12.0011 30.0332C11.9131 30.0332 11.8411 30.0623 11.7819 30.1204C11.7227 30.1786 11.6938 30.2545 11.6938 30.3482C11.6938 30.437 11.7227 30.5097 11.7819 30.5679C11.8411 30.626 11.9131 30.6551 12.0011 30.6551C12.0891 30.6551 12.1612 30.626 12.2204 30.5679Z" fill="#B29569"/>
<path d="M15.1762 34.2913C15.1169 34.3495 15.0881 34.4238 15.0881 34.5143C15.0881 34.6047 15.1169 34.6758 15.1762 34.7339C15.2354 34.7921 15.3074 34.8212 15.3954 34.8212C15.4834 34.8212 15.5554 34.7921 15.6147 34.7339C15.6739 34.6758 15.7027 34.6031 15.7027 34.5143C15.7027 34.4254 15.6739 34.3479 15.6147 34.2913C15.5554 34.2332 15.4834 34.2041 15.3954 34.2041C15.3074 34.2041 15.2354 34.2332 15.1762 34.2913Z" fill="#B29569"/>
<path d="M14.4703 34.2913C14.4111 34.3495 14.3823 34.4238 14.3823 34.5143C14.3823 34.6047 14.4111 34.6758 14.4703 34.7339C14.5296 34.7921 14.6016 34.8212 14.6896 34.8212C14.7776 34.8212 14.8496 34.7921 14.9088 34.7339C14.9681 34.6758 14.9969 34.6031 14.9969 34.5143C14.9969 34.4254 14.9681 34.3479 14.9088 34.2913C14.8496 34.2332 14.7776 34.2041 14.6896 34.2041C14.6016 34.2041 14.5296 34.2332 14.4703 34.2913Z" fill="#B29569"/>
<path d="M16.9462 30.8698C17.0518 30.8698 17.1382 30.8343 17.2054 30.7648C17.2726 30.6953 17.3078 30.6081 17.3078 30.5047C17.3078 30.4013 17.2742 30.3109 17.2054 30.243C17.1366 30.1752 17.0518 30.1396 16.9462 30.1396C16.8405 30.1396 16.7573 30.1736 16.6885 30.243C16.6197 30.3109 16.5845 30.3981 16.5845 30.5047C16.5845 30.6113 16.6197 30.6953 16.6885 30.7648C16.7573 30.8343 16.8437 30.8698 16.9462 30.8698Z" fill="#B29569"/>
<path d="M19.4683 31.3803C19.3083 31.3286 19.1451 31.3027 18.9754 31.3027C18.8058 31.3027 18.6426 31.3334 18.4921 31.3964C18.3417 31.4594 18.2073 31.545 18.092 31.6549C17.9768 31.7647 17.8856 31.894 17.8232 32.0426C17.7608 32.1912 17.7288 32.3543 17.7288 32.5304C17.7288 32.7469 17.78 32.9456 17.8824 33.1265C17.9848 33.3074 18.1288 33.4512 18.3145 33.5578C18.5001 33.6644 18.7178 33.7177 18.9674 33.7177H19.2923V33.855C19.2923 33.9972 19.2523 34.1038 19.1723 34.1749C19.0923 34.2443 18.953 34.2799 18.7546 34.2799H17.9176V34.9826H18.7546C18.9866 34.9826 19.1883 34.939 19.3611 34.8501C19.534 34.7613 19.6652 34.6336 19.7596 34.464C19.8524 34.296 19.9004 34.0925 19.9004 33.855V33.7177H21.6944V31.432H21.0927V33.015H19.8988V31.5499C19.7724 31.4885 19.6284 31.4336 19.47 31.3819L19.4683 31.3803ZM18.9658 33.0506C18.833 33.0506 18.7194 33.028 18.625 32.9827C18.5305 32.9375 18.4569 32.8745 18.4057 32.7937C18.3545 32.713 18.3289 32.6257 18.3289 32.532C18.3289 32.4287 18.3561 32.335 18.4121 32.251C18.4681 32.167 18.5433 32.0991 18.641 32.0474C18.737 31.9957 18.849 31.9699 18.9754 31.9699C19.0747 31.9699 19.1803 31.9877 19.2923 32.0216V33.0506H18.9674H18.9658Z" fill="#B29569"/>
<path d="M21.3934 30.8698C21.499 30.8698 21.5855 30.8343 21.6527 30.7648C21.7199 30.6953 21.7551 30.6081 21.7551 30.5047C21.7551 30.4013 21.7215 30.3109 21.6527 30.243C21.5839 30.1752 21.499 30.1396 21.3934 30.1396C21.2878 30.1396 21.2046 30.1736 21.1358 30.243C21.0669 30.3109 21.0317 30.3981 21.0317 30.5047C21.0317 30.6113 21.0669 30.6953 21.1358 30.7648C21.2046 30.8343 21.291 30.8698 21.3934 30.8698Z" fill="#B29569"/>
<path d="M25.5915 30.7276C25.6507 30.6694 25.6795 30.5967 25.6795 30.5079C25.6795 30.4142 25.6507 30.3383 25.5915 30.2801C25.5322 30.2219 25.4602 30.1929 25.3722 30.1929C25.2842 30.1929 25.2122 30.2219 25.153 30.2801C25.0937 30.3383 25.0649 30.4142 25.0649 30.5079C25.0649 30.5967 25.0937 30.6694 25.153 30.7276C25.2122 30.7857 25.2842 30.8148 25.3722 30.8148C25.4602 30.8148 25.5322 30.7857 25.5915 30.7276Z" fill="#B29569"/>
<path d="M24.8854 30.7276C24.9446 30.6694 24.9734 30.5967 24.9734 30.5079C24.9734 30.4142 24.9446 30.3383 24.8854 30.2801C24.8262 30.2219 24.7542 30.1929 24.6662 30.1929C24.5781 30.1929 24.5061 30.2219 24.4469 30.2801C24.3877 30.3383 24.3589 30.4142 24.3589 30.5079C24.3589 30.5967 24.3877 30.6694 24.4469 30.7276C24.5061 30.7857 24.5781 30.8148 24.6662 30.8148C24.7542 30.8148 24.8262 30.7857 24.8854 30.7276Z" fill="#B29569"/>
<path d="M27.8045 29.8423H27.198V33.0133H26.5786C26.425 33.0133 26.2794 33.01 26.1417 33.0036C26.0745 33.0003 26.0089 32.9971 25.9449 32.9923C25.9641 32.968 25.9833 32.9438 26.0009 32.9196C26.1049 32.7661 26.1561 32.5836 26.1561 32.3736C26.1561 32.1636 26.1049 31.9697 26.0025 31.8098C25.9001 31.6499 25.7624 31.5255 25.5912 31.435C25.42 31.3462 25.2279 31.301 25.0167 31.301C24.8054 31.301 24.6182 31.3462 24.4469 31.4383C24.2757 31.5287 24.1381 31.6547 24.0357 31.813C23.9332 31.9714 23.882 32.1571 23.882 32.3704C23.882 32.6046 23.9476 32.8065 24.0805 32.9777C24.0837 32.9826 24.0901 32.9874 24.0933 32.9923C24.0373 32.9955 23.9796 33.0003 23.9204 33.0036C23.7748 33.0117 23.6196 33.0149 23.4563 33.0149H22.941V29.8439H22.3345V33.7176H23.4563C23.7124 33.7176 23.9684 33.7047 24.2245 33.6788C24.4806 33.653 24.7238 33.611 24.9543 33.5512C24.9751 33.5463 24.9959 33.5383 25.0167 33.5334C25.1623 33.5754 25.3207 33.611 25.4904 33.6384C25.8185 33.6917 26.1801 33.7176 26.5754 33.7176H27.8013V29.8439L27.8045 29.8423ZM24.5542 32.1765C24.599 32.1054 24.663 32.0489 24.7446 32.0053C24.8262 31.9633 24.9191 31.9407 25.0247 31.9407C25.1303 31.9407 25.2215 31.9617 25.2999 32.002C25.3784 32.0424 25.4408 32.099 25.4856 32.17C25.5304 32.2411 25.5528 32.3235 25.5528 32.414C25.5528 32.5174 25.5128 32.6127 25.436 32.6983C25.3576 32.7855 25.2391 32.8614 25.0807 32.926C25.0631 32.9325 25.0439 32.939 25.0247 32.947C25.0103 32.9422 24.9927 32.9373 24.9783 32.9309C24.8118 32.8663 24.6886 32.7887 24.607 32.6983C24.5254 32.6094 24.4854 32.5125 24.4854 32.4091C24.4854 32.3235 24.5078 32.246 24.5526 32.1733L24.5542 32.1765Z" fill="#B29569"/>
<path d="M29.0064 29.8423H28.3999V33.716H29.0064V29.8423Z" fill="#B29569"/>
<path d="M32.5753 31.1929C32.6346 31.1347 32.6634 31.062 32.6634 30.9732C32.6634 30.8795 32.6346 30.8036 32.5753 30.7454C32.5161 30.6873 32.4441 30.6582 32.3561 30.6582C32.2681 30.6582 32.1961 30.6873 32.1368 30.7454C32.0776 30.8036 32.0488 30.8795 32.0488 30.9732C32.0488 31.062 32.0776 31.1347 32.1368 31.1929C32.1961 31.251 32.2681 31.2801 32.3561 31.2801C32.4441 31.2801 32.5161 31.251 32.5753 31.1929Z" fill="#B29569"/>
<path d="M33.2809 31.1929C33.3401 31.1347 33.3689 31.062 33.3689 30.9732C33.3689 30.8795 33.3401 30.8036 33.2809 30.7454C33.2217 30.6873 33.1497 30.6582 33.0617 30.6582C32.9736 30.6582 32.9016 30.6873 32.8424 30.7454C32.7832 30.8036 32.7544 30.8795 32.7544 30.9732C32.7544 31.062 32.7832 31.1347 32.8424 31.1929C32.9016 31.251 32.9736 31.2801 33.0617 31.2801C33.1497 31.2801 33.2217 31.251 33.2809 31.1929Z" fill="#B29569"/>
<path d="M34.6156 31.4303H34.0091V33.0134H32.1959C32.015 33.0134 31.8646 32.9876 31.743 32.9375C31.6229 32.8874 31.5317 32.8131 31.4725 32.7146C31.4117 32.616 31.3813 32.4981 31.3813 32.3608C31.3813 32.2703 31.3941 32.1734 31.4213 32.0732C31.4485 31.9731 31.4885 31.8665 31.5429 31.7534L31.0644 31.5337C30.9732 31.6742 30.906 31.8212 30.8612 31.9763C30.8164 32.1314 30.7939 32.2865 30.7939 32.4416C30.7939 32.6096 30.8212 32.7679 30.8772 32.9213C30.9332 33.0732 31.018 33.2089 31.1348 33.3268C31.25 33.4447 31.3973 33.54 31.5749 33.6095C31.7526 33.6789 31.9622 33.7145 32.2039 33.7145H34.6124V31.4287L34.6156 31.4303Z" fill="#B29569"/>
<path d="M35.8639 29.8423H35.2573V33.716H35.8639V29.8423Z" fill="#B29569"/>
<path d="M37.1841 34.4432C37.2722 34.2784 37.3154 34.083 37.3154 33.8552V31.4321H36.7136V33.8552C36.7136 33.9586 36.6944 34.0442 36.6576 34.1104C36.6208 34.1767 36.5584 34.2267 36.472 34.259C36.3856 34.2913 36.2671 34.3075 36.1167 34.3075L36.2303 34.9779C36.456 34.9682 36.6496 34.9181 36.8113 34.8277C36.9729 34.7356 37.0961 34.608 37.1841 34.4448V34.4432Z" fill="#B29569"/>
<path d="M41.3469 29.6924C41.2621 29.6924 41.1917 29.7215 41.1325 29.7796C41.0732 29.8378 41.0444 29.9105 41.0444 29.9993C41.0444 30.0882 41.0732 30.1592 41.1325 30.2158C41.1917 30.2723 41.2621 30.2998 41.3469 30.2998C41.4317 30.2998 41.5053 30.2723 41.5614 30.2158C41.6174 30.1592 41.6446 30.0865 41.6446 29.9993C41.6446 29.9121 41.6174 29.8378 41.5614 29.7796C41.5053 29.7215 41.4333 29.6924 41.3469 29.6924Z" fill="#B29569"/>
<path d="M40.7755 30.4046C40.7163 30.4628 40.6875 30.5355 40.6875 30.6243C40.6875 30.7132 40.7163 30.7907 40.7755 30.8472C40.8347 30.9054 40.9067 30.9345 40.9948 30.9345C41.0828 30.9345 41.1548 30.9054 41.214 30.8472C41.2732 30.7891 41.302 30.7148 41.302 30.6243C41.302 30.5338 41.2732 30.4628 41.214 30.4046C41.1548 30.3465 41.0828 30.3174 40.9948 30.3174C40.9067 30.3174 40.8347 30.3465 40.7755 30.4046Z" fill="#B29569"/>
<path d="M41.3931 30.6228C41.3931 30.7149 41.4219 30.7892 41.4811 30.8458C41.5403 30.9039 41.6123 30.933 41.7003 30.933C41.7884 30.933 41.8604 30.9039 41.9196 30.8458C41.9788 30.7876 42.0076 30.7133 42.0076 30.6228C42.0076 30.5324 41.9788 30.4613 41.9196 30.4031C41.8604 30.345 41.7884 30.3159 41.7003 30.3159C41.6123 30.3159 41.5403 30.345 41.4811 30.4031C41.4219 30.4613 41.3931 30.534 41.3931 30.6228Z" fill="#B29569"/>
<path d="M45.1286 30.8555C45.1878 30.7973 45.2166 30.7246 45.2166 30.6358C45.2166 30.5421 45.1878 30.4662 45.1286 30.408C45.0694 30.3499 44.9973 30.3208 44.9093 30.3208C44.8213 30.3208 44.7493 30.3499 44.6901 30.408C44.6309 30.4662 44.6021 30.5421 44.6021 30.6358C44.6021 30.7246 44.6309 30.7973 44.6901 30.8555C44.7493 30.9136 44.8213 30.9427 44.9093 30.9427C44.9973 30.9427 45.0694 30.9136 45.1286 30.8555Z" fill="#B29569"/>
<path d="M44.4225 30.8555C44.4817 30.7973 44.5105 30.7246 44.5105 30.6358C44.5105 30.5421 44.4817 30.4662 44.4225 30.408C44.3633 30.3499 44.2913 30.3208 44.2033 30.3208C44.1152 30.3208 44.0432 30.3499 43.984 30.408C43.9248 30.4662 43.896 30.5421 43.896 30.6358C43.896 30.7246 43.9248 30.7973 43.984 30.8555C44.0432 30.9136 44.1152 30.9427 44.2033 30.9427C44.2913 30.9427 44.3633 30.9136 44.4225 30.8555Z" fill="#B29569"/>
<path d="M48.9916 33.608C49.1244 33.5353 49.2333 33.4239 49.3165 33.2753C49.4013 33.1267 49.4429 32.9377 49.4429 32.7099V31.4321H48.8412V32.6372C48.8412 32.7745 48.8012 32.8763 48.7243 32.9425C48.6459 33.0087 48.5579 33.0427 48.4619 33.0427C48.3771 33.0427 48.2987 33.0168 48.225 32.9651C48.169 32.9263 48.129 32.873 48.105 32.8052C48.1066 32.7745 48.1098 32.7438 48.1098 32.7099V31.655H47.5081V32.6356C47.5081 32.7729 47.4681 32.8747 47.3913 32.9409C47.3144 33.0071 47.2248 33.041 47.1288 33.041C47.044 33.041 46.9656 33.0152 46.8919 32.9635C46.8295 32.9199 46.7879 32.8585 46.7655 32.7793C46.7687 32.7325 46.7719 32.684 46.7719 32.634V31.8763H46.1702V32.634C46.1702 32.7341 46.159 32.8133 46.1366 32.8698C46.1142 32.9263 46.071 32.9635 46.0101 32.9845C45.9477 33.0039 45.8549 33.0136 45.7317 33.0136H45.3204C45.1972 33.0136 45.1027 33.0039 45.0403 32.9845C44.9763 32.9651 44.9347 32.9263 44.9139 32.8698C44.8931 32.8133 44.8819 32.7357 44.8819 32.634V31.4289H44.2754V32.634C44.2754 32.7341 44.2641 32.8133 44.2433 32.8698C44.2225 32.9263 44.1793 32.9635 44.1169 32.9845C44.0529 33.0039 43.9601 33.0136 43.8369 33.0136H43.4256C43.3055 33.0136 43.2127 33.0039 43.1503 32.9845C43.0863 32.9651 43.0447 32.9263 43.0223 32.8698C42.9999 32.8133 42.9887 32.7357 42.9887 32.634V31.4289H42.3869V32.634C42.3869 32.7713 42.3469 32.873 42.2701 32.9393C42.1917 33.0055 42.1037 33.0394 42.0076 33.0394C41.9228 33.0394 41.8444 33.0136 41.7708 32.9619C41.7148 32.9231 41.6748 32.8698 41.6508 32.802C41.6524 32.7713 41.6556 32.7406 41.6556 32.7067V31.6518H41.0538V32.6323C41.0538 32.7697 41.0138 32.8714 40.937 32.9377C40.8602 33.0039 40.7706 33.0378 40.6745 33.0378C40.5897 33.0378 40.5113 33.012 40.4377 32.9603C40.3753 32.9167 40.3337 32.8553 40.3113 32.7761C40.3145 32.7293 40.3177 32.6808 40.3177 32.6307V31.8731H39.7159V32.6307C39.7159 32.7309 39.7047 32.81 39.6823 32.8666C39.6599 32.9231 39.6167 32.9603 39.5559 32.9813C39.4935 33.0007 39.4007 33.0103 39.2774 33.0103H38.5221V29.8394H37.9155V33.713H39.2758C39.5047 33.713 39.6967 33.6726 39.8504 33.5903C39.9528 33.5353 40.036 33.4626 40.1048 33.3722C40.1064 33.3754 40.108 33.377 40.1096 33.3803C40.196 33.4966 40.2969 33.5806 40.4153 33.6339C40.5337 33.6872 40.6553 33.713 40.7818 33.713C40.929 33.713 41.0698 33.6759 41.2027 33.6032C41.2971 33.5515 41.3803 33.4788 41.4507 33.3867C41.5355 33.4982 41.6348 33.5806 41.75 33.6323C41.8668 33.6856 41.99 33.7114 42.1165 33.7114C42.2637 33.7114 42.4045 33.6743 42.5374 33.6016C42.5966 33.5693 42.651 33.5273 42.7006 33.4788C42.747 33.5192 42.7966 33.558 42.8542 33.587C43.0079 33.6694 43.1999 33.7098 43.4288 33.7098H43.8401C44.0721 33.7098 44.2657 33.6678 44.4194 33.5838C44.4786 33.5515 44.5314 33.5111 44.581 33.4675C44.6306 33.5127 44.6834 33.5531 44.7459 33.587C44.8995 33.6694 45.0931 33.7098 45.3252 33.7098H45.7365C45.9653 33.7098 46.1574 33.6694 46.311 33.587C46.4134 33.5321 46.4967 33.4594 46.5655 33.369C46.5671 33.3722 46.5687 33.3738 46.5703 33.377C46.6567 33.4933 46.7575 33.5773 46.8759 33.6306C46.9944 33.684 47.116 33.7098 47.2424 33.7098C47.3897 33.7098 47.5305 33.6726 47.6633 33.6C47.7577 33.5483 47.841 33.4756 47.9114 33.3835C47.9962 33.495 48.0954 33.5773 48.2106 33.629C48.3275 33.6823 48.4507 33.7082 48.5771 33.7082C48.7244 33.7082 48.8652 33.671 48.998 33.5983L48.9916 33.608Z" fill="#B29569"/>
<path d="M52.7479 33.716V33.0149V29.8423H52.143V33.0149H51.2884V30.9327H50.6867V33.0149H50.0449V33.716H50.6867H51.2884H52.143H52.7479Z" fill="#B29569"/>
<path d="M54.0411 29.8423H53.4346V33.716H54.0411V29.8423Z" fill="#B29569"/>
<path d="M56.7344 31.5497C56.608 31.4884 56.4639 31.4334 56.3055 31.3817C56.1471 31.33 55.9822 31.3042 55.8126 31.3042C55.643 31.3042 55.4797 31.3349 55.3293 31.3979C55.1789 31.4609 55.0444 31.5465 54.9292 31.6564C54.814 31.7662 54.7228 31.8954 54.6603 32.044C54.5979 32.1927 54.5659 32.3558 54.5659 32.5319C54.5659 32.7483 54.6171 32.947 54.7196 33.128C54.822 33.3089 54.966 33.4527 55.1516 33.5593C55.3373 33.6659 55.5549 33.7192 55.8046 33.7192H56.1295V33.8565C56.1295 33.9987 56.0895 34.1053 56.0094 34.1763C55.9294 34.2458 55.7902 34.2813 55.5917 34.2813H54.7548V34.984H55.5917C55.8238 34.984 56.0254 34.9404 56.1983 34.8516C56.3711 34.7627 56.5024 34.6351 56.5968 34.4655C56.6896 34.2975 56.7376 34.094 56.7376 33.8565V31.553L56.7344 31.5497ZM55.803 33.0504C55.6702 33.0504 55.5565 33.0278 55.4621 32.9826C55.3677 32.9373 55.2941 32.8743 55.2429 32.7936C55.1917 32.7128 55.1661 32.6256 55.1661 32.5319C55.1661 32.4285 55.1933 32.3348 55.2493 32.2508C55.3053 32.1668 55.3805 32.099 55.4781 32.0473C55.5741 31.9956 55.6862 31.9697 55.8126 31.9697C55.9118 31.9697 56.0174 31.9875 56.1295 32.0214V33.0504H55.8046H55.803Z" fill="#B29569"/>
<path d="M59.423 30.5274C59.4822 30.4692 59.511 30.3965 59.511 30.3077C59.511 30.214 59.4822 30.1381 59.423 30.0799C59.3638 30.0218 59.2918 29.9927 59.2038 29.9927C59.1157 29.9927 59.0437 30.0218 58.9845 30.0799C58.9253 30.1381 58.8965 30.214 58.8965 30.3077C58.8965 30.3965 58.9253 30.4692 58.9845 30.5274C59.0437 30.5855 59.1157 30.6146 59.2038 30.6146C59.2918 30.6146 59.3638 30.5855 59.423 30.5274Z" fill="#B29569"/>
<path d="M59.556 33.7031C59.7848 33.7031 59.9849 33.6611 60.1545 33.5755C60.3241 33.4899 60.457 33.3671 60.553 33.2088C60.6474 33.0489 60.6954 32.8648 60.6954 32.6548C60.6954 32.1443 60.3865 31.6258 59.7688 31.104H59.3527C58.7286 31.6306 58.4165 32.1492 58.4165 32.6596C58.4165 32.8664 58.4645 33.0505 58.5605 33.2088C58.6566 33.3671 58.791 33.4915 58.9622 33.5755C59.1335 33.6611 59.3319 33.7031 59.5544 33.7031H59.556ZM59.1223 32.1976C59.2071 32.0571 59.3415 31.9036 59.524 31.7372H59.6008C59.7752 31.902 59.9048 32.0538 59.9897 32.196C60.0745 32.3382 60.1161 32.4674 60.1161 32.5869C60.1161 32.6725 60.0937 32.7468 60.0489 32.8131C60.0041 32.8777 59.94 32.9294 59.8568 32.9633C59.7736 32.9988 59.6744 33.0166 59.556 33.0166C59.4375 33.0166 59.3415 32.9988 59.2583 32.9633C59.1735 32.9278 59.1095 32.8793 59.0647 32.8147C59.0198 32.7501 58.9974 32.6758 58.9974 32.5918C58.9974 32.4706 59.039 32.3398 59.1239 32.1992L59.1223 32.1976Z" fill="#B29569"/>
<path d="M60.1271 30.5274C60.1863 30.4692 60.2151 30.3965 60.2151 30.3077C60.2151 30.214 60.1863 30.1381 60.1271 30.0799C60.0679 30.0218 59.9959 29.9927 59.9079 29.9927C59.8198 29.9927 59.7478 30.0218 59.6886 30.0799C59.6294 30.1381 59.6006 30.214 59.6006 30.3077C59.6006 30.3965 59.6294 30.4692 59.6886 30.5274C59.7478 30.5855 59.8198 30.6146 59.9079 30.6146C59.9959 30.6146 60.0679 30.5855 60.1271 30.5274Z" fill="#B29569"/>
<path d="M65.1796 33.8181C65.2677 33.6501 65.3317 33.4691 65.3733 33.2721C65.4149 33.0766 65.4373 32.8957 65.4373 32.7309C65.4373 32.5581 65.4165 32.3933 65.3765 32.2366C65.3365 32.0799 65.2757 31.941 65.1956 31.8215C65.1156 31.7019 65.0148 31.6066 64.89 31.5355C64.7667 31.4661 64.6211 31.4305 64.4563 31.4305C64.2994 31.4305 64.1586 31.4596 64.0338 31.5178C63.909 31.5759 63.7953 31.6535 63.6945 31.7504C63.5937 31.8473 63.5009 31.9539 63.4192 32.0702C63.336 32.1865 63.2576 32.3012 63.1824 32.4175C63.1072 32.5419 63.032 32.6502 62.9567 32.739C62.8815 32.8278 62.7983 32.8973 62.7055 32.9441C62.6127 32.991 62.5006 33.0152 62.3694 33.0152H61.8541V29.8442H61.2476V33.7179H62.3694C62.5679 33.7179 62.7407 33.6856 62.8863 33.6194C63.0224 33.558 63.1504 33.4659 63.2704 33.3448C63.3296 33.3948 63.3888 33.4417 63.4513 33.4869C63.5729 33.5741 63.7137 33.6436 63.8737 33.6985C64.0338 33.7535 64.2194 33.7906 64.4291 33.81C64.6403 33.8294 64.89 33.8326 65.1796 33.8165V33.8181ZM64.4147 33.1154C64.2098 33.1008 64.0354 33.0621 63.8898 33.0039C63.8001 32.9668 63.7185 32.9199 63.6433 32.8634C63.6561 32.844 63.6689 32.8262 63.6817 32.8052C63.7873 32.6372 63.8833 32.5048 63.9682 32.4062C64.0546 32.3077 64.1362 32.2366 64.2146 32.1914C64.293 32.1478 64.3715 32.1252 64.4499 32.1252C64.5731 32.1252 64.6675 32.1736 64.7331 32.2705C64.7972 32.3675 64.8308 32.5209 64.8308 32.7309C64.8308 32.8634 64.8132 32.9942 64.7812 33.1251C64.6483 33.1251 64.5251 33.1218 64.4147 33.1138V33.1154Z" fill="#B29569"/>
<path d="M75.7064 33.7161H76.9323V29.8424H76.3257V33.0134H75.612C75.4887 33.0134 75.3943 33.0037 75.3319 32.9843C75.2679 32.965 75.2263 32.9262 75.2055 32.8697C75.1847 32.8131 75.1735 32.7356 75.1735 32.6338V29.8408H74.5669V32.6338C74.5669 32.734 74.5557 32.8131 74.5349 32.8697C74.5141 32.9262 74.4709 32.9633 74.4085 32.9843C74.3445 33.0037 74.2517 33.0134 74.1284 33.0134H73.7812C73.6659 33.0134 73.5779 33.0037 73.5139 32.986C73.4499 32.9682 73.4083 32.9327 73.3859 32.8826C73.3715 32.8487 73.3619 32.8018 73.3555 32.7501C73.3555 32.7437 73.3555 32.7356 73.3555 32.7291C73.3555 32.5563 73.3347 32.3915 73.2947 32.2348C73.2546 32.0781 73.1938 31.9392 73.1138 31.8197C73.0338 31.7001 72.933 31.6048 72.8081 31.5337C72.6849 31.4643 72.5393 31.4287 72.3744 31.4287C72.2176 31.4287 72.0768 31.4578 71.952 31.516C71.8271 31.5741 71.7135 31.6517 71.6127 31.7486C71.5119 31.8455 71.419 31.9521 71.3374 32.0684C71.2542 32.1847 71.1758 32.2994 71.1006 32.4157C71.0253 32.5401 70.9501 32.6483 70.8749 32.7372C70.7997 32.826 70.7165 32.8955 70.6237 32.9423C70.5308 32.9892 70.4188 33.0134 70.2876 33.0134H69.7547V32.5062C69.7547 32.3027 69.7179 32.1201 69.6442 31.9586C69.5706 31.797 69.4682 31.6597 69.337 31.5434C69.2057 31.4271 69.0537 31.3399 68.8809 31.2785C68.708 31.2171 68.5208 31.188 68.3223 31.188C68.1479 31.188 67.9751 31.2123 67.8054 31.2607C67.6358 31.3092 67.4742 31.3803 67.3237 31.4756L67.5766 32.0507C67.6758 32.0054 67.791 31.9667 67.9223 31.936C68.0535 31.9053 68.1847 31.8907 68.3175 31.8907C68.492 31.8907 68.6424 31.9182 68.7672 31.9699C68.8921 32.0232 68.9881 32.0959 69.0537 32.1864C69.1193 32.2784 69.1529 32.3834 69.1529 32.5062V33.0134H66.6388V29.8424H66.0322V33.7161H70.286C70.4844 33.7161 70.6573 33.6838 70.8029 33.6176C70.9389 33.5562 71.067 33.4641 71.187 33.343C71.2462 33.393 71.3054 33.4399 71.3678 33.4851C71.4895 33.5723 71.6303 33.6418 71.7903 33.6967C71.9504 33.7517 72.136 33.7888 72.3456 33.8082C72.5569 33.8276 72.8065 33.8308 73.0962 33.8147C73.1378 33.7355 73.1714 33.6547 73.2034 33.5691C73.2146 33.5756 73.2242 33.5853 73.237 33.5917C73.3843 33.6741 73.5651 33.7145 73.7796 33.7145H74.1268C74.3589 33.7145 74.5525 33.6725 74.7062 33.5885C74.7654 33.5562 74.8182 33.5158 74.8678 33.4722C74.9174 33.5174 74.9702 33.5578 75.0326 33.5917C75.1863 33.6741 75.3799 33.7145 75.612 33.7145H75.7064V33.7161ZM72.3344 33.1152C72.1296 33.1007 71.9552 33.0619 71.8095 33.0037C71.7199 32.9666 71.6383 32.9197 71.5631 32.8632C71.5759 32.8438 71.5887 32.826 71.6015 32.805C71.7071 32.637 71.8031 32.5046 71.8879 32.406C71.9744 32.3075 72.056 32.2364 72.1344 32.1912C72.2128 32.1476 72.2912 32.125 72.3696 32.125C72.4929 32.125 72.5873 32.1734 72.6529 32.2704C72.7169 32.3673 72.7505 32.5207 72.7505 32.7307C72.7505 32.8632 72.7329 32.994 72.7009 33.1249C72.5681 33.1249 72.4449 33.1217 72.3344 33.1136V33.1152Z" fill="#B29569"/>
<path d="M12.4748 36.2651L11.2217 39.1664H11.8954L12.1259 38.5864H13.4446L13.6734 39.1664H14.3632L13.1389 36.2651H12.4732H12.4748ZM12.3291 38.076L12.7884 36.9194L13.2445 38.076H12.3291Z" fill="#B29569"/>
<path d="M16.1091 37.2733C16.0483 37.186 15.9763 37.1117 15.8915 37.0536C15.7538 36.9615 15.589 36.9147 15.3953 36.9147C15.1905 36.9147 15.0113 36.9631 14.8576 37.0584C14.704 37.1537 14.584 37.2862 14.4975 37.4542C14.4111 37.6222 14.3679 37.8193 14.3679 38.0422C14.3679 38.2651 14.4111 38.4735 14.4975 38.6447C14.584 38.8176 14.7056 38.9517 14.8624 39.047C15.0193 39.1423 15.2017 39.1907 15.4114 39.1907C15.6002 39.1907 15.7618 39.1439 15.8979 39.0518C15.9811 38.9953 16.0499 38.9226 16.1091 38.837V39.1665H16.7365V36.0908H16.1091V37.2733ZM16.0387 38.3895C15.9923 38.4848 15.9267 38.5591 15.8435 38.614C15.7602 38.6673 15.6642 38.6948 15.5586 38.6948C15.453 38.6948 15.3521 38.6673 15.2689 38.614C15.1857 38.5607 15.1201 38.4848 15.0737 38.3895C15.0273 38.2942 15.0033 38.186 15.0001 38.0648C15.0033 37.9404 15.0273 37.8306 15.0737 37.7337C15.1201 37.6367 15.1857 37.5624 15.2689 37.5075C15.3521 37.4542 15.4482 37.4267 15.5586 37.4267C15.669 37.4267 15.7602 37.4542 15.8435 37.5075C15.9267 37.5608 15.9923 37.6367 16.0387 37.732C16.0851 37.8274 16.1091 37.9388 16.1091 38.0664C16.1091 38.194 16.0851 38.2958 16.0387 38.3911V38.3895Z" fill="#B29569"/>
<path d="M18.2281 38.5817L17.7064 36.9404H17.0535L17.8905 39.1664H18.5402L19.374 36.9404H18.745L18.2281 38.5817Z" fill="#B29569"/>
<path d="M21.1968 37.0614C21.0192 36.9677 20.8127 36.9209 20.5775 36.9209C20.3422 36.9209 20.1342 36.9677 19.9549 37.0614C19.7757 37.1551 19.6365 37.2876 19.5388 37.4572C19.4396 37.6268 19.3916 37.8255 19.3916 38.0517C19.3916 38.2778 19.4412 38.4765 19.5388 38.6477C19.6381 38.819 19.7757 38.9514 19.9549 39.0451C20.1342 39.1388 20.3422 39.1857 20.5775 39.1857C20.8127 39.1857 21.0192 39.1388 21.1968 39.0451C21.3744 38.9514 21.5137 38.819 21.6113 38.6477C21.7105 38.4765 21.7585 38.2778 21.7585 38.0517C21.7585 37.8255 21.7089 37.6268 21.6113 37.4572C21.5121 37.2876 21.3744 37.1551 21.1968 37.0614ZM21.0576 38.3893C21.0112 38.4846 20.9471 38.5589 20.8639 38.6138C20.7823 38.6671 20.6863 38.6946 20.5759 38.6946C20.4654 38.6946 20.3694 38.6671 20.2862 38.6138C20.203 38.5605 20.1374 38.4846 20.091 38.3893C20.0445 38.294 20.0205 38.1841 20.0205 38.0597C20.0205 37.9354 20.0445 37.8255 20.091 37.7302C20.1374 37.6349 20.203 37.5606 20.2862 37.5089C20.3694 37.4572 20.4654 37.4297 20.5759 37.4297C20.6863 37.4297 20.7807 37.4556 20.8639 37.5089C20.9455 37.5622 21.0112 37.6349 21.0576 37.7302C21.104 37.8255 21.128 37.9354 21.128 38.0597C21.128 38.1841 21.104 38.294 21.0576 38.3893Z" fill="#B29569"/>
<path d="M23.447 38.6125C23.359 38.6545 23.2598 38.6772 23.1478 38.6772C23.047 38.6772 22.9557 38.6513 22.8773 38.6012C22.7989 38.5512 22.7365 38.4768 22.6901 38.3832C22.6453 38.2895 22.6229 38.1812 22.6229 38.0601C22.6229 37.9389 22.6453 37.8275 22.6901 37.7354C22.7349 37.6433 22.7973 37.5706 22.8773 37.5205C22.9573 37.4705 23.047 37.4446 23.1478 37.4446C23.2566 37.4446 23.3542 37.4656 23.439 37.506C23.5239 37.548 23.5943 37.6062 23.6519 37.6805L24.0792 37.3735C23.98 37.2298 23.8487 37.1183 23.6855 37.0408C23.5207 36.9616 23.3318 36.9229 23.119 36.9229C22.9061 36.9229 22.7013 36.9697 22.53 37.065C22.3588 37.1603 22.226 37.2944 22.1316 37.4656C22.0371 37.6368 21.9907 37.8355 21.9907 38.0617C21.9907 38.2878 22.0371 38.4817 22.1316 38.6529C22.226 38.8242 22.3588 38.955 22.5284 39.0487C22.6981 39.1424 22.8949 39.1892 23.119 39.1892C23.343 39.1892 23.5351 39.1472 23.7047 39.0648C23.8727 38.9825 24.004 38.8645 24.0968 38.7127L23.6615 38.4219C23.6071 38.5075 23.5351 38.5722 23.4486 38.6142L23.447 38.6125Z" fill="#B29569"/>
<path d="M26.0826 37.1276C25.9209 36.9871 25.6905 36.916 25.3928 36.916C25.2648 36.916 25.1448 36.9257 25.0359 36.9467C24.9271 36.9677 24.8199 36.9968 24.7159 37.0356C24.6118 37.0743 24.5046 37.1228 24.3958 37.1809L24.5926 37.5961C24.7079 37.5331 24.8215 37.483 24.9335 37.4491C25.0455 37.4152 25.1512 37.3974 25.2504 37.3974C25.4008 37.3974 25.516 37.4313 25.5929 37.5008C25.6697 37.5702 25.7097 37.6656 25.7097 37.7867V37.8287H25.1016C24.8311 37.8319 24.623 37.8917 24.4774 38.0112C24.3318 38.1308 24.2598 38.2939 24.2598 38.5007C24.2598 38.6332 24.2902 38.7527 24.3526 38.8577C24.4134 38.9627 24.5014 39.0451 24.615 39.1065C24.7287 39.1679 24.8631 39.1969 25.0199 39.1969C25.2136 39.1969 25.3784 39.1582 25.5128 39.0806C25.5929 39.0338 25.6585 38.974 25.7129 38.9029V39.1679H26.3338L26.329 37.714C26.3258 37.4652 26.2442 37.2698 26.0826 37.1292V37.1276ZM25.6249 38.5718C25.5769 38.6251 25.516 38.6687 25.444 38.6994C25.372 38.7317 25.2888 38.7479 25.196 38.7479C25.0888 38.7479 25.0055 38.722 24.9431 38.6719C24.8807 38.6219 24.8503 38.5508 24.8503 38.4619C24.8503 38.3731 24.8807 38.3036 24.9399 38.2632C25.0007 38.2212 25.0904 38.2019 25.2104 38.2019H25.7081V38.3925C25.6969 38.4603 25.6681 38.5217 25.6233 38.5734L25.6249 38.5718Z" fill="#B29569"/>
<path d="M28.1472 38.6125C28.0592 38.6545 27.96 38.6772 27.848 38.6772C27.7472 38.6772 27.6559 38.6513 27.5775 38.6012C27.4991 38.5512 27.4367 38.4768 27.3903 38.3832C27.3455 38.2895 27.3231 38.1812 27.3231 38.0601C27.3231 37.9389 27.3455 37.8275 27.3903 37.7354C27.4351 37.6433 27.4975 37.5706 27.5775 37.5205C27.6575 37.4705 27.7472 37.4446 27.848 37.4446C27.9568 37.4446 28.0544 37.4656 28.1392 37.506C28.2241 37.548 28.2945 37.6062 28.3521 37.6805L28.7794 37.3735C28.6802 37.2298 28.5489 37.1183 28.3857 37.0408C28.2209 36.9616 28.032 36.9229 27.8192 36.9229C27.6063 36.9229 27.4015 36.9697 27.2302 37.065C27.059 37.1603 26.9262 37.2944 26.8318 37.4656C26.7373 37.6368 26.6909 37.8355 26.6909 38.0617C26.6909 38.2878 26.7373 38.4817 26.8318 38.6529C26.9262 38.8242 27.059 38.955 27.2286 39.0487C27.3983 39.1424 27.5951 39.1892 27.8192 39.1892C28.0432 39.1892 28.2353 39.1472 28.4049 39.0648C28.5729 38.9825 28.7042 38.8645 28.797 38.7127L28.3617 38.4219C28.3073 38.5075 28.2353 38.5722 28.1488 38.6142L28.1472 38.6125Z" fill="#B29569"/>
<path d="M30.077 38.4993L29.4977 36.9404H28.8447L29.7601 39.1212L29.6993 39.2537C29.6689 39.3231 29.6289 39.3748 29.5809 39.4087C29.5329 39.4427 29.4737 39.4604 29.4081 39.4604C29.312 39.4604 29.216 39.4217 29.12 39.3441L28.8527 39.7883C28.9423 39.8594 29.0368 39.9127 29.1344 39.9483C29.232 39.9822 29.3376 40 29.4529 40C29.6449 40 29.8065 39.9515 29.941 39.8546C30.0754 39.7577 30.181 39.6139 30.261 39.4233L31.2293 36.9404H30.5971L30.0754 38.4993H30.077Z" fill="#B29569"/>
<path d="M34.9022 38.0019L34.4957 37.7112C34.4397 37.8921 34.366 38.052 34.2812 38.1942C34.078 37.9906 33.9115 37.8162 33.7787 37.6659C33.8923 37.6094 33.9996 37.5464 34.1004 37.4786C34.206 37.4075 34.2924 37.3219 34.3612 37.2233C34.4301 37.1248 34.4637 37.0069 34.4637 36.8696C34.4637 36.7484 34.4301 36.6402 34.3612 36.5449C34.2924 36.4496 34.1996 36.3736 34.0812 36.3187C33.9628 36.2638 33.8267 36.2363 33.6699 36.2363C33.5131 36.2363 33.369 36.2654 33.2506 36.3219C33.1322 36.3785 33.0409 36.4576 32.9737 36.5594C32.9065 36.6612 32.8729 36.7823 32.8729 36.9196C32.8729 37.0214 32.8937 37.1264 32.9337 37.2346C32.9737 37.3396 33.0378 37.4543 33.1258 37.5771C33.0506 37.6191 32.9769 37.6627 32.9081 37.7112C32.7993 37.7855 32.7113 37.8759 32.6425 37.9809C32.5736 38.0859 32.54 38.2135 32.54 38.3622C32.54 38.5221 32.5816 38.6659 32.6633 38.7919C32.7449 38.9179 32.8585 39.0164 33.0041 39.0875C33.1498 39.1585 33.3114 39.1957 33.4923 39.1957C33.6923 39.1957 33.8811 39.1472 34.0588 39.0503C34.1516 39.0002 34.2412 38.9372 34.3244 38.8645C34.4541 38.9922 34.5933 39.1279 34.7437 39.2749L35.0638 38.9599C34.9022 38.8064 34.7549 38.6642 34.6189 38.5318C34.7277 38.3767 34.8222 38.2022 34.899 38.0036L34.9022 38.0019ZM33.4506 36.6902C33.5067 36.6305 33.5819 36.6014 33.6747 36.6014C33.7675 36.6014 33.8363 36.6272 33.8875 36.6773C33.9388 36.7274 33.966 36.7952 33.966 36.8776C33.966 36.9778 33.9324 37.0618 33.8635 37.1329C33.7947 37.2039 33.7067 37.2686 33.5979 37.3283C33.5787 37.3396 33.5563 37.3509 33.5371 37.3606C33.5083 37.317 33.481 37.275 33.4602 37.2362C33.3978 37.1183 33.3658 37.0117 33.3658 36.9148C33.3658 36.8243 33.393 36.7484 33.4506 36.6886V36.6902ZM33.5179 38.7434C33.4298 38.7434 33.3514 38.7256 33.281 38.6917C33.2106 38.6578 33.1562 38.6077 33.1162 38.5431C33.0762 38.4785 33.057 38.4025 33.057 38.3169C33.057 38.2152 33.0906 38.1263 33.1578 38.0536C33.2138 37.9922 33.2874 37.9357 33.3722 37.884C33.4074 37.9244 33.4458 37.9664 33.4859 38.01C33.6283 38.1635 33.8011 38.3412 34.0012 38.5431C33.9708 38.5689 33.9388 38.5932 33.9067 38.6158C33.7803 38.7014 33.6507 38.7434 33.5163 38.7434H33.5179Z" fill="#B29569"/>
<path d="M37.1682 36.2651H36.52V39.1664H38.3956V38.6155H37.1682V36.2651Z" fill="#B29569"/>
<path d="M40.3609 37.0841C40.1944 36.9758 39.9832 36.9209 39.7223 36.9209C39.4983 36.9241 39.2998 36.9726 39.1286 37.0663C38.9574 37.16 38.8245 37.2924 38.7285 37.4621C38.6325 37.6317 38.5845 37.832 38.5845 38.0614C38.5845 38.2907 38.6309 38.4814 38.7253 38.6526C38.8197 38.8238 38.9526 38.9547 39.1254 39.0484C39.2982 39.142 39.5015 39.1889 39.7367 39.1889C39.9368 39.1889 40.116 39.155 40.2761 39.0887C40.4361 39.0225 40.5705 38.9272 40.6809 38.8028L40.3481 38.4717C40.1896 38.6316 40.004 38.7124 39.7895 38.7124C39.6711 38.7124 39.5687 38.6849 39.4775 38.63C39.3863 38.575 39.3174 38.4959 39.2678 38.3941C39.247 38.3505 39.231 38.3004 39.2182 38.2487H40.8026C40.8218 37.9774 40.793 37.7431 40.7177 37.546C40.6425 37.349 40.5225 37.1955 40.3561 37.0857L40.3609 37.0841ZM39.2102 37.8724C39.2214 37.8061 39.2374 37.7431 39.2614 37.6866C39.3046 37.5897 39.367 37.5137 39.4471 37.4588C39.5271 37.4039 39.6199 37.3764 39.7255 37.3764C39.8215 37.3764 39.9064 37.3974 39.98 37.4378C40.0536 37.4798 40.1112 37.5364 40.1496 37.6091C40.188 37.6817 40.2104 37.7706 40.2136 37.8724H39.2086H39.2102Z" fill="#B29569"/>
<path d="M42.6658 37.2443C42.6082 37.1651 42.541 37.0973 42.4609 37.044C42.3297 36.9584 42.1713 36.9164 41.984 36.9196C41.7984 36.9196 41.6336 36.9648 41.4895 37.0537C41.3455 37.1441 41.2335 37.2669 41.155 37.422C41.075 37.5787 41.0366 37.7628 41.0366 37.9744C41.0366 38.1861 41.0782 38.3751 41.1598 38.5366C41.2415 38.6981 41.3551 38.8241 41.4991 38.913C41.6432 39.0034 41.8112 39.0471 42.0016 39.0471C42.1921 39.0471 42.3409 39.0051 42.4689 38.9194C42.5458 38.8678 42.6114 38.8015 42.6658 38.724V38.9728C42.6658 39.0778 42.6418 39.1698 42.5938 39.249C42.5458 39.3281 42.4769 39.3879 42.3889 39.4315C42.2993 39.4735 42.1953 39.4961 42.0753 39.4961C41.9552 39.4961 41.8288 39.4768 41.7136 39.4364C41.5983 39.396 41.4911 39.3411 41.3887 39.2684L41.155 39.6997C41.2831 39.7853 41.4287 39.8547 41.5919 39.9097C41.7552 39.963 41.9296 39.9904 42.1153 39.9904C42.3537 39.9904 42.5602 39.9484 42.7346 39.8644C42.909 39.7804 43.0467 39.6609 43.1459 39.5058C43.2451 39.3508 43.2931 39.1682 43.2931 38.9582V36.9406H42.6642V37.2443H42.6658ZM42.6002 38.3024C42.557 38.3928 42.4961 38.4623 42.4177 38.5124C42.3393 38.5624 42.2497 38.5867 42.1489 38.5867C42.048 38.5867 41.9536 38.5624 41.8752 38.5124C41.7968 38.4623 41.7376 38.3928 41.6944 38.3024C41.6512 38.2119 41.6287 38.1101 41.6271 37.9938C41.6303 37.8743 41.6528 37.7709 41.6944 37.6804C41.736 37.59 41.7984 37.5205 41.8768 37.4705C41.9552 37.4204 42.0464 37.3961 42.1473 37.3961C42.2481 37.3961 42.3377 37.4204 42.4161 37.4705C42.4945 37.5205 42.5554 37.59 42.5986 37.6804C42.6418 37.7709 42.6642 37.8743 42.6642 37.9938C42.6642 38.1134 42.6418 38.2135 42.5986 38.3024H42.6002Z" fill="#B29569"/>
<path d="M45.524 37.1276C45.3623 36.9871 45.1319 36.916 44.8342 36.916C44.7062 36.916 44.5862 36.9257 44.4773 36.9467C44.3685 36.9677 44.2613 36.9968 44.1573 37.0356C44.0533 37.0743 43.946 37.1228 43.8372 37.1809L44.034 37.5961C44.1493 37.5331 44.2629 37.483 44.3749 37.4491C44.4869 37.4152 44.5926 37.3974 44.6918 37.3974C44.8422 37.3974 44.9575 37.4313 45.0343 37.5008C45.1111 37.5702 45.1511 37.6656 45.1511 37.7867V37.8287H44.543C44.2725 37.8319 44.0645 37.8917 43.9188 38.0112C43.7732 38.1308 43.7012 38.2939 43.7012 38.5007C43.7012 38.6332 43.7316 38.7527 43.794 38.8577C43.8548 38.9627 43.9428 39.0451 44.0565 39.1065C44.1701 39.1679 44.3045 39.1969 44.4613 39.1969C44.655 39.1969 44.8198 39.1582 44.9543 39.0806C45.0343 39.0338 45.0999 38.974 45.1543 38.9029V39.1679H45.7752L45.7704 37.714C45.7672 37.4652 45.6856 37.2698 45.524 37.1292V37.1276ZM45.0663 38.5718C45.0183 38.6251 44.9575 38.6687 44.8854 38.6994C44.8134 38.7317 44.7302 38.7479 44.6374 38.7479C44.5302 38.7479 44.4469 38.722 44.3845 38.6719C44.3221 38.6219 44.2917 38.5508 44.2917 38.4619C44.2917 38.3731 44.3221 38.3036 44.3813 38.2632C44.4421 38.2212 44.5318 38.2019 44.6518 38.2019H45.1495V38.3925C45.1383 38.4603 45.1095 38.5217 45.0647 38.5734L45.0663 38.5718Z" fill="#B29569"/>
<path d="M46.972 36.0908H46.3398V39.1665H46.972V36.0908Z" fill="#B29569"/>
<path d="M50.4547 38.543C50.3235 38.6044 50.1923 38.6367 50.061 38.6367C49.9378 38.6367 49.8242 38.6125 49.7186 38.564C49.6129 38.5156 49.5201 38.4493 49.4385 38.3653C49.3585 38.2813 49.2961 38.1828 49.2512 38.0697C49.208 37.9566 49.1856 37.8355 49.1856 37.7046C49.1856 37.5738 49.208 37.4494 49.2512 37.3363C49.2945 37.2233 49.3569 37.1247 49.4385 37.0407C49.5185 36.9567 49.6129 36.8905 49.7186 36.8436C49.8242 36.7968 49.9378 36.7726 50.061 36.7726C50.1955 36.7726 50.3299 36.8065 50.4627 36.8743C50.5972 36.9422 50.7124 37.0359 50.8084 37.1538L51.1861 36.7063C51.0901 36.6046 50.9812 36.5173 50.8596 36.4479C50.738 36.3768 50.6083 36.3235 50.4691 36.2847C50.3299 36.2459 50.1923 36.2266 50.053 36.2266C49.8338 36.2266 49.6321 36.2637 49.4481 36.338C49.2625 36.4123 49.1008 36.5173 48.9616 36.653C48.8224 36.7887 48.7135 36.9454 48.6367 37.1247C48.5599 37.304 48.5215 37.4995 48.5215 37.7095C48.5215 37.9195 48.5599 38.1198 48.6367 38.3023C48.7135 38.4849 48.8191 38.6448 48.9552 38.7805C49.0912 38.9162 49.2496 39.0228 49.4321 39.1003C49.6145 39.1762 49.813 39.215 50.029 39.215C50.1683 39.215 50.3091 39.194 50.4483 39.1504C50.5875 39.1068 50.722 39.047 50.8484 38.9695C50.9764 38.8919 51.0901 38.8015 51.1909 38.6965L50.8084 38.2942C50.7044 38.3992 50.5859 38.4832 50.4547 38.5446V38.543Z" fill="#B29569"/>
<path d="M53.127 37.0614C52.9493 36.9677 52.7429 36.9209 52.5076 36.9209C52.2724 36.9209 52.0643 36.9677 51.8851 37.0614C51.7059 37.1551 51.5666 37.2876 51.469 37.4572C51.3698 37.6268 51.3218 37.8255 51.3218 38.0517C51.3218 38.2778 51.3714 38.4765 51.469 38.6477C51.5682 38.819 51.7059 38.9514 51.8851 39.0451C52.0643 39.1388 52.2724 39.1857 52.5076 39.1857C52.7429 39.1857 52.9493 39.1388 53.127 39.0451C53.3046 38.9514 53.4439 38.819 53.5415 38.6477C53.6407 38.4765 53.6887 38.2778 53.6887 38.0517C53.6887 37.8255 53.6391 37.6268 53.5415 37.4572C53.4423 37.2876 53.3046 37.1551 53.127 37.0614ZM52.9878 38.3893C52.9413 38.4846 52.8773 38.5589 52.7941 38.6138C52.7125 38.6671 52.6165 38.6946 52.506 38.6946C52.3956 38.6946 52.2996 38.6671 52.2164 38.6138C52.1332 38.5605 52.0675 38.4846 52.0211 38.3893C51.9747 38.294 51.9507 38.1841 51.9507 38.0597C51.9507 37.9354 51.9747 37.8255 52.0211 37.7302C52.0675 37.6349 52.1332 37.5606 52.2164 37.5089C52.2996 37.4572 52.3956 37.4297 52.506 37.4297C52.6165 37.4297 52.7109 37.4556 52.7941 37.5089C52.8757 37.5622 52.9413 37.6349 52.9878 37.7302C53.0342 37.8255 53.0582 37.9354 53.0582 38.0597C53.0582 38.1841 53.0342 38.294 52.9878 38.3893Z" fill="#B29569"/>
<path d="M55.9339 37.021C55.8123 36.9499 55.6683 36.916 55.505 36.916C55.3162 36.916 55.1529 36.958 55.0137 37.042C54.9017 37.1099 54.8121 37.2084 54.74 37.3328V36.9402H54.1079V39.1662H54.74V38.0678C54.74 37.8998 54.7849 37.7592 54.8761 37.6494C54.9657 37.5396 55.0889 37.4814 55.2458 37.4798C55.3802 37.4798 55.4858 37.5218 55.5642 37.6042C55.6427 37.6866 55.6811 37.8012 55.6811 37.9482V39.1662H56.3132V37.7689C56.3132 37.5945 56.2796 37.4442 56.214 37.3166C56.1484 37.189 56.0539 37.0905 55.9323 37.021H55.9339Z" fill="#B29569"/>
<path d="M58.1873 37.9775C58.0977 37.9274 58.0049 37.887 57.9056 37.8547C57.8064 37.8224 57.7136 37.7949 57.624 37.7691C57.5344 37.7449 57.4623 37.7142 57.4063 37.6802C57.3503 37.6463 57.3215 37.5995 57.3215 37.5413C57.3215 37.4799 57.3455 37.4363 57.3935 37.4089C57.4415 37.3814 57.5023 37.3669 57.576 37.3669C57.6688 37.3669 57.7744 37.3862 57.8928 37.4234C58.0097 37.4605 58.1297 37.5122 58.2497 37.5785L58.4674 37.1552C58.3441 37.0777 58.2081 37.0179 58.0593 36.9776C57.9104 36.9356 57.7584 36.9146 57.6064 36.9146C57.4543 36.9146 57.3023 36.9388 57.1711 36.9889C57.0398 37.0389 56.9342 37.1132 56.8542 37.215C56.7742 37.3152 56.7358 37.4444 56.7358 37.5979C56.7358 37.7271 56.763 37.8337 56.8174 37.9145C56.8718 37.9952 56.9422 38.0615 57.0286 38.1115C57.1151 38.1616 57.2079 38.2004 57.3055 38.2295C57.4047 38.2585 57.4975 38.286 57.584 38.3119C57.672 38.3377 57.7424 38.37 57.7968 38.4072C57.8512 38.4443 57.8784 38.4944 57.8784 38.5542C57.8784 38.5962 57.8656 38.6301 57.8416 38.6575C57.8176 38.685 57.784 38.706 57.7424 38.7189C57.7008 38.7335 57.6528 38.7399 57.5984 38.7399C57.4783 38.7399 57.3487 38.7157 57.2111 38.6672C57.0735 38.6188 56.9454 38.5509 56.8318 38.4621L56.627 38.8772C56.7534 38.979 56.899 39.0565 57.0671 39.1098C57.2335 39.1632 57.4063 39.189 57.584 39.189C57.7504 39.189 57.9024 39.1632 58.0401 39.1131C58.1777 39.063 58.2849 38.9839 58.3649 38.8805C58.445 38.7771 58.4834 38.6511 58.4834 38.5009C58.4834 38.3684 58.4562 38.2602 58.4018 38.1762C58.3473 38.0922 58.2753 38.0243 58.1857 37.9759L58.1873 37.9775Z" fill="#B29569"/>
<path d="M60.3781 38.039C60.3781 38.207 60.3349 38.3476 60.2485 38.4574C60.1621 38.5673 60.0421 38.6238 59.8884 38.627C59.7604 38.627 59.658 38.585 59.5844 38.5027C59.5107 38.4203 59.4739 38.3072 59.4739 38.1634V36.9406H58.8418V38.3379C58.8418 38.5123 58.8754 38.6626 58.941 38.7902C59.0066 38.9178 59.0979 39.0163 59.2163 39.0858C59.3347 39.1569 59.4755 39.1908 59.6388 39.1908C59.8228 39.1876 59.9797 39.1456 60.1125 39.0616C60.2213 38.9937 60.3093 38.8952 60.3765 38.7676V39.165H61.0055V36.939H60.3765V38.0374L60.3781 38.039Z" fill="#B29569"/>
<path d="M62.2718 36.0908H61.6396V39.1665H62.2718V36.0908Z" fill="#B29569"/>
<path d="M63.9793 38.6527C63.9297 38.6673 63.8849 38.6737 63.8433 38.6737C63.7776 38.6769 63.7248 38.6576 63.688 38.6172C63.6512 38.5768 63.6304 38.5073 63.6304 38.4072V37.4622H64.2305V37.0357H63.6304V36.4219H63.0031V37.0357H62.6958V37.4622H63.0031V38.5106C63.0031 38.6624 63.0335 38.79 63.0927 38.8918C63.1535 38.9936 63.2351 39.0695 63.3407 39.1196C63.4464 39.1696 63.5648 39.1939 63.696 39.1939C63.8 39.1939 63.9009 39.1793 64.0001 39.1519C64.0993 39.1244 64.1889 39.0856 64.2706 39.0356L64.1393 38.5881C64.0817 38.6156 64.0289 38.6366 63.9793 38.6495V38.6527Z" fill="#B29569"/>
<path d="M66.3028 37.1276C66.1412 36.9871 65.9107 36.916 65.613 36.916C65.485 36.916 65.365 36.9257 65.2562 36.9467C65.1473 36.9677 65.0401 36.9968 64.9361 37.0356C64.8321 37.0743 64.7248 37.1228 64.616 37.1809L64.8129 37.5961C64.9281 37.5331 65.0417 37.483 65.1537 37.4491C65.2658 37.4152 65.3714 37.3974 65.4706 37.3974C65.621 37.3974 65.7363 37.4313 65.8131 37.5008C65.8899 37.5702 65.9299 37.6656 65.9299 37.7867V37.8287H65.3218C65.0513 37.8319 64.8433 37.8917 64.6976 38.0112C64.552 38.1308 64.48 38.2939 64.48 38.5007C64.48 38.6332 64.5104 38.7527 64.5728 38.8577C64.6336 38.9627 64.7216 39.0451 64.8353 39.1065C64.9489 39.1679 65.0833 39.1969 65.2402 39.1969C65.4338 39.1969 65.5986 39.1582 65.7331 39.0806C65.8131 39.0338 65.8787 38.974 65.9331 38.9029V39.1679H66.554L66.5492 37.714C66.546 37.4652 66.4644 37.2698 66.3028 37.1292V37.1276ZM65.8451 38.5718C65.7971 38.6251 65.7363 38.6687 65.6642 38.6994C65.5922 38.7317 65.509 38.7479 65.4162 38.7479C65.309 38.7479 65.2257 38.722 65.1633 38.6719C65.1009 38.6219 65.0705 38.5508 65.0705 38.4619C65.0705 38.3731 65.1009 38.3036 65.1601 38.2632C65.2209 38.2212 65.3106 38.2019 65.4306 38.2019H65.9283V38.3925C65.9171 38.4603 65.8883 38.5217 65.8435 38.5734L65.8451 38.5718Z" fill="#B29569"/>
<path d="M68.1751 38.6527C68.1255 38.6673 68.0807 38.6737 68.0391 38.6737C67.9734 38.6769 67.9206 38.6576 67.8838 38.6172C67.847 38.5768 67.8262 38.5073 67.8262 38.4072V37.4622H68.4263V37.0357H67.8262V36.4219H67.1989V37.0357H66.8916V37.4622H67.1989V38.5106C67.1989 38.6624 67.2293 38.79 67.2885 38.8918C67.3493 38.9936 67.4309 39.0695 67.5365 39.1196C67.6422 39.1696 67.7606 39.1939 67.8918 39.1939C67.9958 39.1939 68.0967 39.1793 68.1959 39.1519C68.2951 39.1244 68.3847 39.0856 68.4664 39.0356L68.3351 38.5881C68.2775 38.6156 68.2247 38.6366 68.1751 38.6495V38.6527Z" fill="#B29569"/>
<path d="M69.4813 36.9404H68.8491V39.1664H69.4813V36.9404Z" fill="#B29569"/>
<path d="M69.1661 35.9585C69.0701 35.9585 68.99 35.9924 68.9244 36.0586C68.8588 36.1249 68.8252 36.2073 68.8252 36.3074C68.8252 36.4076 68.8588 36.49 68.9244 36.5562C68.99 36.6224 69.0717 36.6563 69.1661 36.6563C69.2669 36.6563 69.3501 36.6224 69.4141 36.5562C69.4781 36.49 69.5101 36.4076 69.5101 36.3074C69.5101 36.2073 69.4781 36.1249 69.4141 36.0586C69.3501 35.9924 69.2669 35.9585 69.1661 35.9585Z" fill="#B29569"/>
<path d="M71.7071 37.0614C71.5294 36.9677 71.323 36.9209 71.0877 36.9209C70.8525 36.9209 70.6444 36.9677 70.4652 37.0614C70.2859 37.1551 70.1467 37.2876 70.0491 37.4572C69.9499 37.6268 69.9019 37.8255 69.9019 38.0517C69.9019 38.2778 69.9515 38.4765 70.0491 38.6477C70.1483 38.819 70.2859 38.9514 70.4652 39.0451C70.6444 39.1388 70.8525 39.1857 71.0877 39.1857C71.323 39.1857 71.5294 39.1388 71.7071 39.0451C71.8847 38.9514 72.0239 38.819 72.1216 38.6477C72.2208 38.4765 72.2688 38.2778 72.2688 38.0517C72.2688 37.8255 72.2192 37.6268 72.1216 37.4572C72.0223 37.2876 71.8847 37.1551 71.7071 37.0614ZM71.5662 38.3893C71.5198 38.4846 71.4558 38.5589 71.3726 38.6138C71.291 38.6671 71.1949 38.6946 71.0845 38.6946C70.9741 38.6946 70.8781 38.6671 70.7949 38.6138C70.7116 38.5605 70.646 38.4846 70.5996 38.3893C70.5532 38.294 70.5292 38.1841 70.5292 38.0597C70.5292 37.9354 70.5532 37.8255 70.5996 37.7302C70.646 37.6349 70.7116 37.5606 70.7949 37.5089C70.8781 37.4572 70.9741 37.4297 71.0845 37.4297C71.1949 37.4297 71.2894 37.4556 71.3726 37.5089C71.4542 37.5622 71.5198 37.6349 71.5662 37.7302C71.6126 37.8255 71.6366 37.9354 71.6366 38.0597C71.6366 38.1841 71.6126 38.294 71.5662 38.3893Z" fill="#B29569"/>
<path d="M74.5125 37.021C74.3909 36.9499 74.2469 36.916 74.0836 36.916C73.8948 36.916 73.7316 36.958 73.5923 37.042C73.4803 37.1099 73.3907 37.2084 73.3187 37.3328V36.9402H72.6865V39.1662H73.3187V38.0678C73.3187 37.8998 73.3635 37.7592 73.4547 37.6494C73.5443 37.5396 73.6675 37.4814 73.8244 37.4798C73.9588 37.4798 74.0644 37.5218 74.1429 37.6042C74.2213 37.6866 74.2597 37.8012 74.2597 37.9482V39.1662H74.8918V37.7689C74.8918 37.5945 74.8582 37.4442 74.7926 37.3166C74.727 37.189 74.6326 37.0905 74.5109 37.021H74.5125Z" fill="#B29569"/>
<path d="M76.7674 37.9775C76.6778 37.9274 76.5849 37.887 76.4857 37.8547C76.3865 37.8224 76.2937 37.7949 76.2041 37.7691C76.1144 37.7449 76.0424 37.7142 75.9864 37.6802C75.9304 37.6463 75.9016 37.5995 75.9016 37.5413C75.9016 37.4799 75.9256 37.4363 75.9736 37.4089C76.0216 37.3814 76.0824 37.3669 76.156 37.3669C76.2489 37.3669 76.3545 37.3862 76.4729 37.4234C76.5897 37.4605 76.7098 37.5122 76.8298 37.5785L77.0474 37.1552C76.9242 37.0777 76.7882 37.0179 76.6394 36.9776C76.4905 36.9356 76.3385 36.9146 76.1864 36.9146C76.0344 36.9146 75.8824 36.9388 75.7512 36.9889C75.6199 37.0389 75.5143 37.1132 75.4343 37.215C75.3543 37.3152 75.3159 37.4444 75.3159 37.5979C75.3159 37.7271 75.3431 37.8337 75.3975 37.9145C75.4519 37.9952 75.5223 38.0615 75.6087 38.1115C75.6951 38.1616 75.788 38.2004 75.8856 38.2295C75.9848 38.2585 76.0776 38.286 76.164 38.3119C76.2521 38.3377 76.3225 38.37 76.3769 38.4072C76.4313 38.4443 76.4585 38.4944 76.4585 38.5542C76.4585 38.5962 76.4457 38.6301 76.4217 38.6575C76.3977 38.685 76.3641 38.706 76.3225 38.7189C76.2809 38.7335 76.2329 38.7399 76.1785 38.7399C76.0584 38.7399 75.9288 38.7157 75.7912 38.6672C75.6535 38.6188 75.5255 38.5509 75.4119 38.4621L75.207 38.8772C75.3335 38.979 75.4791 39.0565 75.6471 39.1098C75.8136 39.1632 75.9864 39.189 76.164 39.189C76.3305 39.189 76.4825 39.1632 76.6201 39.1131C76.7578 39.063 76.865 38.9839 76.945 38.8805C77.025 38.7771 77.0634 38.6511 77.0634 38.5009C77.0634 38.3684 77.0362 38.2602 76.9818 38.1762C76.9274 38.0922 76.8554 38.0243 76.7658 37.9759L76.7674 37.9775Z" fill="#B29569"/>
<path d="M71.1808 14.0294C70.563 17.706 67.6088 20.5894 63.9199 21.0643C65.2898 19.05 66.1876 16.6834 66.4453 14.1295C66.4965 13.6255 66.5221 8.27702 66.5221 7.76009H60.1207C60.1207 8.24794 60.0807 13.5641 60.0022 14.0294C59.4757 17.1648 57.248 19.7236 54.3162 20.7041C55.8109 18.3651 56.6815 15.5834 56.6815 12.5982H50.2801C50.2801 16.8821 47.137 20.4408 43.0561 21.045C42.7392 21.0918 24.932 21.1209 17.1782 21.1306C16.8102 13.1894 10.2935 6.84256 2.33652 6.84256V13.3041C6.95516 13.3041 10.7192 17.0614 10.7896 21.7073C5.16276 23.3259 0.889799 28.214 0.123228 34.1974C0.0416093 34.8306 0 38.5104 0 39.1663H6.40143C6.40143 38.6704 6.44304 35.1504 6.52466 34.6771C7.21122 30.6613 10.6872 27.5953 14.8593 27.5953C20.3902 27.5905 42.736 27.5727 43.1105 27.5388C46.3768 27.2545 49.3423 25.8959 51.6628 23.8202V27.5953C56.1166 27.5953 60.1159 25.6036 62.8429 22.46V27.5953C70.523 27.5953 76.862 21.6814 77.6238 14.1279C77.675 13.6239 77.7006 5.0301 77.7006 4.51318H71.2992C71.2992 5.00103 71.2592 13.5625 71.1808 14.0278V14.0294Z" fill="#B29569"/>
<path d="M13.6351 7.76028C15.7581 7.76028 17.4791 6.02308 17.4791 3.88014C17.4791 1.7372 15.7581 0 13.6351 0C11.5121 0 9.79102 1.7372 9.79102 3.88014C9.79102 6.02308 11.5121 7.76028 13.6351 7.76028Z" fill="#B29569"/>
<path d="M86.4354 0.151855H80.0884V29.5437H86.4354V0.151855Z" fill="#B29569"/>
<path d="M96.8266 4.51514H90.4252C90.4252 5.57159 90.2331 26.2387 89.8843 27.1741C88.6776 30.4032 85.5841 32.7051 81.9673 32.7051V39.1666C88.9689 39.1666 94.8566 34.2526 96.4185 27.6603C96.5946 26.9204 96.7146 17.5852 96.777 10.9847H99.9985V4.51514H96.825H96.8266Z" fill="#B29569"/>
</g>
<defs>
<clipPath id="clip0_981_4946">
<rect width="100" height="40" fill="white"/>
</clipPath>
</defs>
</svg>
