<svg width="296" height="197" viewBox="0 0 296 197" fill="none" xmlns="http://www.w3.org/2000/svg">
<path d="M263.223 59.2061L259.446 77.468L257.015 75.1001L252.878 78.0472L249.717 74.1269L242.629 79.2725L236.571 69.1586L229.814 73.1104L227.134 69.4225L218.554 74.249L215.973 68.7291L221.988 39.6479L254.232 46.2947L263.223 59.2061Z" fill="#EBEBEB"/>
<path d="M254.232 46.2949L263.223 59.2063L252.038 56.9014L254.232 46.2949Z" fill="#DBDBDB"/>
<path d="M258.641 81.1168L253.103 107.909L209.67 98.9571L215.168 72.3818L217.749 77.8978L226.333 73.0713L229.009 76.7592L235.77 72.8113L241.824 82.9253L248.916 77.7796L252.073 81.696L256.213 78.7528L258.641 81.1168Z" fill="#EBEBEB"/>
<path d="M196.477 77.9764L152.215 80.7108L148.698 23.9906L181.566 21.9575L193.631 32.0636L196.477 77.9764Z" fill="#EBEBEB"/>
<path d="M181.566 21.9575L193.631 32.0636L182.233 32.7689L181.566 21.9575Z" fill="#DBDBDB"/>
<path d="M169.312 60.1244L169.138 58.8439C168.692 56.1922 169.419 53.2254 171.727 50.1246C173.811 47.3666 174.94 45.3966 174.814 43.1587C174.672 40.6371 172.994 39.0454 169.872 39.1714C168.088 39.264 166.375 39.8961 164.959 40.9838L163.597 37.9382C165.176 36.6577 167.939 35.7121 170.563 35.5742C176.258 35.259 179.029 38.6238 179.246 42.3786C179.435 45.7394 177.691 48.265 175.473 51.216C173.436 53.907 172.769 56.1253 173.057 58.635L173.18 59.9195L169.312 60.1244ZM168.609 67.1021C168.507 65.2739 169.671 63.9186 171.404 63.824C173.136 63.7295 174.399 64.943 174.502 66.7751C174.597 68.5047 173.535 69.8995 171.704 70.0019C169.955 70.1004 168.692 68.8318 168.594 67.1021H168.609Z" fill="#DBDBDB"/>
<path d="M58.6001 50.4753L54.1483 48.4619L53.5287 49.8212C53.4372 50.0155 53.2944 50.1812 53.1157 50.3006C52.937 50.42 52.7292 50.4885 52.5144 50.4989C52.2697 50.5069 52.0259 50.5306 51.7843 50.5698C51.5722 50.6013 51.3555 50.5746 51.1574 50.4927C50.9593 50.4108 50.7872 50.2768 50.6595 50.1049L49.7872 48.8874L45.8129 51.7321L46.6852 52.9496C46.8065 53.1253 46.8779 53.3305 46.8918 53.5435C46.9057 53.7565 46.8615 53.9692 46.7641 54.1592C46.6516 54.3758 46.5501 54.5981 46.4602 54.825C46.382 55.0251 46.2507 55.2002 46.0803 55.3314C45.91 55.4626 45.707 55.545 45.4933 55.5697L44.0054 55.7155L44.4829 60.5735L45.9787 60.4238C46.1932 60.4066 46.4083 60.4482 46.601 60.544C46.7936 60.6398 46.9564 60.7862 47.0719 60.9675C47.1351 61.0699 47.2022 61.1684 47.2732 61.2669C47.3443 61.3654 47.4153 61.46 47.4903 61.5545C47.6265 61.72 47.7141 61.9199 47.7433 62.132C47.7726 62.3441 47.7424 62.5602 47.656 62.7562L47.0325 64.1274L51.4883 66.1446L52.1079 64.7775C52.2002 64.5834 52.3438 64.4181 52.5232 64.2994C52.7027 64.1807 52.9111 64.113 53.1261 64.1037C53.368 64.0938 53.6092 64.0701 53.8484 64.0328C54.0604 64.0014 54.2771 64.028 54.4752 64.1099C54.6733 64.1918 54.8454 64.3258 54.9732 64.4977L55.8454 65.7152L59.8236 62.8705L58.9514 61.653C58.8263 61.4789 58.7527 61.2733 58.7387 61.0595C58.7248 60.8457 58.7711 60.6323 58.8725 60.4435C58.9824 60.228 59.0812 60.0071 59.1685 59.7815C59.2444 59.5799 59.3751 59.4035 59.5459 59.2719C59.7167 59.1404 59.9208 59.059 60.1354 59.0369L61.6312 58.8872L61.1497 54.0291L59.6539 54.1749C59.4407 54.1936 59.2265 54.1531 59.035 54.0578C58.8434 53.9626 58.682 53.8163 58.5686 53.6351C58.5015 53.5327 58.4344 53.4342 58.3633 53.3357C58.2923 53.2372 58.2213 53.1387 58.1463 53.0481C58.011 52.8806 57.9241 52.6795 57.8949 52.4663C57.8657 52.2532 57.8953 52.0361 57.9805 51.8385L58.6001 50.4753ZM56.0743 54.9708C56.5358 55.6138 56.796 56.3789 56.8219 57.1695C56.8478 57.9601 56.6382 58.7406 56.2198 59.4122C55.8013 60.0839 55.1927 60.6166 54.471 60.943C53.7492 61.2694 52.9467 61.3748 52.165 61.2458C51.3833 61.1168 50.6574 60.7593 50.0792 60.2185C49.501 59.6777 49.0965 58.9778 48.9167 58.2074C48.737 57.437 48.7901 56.6307 49.0694 55.8905C49.3487 55.1503 49.8416 54.5094 50.4858 54.0488C51.3494 53.4314 52.4233 53.1817 53.4713 53.3546C54.5193 53.5275 55.4556 54.1088 56.0743 54.9708Z" fill="#EBEBEB"/>
<path d="M259.84 114.934L256.873 116.644L257.397 117.55C257.476 117.68 257.515 117.83 257.51 117.981C257.505 118.133 257.456 118.28 257.37 118.405C257.279 118.547 257.192 118.692 257.113 118.846C257.048 118.982 256.946 119.096 256.818 119.176C256.69 119.256 256.542 119.297 256.391 119.295H255.349V122.719H256.399C256.55 122.717 256.698 122.759 256.826 122.838C256.954 122.918 257.056 123.032 257.121 123.168C257.2 123.322 257.287 123.468 257.378 123.609C257.464 123.734 257.513 123.881 257.518 124.033C257.523 124.185 257.484 124.334 257.405 124.464L256.88 125.371L259.848 127.081L260.377 126.17C260.454 126.041 260.565 125.936 260.698 125.867C260.831 125.797 260.981 125.766 261.131 125.776H261.636C261.786 125.766 261.936 125.798 262.069 125.867C262.202 125.937 262.313 126.042 262.39 126.17L262.919 127.085L265.883 125.375L265.358 124.464C265.283 124.334 265.247 124.185 265.252 124.034C265.258 123.884 265.305 123.738 265.389 123.613C265.48 123.472 265.567 123.322 265.646 123.172C265.711 123.036 265.813 122.922 265.941 122.842C266.069 122.762 266.217 122.721 266.368 122.723H267.418V119.299H266.36C266.21 119.301 266.061 119.26 265.933 119.18C265.805 119.1 265.703 118.986 265.638 118.85C265.559 118.7 265.472 118.551 265.382 118.409C265.297 118.284 265.25 118.138 265.244 117.988C265.239 117.837 265.275 117.688 265.35 117.558L265.875 116.647L262.911 114.938L262.382 115.836C262.305 115.965 262.194 116.07 262.061 116.14C261.928 116.209 261.778 116.241 261.628 116.23H261.376H261.123C260.973 116.24 260.822 116.209 260.689 116.139C260.555 116.07 260.443 115.965 260.365 115.836L259.84 114.934ZM261.376 118.204C261.932 118.203 262.476 118.367 262.938 118.675C263.401 118.983 263.762 119.421 263.975 119.934C264.188 120.446 264.244 121.011 264.136 121.555C264.028 122.1 263.76 122.6 263.367 122.993C262.973 123.385 262.472 123.653 261.927 123.761C261.381 123.869 260.816 123.813 260.302 123.6C259.789 123.387 259.35 123.027 259.042 122.565C258.733 122.103 258.569 121.56 258.57 121.005C258.569 120.637 258.641 120.272 258.782 119.932C258.923 119.592 259.129 119.282 259.39 119.022C259.651 118.761 259.96 118.555 260.301 118.413C260.642 118.272 261.007 118.2 261.376 118.2V118.204Z" fill="#EBEBEB"/>
<path d="M67.6064 35.9168L64.8872 37.9971L65.5147 38.8284C65.6083 38.9469 65.6659 39.0897 65.6805 39.2399C65.6952 39.39 65.6664 39.5412 65.5976 39.6755C65.522 39.8289 65.4561 39.9868 65.4002 40.1483C65.3516 40.2906 65.2641 40.4166 65.1477 40.5119C65.0312 40.6073 64.8904 40.6683 64.7411 40.6881L63.6992 40.8221L64.1412 44.2144L65.1832 44.0805C65.3348 44.0594 65.4894 44.0814 65.629 44.1442C65.7687 44.2069 65.8877 44.3077 65.9725 44.4351C66.0675 44.5721 66.1703 44.7037 66.2803 44.8291C66.382 44.9407 66.4495 45.0791 66.4746 45.2279C66.4998 45.3766 66.4817 45.5295 66.4224 45.6683L66.0278 46.6375L69.1851 47.9495L69.5798 46.9803C69.6385 46.8413 69.7351 46.7214 69.8585 46.6344C69.982 46.5473 70.1274 46.4966 70.2783 46.4878L70.5309 46.4602L70.7795 46.4208C70.9256 46.3933 71.0764 46.4064 71.2156 46.4585C71.3547 46.5106 71.4769 46.5997 71.5689 46.7163L72.2122 47.5555L74.9314 45.4752L74.296 44.6439C74.2042 44.5238 74.1479 44.3805 74.1332 44.2301C74.1186 44.0798 74.1463 43.9283 74.2131 43.7928C74.288 43.6405 74.3538 43.4839 74.4105 43.324C74.4591 43.1817 74.5466 43.0558 74.663 42.9604C74.7795 42.865 74.9203 42.804 75.0696 42.7842L76.1115 42.6502L75.6695 39.2579L74.6275 39.3919C74.4763 39.4134 74.322 39.3919 74.1824 39.3299C74.0427 39.2678 73.9235 39.1678 73.8382 39.0412C73.7395 38.8994 73.6369 38.7654 73.5264 38.6472C73.4345 38.5332 73.375 38.3966 73.3541 38.2517C73.3333 38.1068 73.3519 37.959 73.408 37.8237L73.8027 36.8545L70.6454 35.5425L70.2507 36.5117C70.1912 36.6502 70.0944 36.7696 69.9711 36.8565C69.8478 36.9434 69.7028 36.9946 69.5521 37.0042L69.2995 37.0279L69.0667 37.0357C68.9206 37.0632 68.7698 37.0502 68.6307 36.9981C68.4915 36.946 68.3693 36.8568 68.2774 36.7402L67.6064 35.9168ZM69.5521 38.9624C70.1019 38.8918 70.6603 38.9854 71.1568 39.2313C71.6534 39.4772 72.0659 39.8644 72.3422 40.344C72.6186 40.8237 72.7465 41.3743 72.7098 41.9265C72.6731 42.4786 72.4734 43.0075 72.1359 43.4465C71.7984 43.8854 71.3383 44.2148 70.8135 44.393C70.2888 44.5712 69.7229 44.5902 69.1873 44.4478C68.6517 44.3053 68.1704 44.0076 67.8041 43.5923C67.4377 43.1771 67.2028 42.6628 67.1289 42.1144C67.0796 41.7484 67.1032 41.3763 67.1984 41.0195C67.2937 40.6627 67.4587 40.3282 67.6839 40.0353C67.9091 39.7424 68.1901 39.4968 68.5107 39.3126C68.8313 39.1285 69.1853 39.0095 69.5521 38.9624Z" fill="#EBEBEB"/>
<path d="M47.2887 124.811C47.4369 121.002 47.3842 117.188 47.1308 113.385C46.5661 105.532 45.3664 97.7365 43.5433 90.076C42.5408 85.7657 41.3095 81.5262 40.0229 77.2907C39.9834 77.1607 39.7782 77.1962 39.8137 77.3301C43.788 92.2627 47.0479 107.668 46.823 123.192C46.7598 127.526 46.2546 131.801 45.8442 136.119C45.8442 136.233 46.0218 136.28 46.0494 136.162C46.8664 132.455 47.1347 128.586 47.2887 124.811Z" fill="#EBEBEB"/>
<path d="M39.8139 77.3184C39.8139 77.3184 33.7992 92.5662 35.145 96.1358C36.4909 99.7054 39.2693 100.47 39.2693 100.47C39.2693 100.47 35.5871 105.718 38.1603 110.639C40.7335 115.56 46.4483 115.328 46.843 120.907C46.8311 120.934 47.1469 97.6054 39.8139 77.3184Z" fill="#EBEBEB"/>
<path d="M46.1758 111.301C46.1855 111.275 46.1855 111.247 46.1758 111.222C45.3864 100.812 43.4298 90.5235 40.3427 80.5491C40.3427 80.5215 40.2835 80.5294 40.2913 80.5491C41.4832 85.0144 42.5357 89.4982 43.4487 94.0003C42.6401 93.2355 41.6522 92.6855 40.5755 92.4006C40.5755 92.4006 40.5439 92.4243 40.5755 92.4321C41.7066 92.8459 42.7236 93.521 43.5434 94.4021C43.7171 95.2886 43.8907 96.1712 44.0525 97.0577C42.7067 95.5566 40.8439 94.8119 38.9771 94.1027C38.9729 94.1045 38.9693 94.1076 38.9668 94.1114C38.9642 94.1153 38.9629 94.1198 38.9629 94.1244C38.9629 94.129 38.9642 94.1335 38.9668 94.1373C38.9693 94.1412 38.9729 94.1442 38.9771 94.146C40.9228 94.934 42.8567 95.9506 44.1749 97.6251C44.6327 100.155 45.0352 102.693 45.3825 105.241C44.4108 104.225 43.1646 103.512 41.795 103.188C41.7516 103.188 41.7279 103.24 41.7713 103.251C43.1782 103.665 44.4343 104.478 45.3865 105.592H45.4102C45.5286 106.485 45.6417 107.382 45.7496 108.283C44.9979 107.648 44.1491 107.137 43.2356 106.77C43.2119 106.77 43.1961 106.797 43.2356 106.805C44.1678 107.208 45.0215 107.773 45.7575 108.472C45.7575 108.472 45.7772 108.472 45.7891 108.472C45.8877 109.327 45.9864 110.182 46.0732 111.037C44.718 109.401 42.9592 108.146 40.9702 107.396C40.9618 107.396 40.9538 107.4 40.9478 107.405C40.9419 107.411 40.9386 107.419 40.9386 107.428C40.9386 107.436 40.9419 107.444 40.9478 107.45C40.9538 107.456 40.9618 107.459 40.9702 107.459C42.9342 108.324 44.6594 109.65 45.9982 111.324C46.013 111.343 46.0328 111.356 46.0553 111.363C46.0778 111.37 46.1019 111.371 46.1245 111.364C46.2548 112.676 46.3732 113.988 46.4679 115.304C46.4679 115.324 46.4995 115.324 46.4995 115.304C46.3968 113.983 46.289 112.648 46.1758 111.301Z" fill="white"/>
<path d="M41.3415 90.8998C40.2522 90.223 39.0078 89.8351 37.7263 89.7729C37.72 89.7729 37.714 89.7754 37.7096 89.7799C37.7051 89.7843 37.7026 89.7903 37.7026 89.7966C37.7026 89.8029 37.7051 89.8089 37.7096 89.8133C37.714 89.8177 37.72 89.8202 37.7263 89.8202C38.9653 90.0548 40.1677 90.4522 41.302 91.0022C41.3494 91.014 41.3849 90.9313 41.3415 90.8998Z" fill="white"/>
<path d="M42.0715 107.042C41.2343 106.562 40.3125 106.248 39.3562 106.116C39.3247 106.116 39.3207 106.159 39.3562 106.167C40.29 106.354 41.1932 106.67 42.04 107.105C42.0755 107.124 42.1071 107.061 42.0715 107.042Z" fill="white"/>
<path d="M63.1072 96.4C60.5627 98.1559 58.2258 100.194 56.1413 102.475C53.9916 104.891 52.3334 107.701 51.2593 110.749C48.9733 117.1 47.7441 123.781 47.6205 130.528C47.5438 134.265 47.9027 137.997 48.69 141.651C48.6964 141.677 48.7128 141.701 48.7357 141.715C48.7587 141.73 48.7865 141.736 48.8134 141.731C48.8403 141.726 48.8642 141.71 48.8802 141.688C48.8961 141.666 48.9029 141.639 48.8992 141.612C47.9195 135.164 47.9568 128.603 49.0097 122.168C50.0437 115.864 51.6658 109 55.6835 103.874C57.87 101.081 60.5971 98.8861 63.2927 96.6167C63.4348 96.4906 63.2532 96.2976 63.1072 96.4Z" fill="#EBEBEB"/>
<path d="M48.5044 125.981C49.9528 123.643 51.6548 121.47 53.5798 119.504C56.5911 116.498 59.1249 114.362 59.5195 112.376C59.9142 110.391 56.5043 108.925 56.5043 108.925C56.5043 108.925 60.668 109.674 61.8086 107.928C62.9492 106.183 63.4978 96.0728 63.4978 96.0728C63.4978 96.0728 55.9202 101.474 52.3879 109.047C48.8556 116.62 48.5044 125.981 48.5044 125.981Z" fill="#EBEBEB"/>
<path d="M60.7786 105.557C60.2796 105.483 59.7738 105.465 59.271 105.505C59.2118 105.505 59.2157 105.608 59.271 105.612C59.7682 105.612 60.2695 105.588 60.7668 105.612C60.7724 105.61 60.7776 105.607 60.7817 105.603C60.7857 105.599 60.7885 105.594 60.7898 105.588C60.791 105.582 60.7906 105.576 60.7886 105.571C60.7866 105.565 60.7832 105.56 60.7786 105.557Z" fill="white"/>
<path d="M55.3359 115.363C54.5358 115.38 53.7448 115.537 52.9995 115.828C52.9995 115.828 52.9995 115.868 52.9995 115.864C53.7888 115.678 54.5506 115.604 55.332 115.47C55.3422 115.465 55.3509 115.458 55.3572 115.449C55.3635 115.44 55.367 115.429 55.3674 115.418C55.3678 115.407 55.3651 115.396 55.3595 115.386C55.354 115.376 55.3458 115.368 55.3359 115.363Z" fill="white"/>
<path d="M53.7021 111.975C53.3699 111.972 53.0382 112.001 52.7115 112.061C52.7055 112.064 52.7002 112.068 52.6966 112.073C52.6929 112.078 52.6909 112.085 52.6909 112.091C52.6909 112.097 52.6929 112.104 52.6966 112.109C52.7002 112.114 52.7055 112.118 52.7115 112.121C53.0423 112.14 53.3742 112.125 53.7021 112.077C53.7157 112.077 53.7288 112.072 53.7384 112.062C53.748 112.053 53.7534 112.04 53.7534 112.026C53.7534 112.012 53.748 111.999 53.7384 111.99C53.7288 111.98 53.7157 111.975 53.7021 111.975Z" fill="white"/>
<path d="M26.2885 107.124C28.7548 107.959 31.1182 109.071 33.3333 110.438C35.6316 111.896 37.6246 113.785 39.202 116.001C42.5207 120.613 45.0617 125.736 46.7243 131.166C47.6516 134.173 48.2238 137.278 48.4293 140.417C48.4249 140.438 48.4138 140.456 48.3976 140.469C48.3814 140.482 48.3613 140.489 48.3405 140.489C48.3197 140.489 48.2995 140.482 48.2833 140.469C48.2672 140.456 48.256 140.438 48.2517 140.417C47.555 134.974 46.0075 129.673 43.6656 124.709C41.3647 119.843 38.4639 114.665 34.0279 111.443C31.6125 109.689 28.8972 108.539 26.1898 107.325C26.0477 107.278 26.1464 107.077 26.2885 107.124Z" fill="#EBEBEB"/>
<path d="M44.9564 127.695C43.2418 126.138 41.3611 124.773 39.3482 123.625C36.2145 121.888 33.6689 120.745 32.8914 119.228C32.1139 117.711 34.5333 115.741 34.5333 115.741C34.5333 115.741 31.3365 117.317 30.0104 116.155C28.6843 114.993 25.8979 106.955 25.8979 106.955C25.8979 106.955 33.2822 109.575 37.8879 114.89C42.4937 120.205 44.9564 127.695 44.9564 127.695Z" fill="#EBEBEB"/>
<path d="M38.8272 120.296C38.1012 120.245 37.3722 120.335 36.6802 120.56C36.6802 120.56 36.6802 120.595 36.6802 120.591C37.3862 120.471 38.0995 120.397 38.8153 120.371C38.8666 120.371 38.8785 120.3 38.8272 120.296Z" fill="white"/>
<path d="M32.3861 111.865C32.0549 111.838 31.7216 111.856 31.3955 111.92C31.3599 111.92 31.3718 111.983 31.3955 111.979C31.723 111.943 32.0427 111.955 32.3663 111.947C32.3764 111.948 32.3863 111.945 32.3943 111.939C32.4023 111.932 32.408 111.924 32.4103 111.914C32.4126 111.904 32.4115 111.894 32.4071 111.885C32.4027 111.876 32.3952 111.869 32.3861 111.865Z" fill="white"/>
<path d="M54.4798 150.579H37.813L40.1889 133.199L40.7967 128.743H51.4961L52.1039 133.199L54.4798 150.579Z" fill="#DBDBDB"/>
<path d="M52.104 133.199H40.189L40.7968 128.743H51.4962L52.104 133.199Z" fill="#C7C7C7"/>
<path d="M53.0232 127.199H39.2651V130.973H53.0232V127.199Z" fill="#DBDBDB"/>
<path d="M27.2163 150.579L57.2149 150.484L87.2135 150.449L147.211 150.382L207.208 150.449L237.207 150.484L267.205 150.579L237.207 150.677L207.208 150.709L147.211 150.776L87.2135 150.709L57.2149 150.673L27.2163 150.579Z" fill="#263238"/>
<path d="M148 179.944C210.5 179.944 261.167 174.401 261.167 167.564C261.167 160.727 210.5 155.185 148 155.185C85.5 155.185 34.8335 160.727 34.8335 167.564C34.8335 174.401 85.5 179.944 148 179.944Z" fill="#EBEBEB"/>
<path d="M121.656 165.515C120.737 165.827 94.369 165.909 93.3586 165.287C92.964 165.05 92.739 161.217 92.5693 156.575C92.5338 155.575 92.5062 154.538 92.4825 153.49L90.3789 139.448L108.009 139.334L109.67 153.38L109.603 156.469C109.603 156.469 119.714 160.941 120.749 161.753C121.783 162.564 122.576 165.204 121.656 165.515Z" fill="#EB9481"/>
<path d="M121.656 165.516C120.736 165.827 94.3688 165.91 93.3584 165.287C92.8927 164.995 92.6401 159.397 92.498 153.491L109.65 153.38L109.583 156.469C109.583 156.469 119.695 160.941 120.729 161.753C121.763 162.565 122.576 165.204 121.656 165.516Z" fill="white"/>
<path d="M121.656 165.515C120.737 165.827 94.369 165.909 93.3587 165.287C92.964 165.051 92.739 161.217 92.5693 156.576L109.568 156.469C109.568 156.469 119.679 160.941 120.713 161.753C121.747 162.564 122.576 165.204 121.656 165.515Z" fill="#A6A6A6"/>
<path d="M121.274 164.463C116.853 164.369 99.0143 164.412 94.6375 164.656C94.602 164.656 94.602 164.68 94.6375 164.684C99.0183 164.869 116.857 164.684 121.274 164.534C121.368 164.53 121.368 164.463 121.274 164.463Z" fill="#263238"/>
<path d="M119.028 160.811C118.536 160.8 118.048 160.891 117.593 161.078C117.139 161.265 116.728 161.545 116.387 161.898C115.766 162.53 115.416 163.378 115.409 164.262C115.409 164.29 115.456 164.29 115.46 164.262C115.607 163.391 116.032 162.59 116.672 161.979C117.312 161.368 118.133 160.981 119.012 160.874C119.02 160.876 119.029 160.875 119.037 160.87C119.044 160.866 119.049 160.859 119.051 160.85C119.054 160.842 119.052 160.833 119.048 160.826C119.043 160.818 119.036 160.813 119.028 160.811Z" fill="#263238"/>
<path d="M111.296 156.902C109.528 156.883 107.48 157.513 106.383 158.963C106.343 159.018 106.422 159.077 106.474 159.05C108.018 158.236 109.646 157.588 111.328 157.119C111.354 157.112 111.376 157.096 111.391 157.073C111.406 157.05 111.412 157.023 111.408 156.997C111.404 156.97 111.391 156.946 111.37 156.928C111.35 156.911 111.323 156.902 111.296 156.902Z" fill="#263238"/>
<path d="M112.67 157.426C110.898 157.426 108.849 158.041 107.756 159.487C107.713 159.546 107.792 159.605 107.847 159.578C109.389 158.761 111.016 158.112 112.697 157.643C112.723 157.636 112.745 157.62 112.76 157.598C112.775 157.576 112.781 157.549 112.778 157.523C112.774 157.496 112.762 157.472 112.742 157.454C112.722 157.437 112.696 157.427 112.67 157.426Z" fill="#263238"/>
<path d="M114.035 157.955C112.267 157.955 110.219 158.565 109.122 160.015C109.082 160.07 109.161 160.13 109.212 160.102C110.757 159.288 112.384 158.641 114.067 158.171C114.093 158.164 114.115 158.148 114.13 158.125C114.145 158.103 114.151 158.076 114.147 158.049C114.143 158.022 114.129 157.998 114.109 157.981C114.088 157.963 114.062 157.954 114.035 157.955Z" fill="#263238"/>
<path d="M115.405 158.482C113.633 158.463 111.584 159.093 110.491 160.543C110.448 160.598 110.531 160.657 110.582 160.63C112.126 159.815 113.754 159.168 115.436 158.699C115.462 158.692 115.485 158.676 115.5 158.653C115.514 158.631 115.52 158.603 115.517 158.577C115.513 158.55 115.499 158.526 115.479 158.508C115.458 158.491 115.432 158.482 115.405 158.482Z" fill="#263238"/>
<path d="M95.75 160.46C93.7767 160.46 93.7767 163.553 95.75 163.542C97.7234 163.53 97.7391 160.449 95.75 160.46Z" fill="#263238"/>
<path d="M113.194 152.182C112.298 151.442 111.17 152.182 110.621 152.943C109.708 154.287 109.164 155.846 109.042 157.466C109.042 157.501 109.07 157.517 109.098 157.517C109.105 157.55 109.12 157.582 109.141 157.608C109.163 157.634 109.19 157.655 109.222 157.669C109.253 157.682 109.287 157.688 109.321 157.686C109.355 157.683 109.388 157.673 109.417 157.655C110.672 156.784 112.125 156.004 113.076 154.771C113.617 154.054 114.059 152.872 113.194 152.182ZM111.039 155.941C110.432 156.386 109.804 156.8 109.212 157.269C109.528 156.386 109.8 155.496 110.203 154.645C110.389 154.237 110.602 153.842 110.842 153.463C111.237 152.876 112.958 151.394 113.139 153.313C113.242 154.365 111.762 155.413 111.039 155.941Z" fill="#263238"/>
<path d="M104.638 158.136C106.177 158.364 107.768 157.923 109.279 157.683C109.312 157.674 109.342 157.658 109.368 157.636C109.393 157.613 109.413 157.585 109.426 157.554C109.439 157.522 109.444 157.489 109.441 157.455C109.438 157.421 109.427 157.388 109.409 157.36C109.415 157.355 109.42 157.35 109.423 157.343C109.426 157.337 109.428 157.329 109.428 157.322C109.428 157.315 109.426 157.308 109.423 157.301C109.42 157.295 109.415 157.289 109.409 157.285C108.195 156.203 106.717 155.46 105.123 155.13C104.192 154.952 102.874 155.208 102.755 156.363C102.613 157.45 103.738 157.994 104.638 158.136ZM103.564 157.135C102.38 155.622 104.642 155.492 105.321 155.65C105.761 155.76 106.194 155.899 106.615 156.067C107.478 156.425 108.323 156.826 109.145 157.269C108.395 157.344 107.657 157.478 106.911 157.58C106.019 157.698 104.228 157.966 103.564 157.135Z" fill="#263238"/>
<path d="M64.457 74.5444C64.457 74.5444 84.9284 109.311 85.477 111.754C86.3176 115.505 90.7734 152.545 90.7734 152.545L112.085 152.151C112.085 152.151 108.415 119.492 104.938 108.732C102.436 100.982 84.368 75.2773 84.368 75.2773L64.457 74.5444Z" fill="#37474F"/>
<path d="M110.148 148.904C107.089 148.881 96.2475 148.758 92.1746 149.137C92.143 149.137 92.1469 149.192 92.1746 149.196C93.5756 149.397 107.085 149.085 110.144 148.987C110.15 148.989 110.157 148.99 110.164 148.989C110.17 148.988 110.177 148.986 110.183 148.982C110.188 148.979 110.193 148.973 110.196 148.968C110.2 148.962 110.202 148.955 110.202 148.948C110.202 148.942 110.201 148.935 110.198 148.929C110.195 148.922 110.191 148.917 110.186 148.913C110.181 148.908 110.174 148.905 110.168 148.904C110.161 148.902 110.154 148.903 110.148 148.904Z" fill="#263238"/>
<path d="M67.9498 77.7363C69.2917 79.8363 70.7125 81.893 72.0781 83.9772C73.4436 86.0615 74.817 88.1458 76.1707 90.2261C78.8703 94.4288 81.5014 98.659 84.0641 102.917C85.3148 104.89 86.3847 106.973 87.2609 109.138C88.0607 111.304 88.6617 113.538 89.0566 115.812C89.475 118.094 89.7512 120.399 90.0078 122.704C90.2709 125.154 90.5458 127.606 90.8326 130.059C91.393 135.079 91.9548 140.099 92.5178 145.118C92.5849 145.733 92.652 146.347 92.7152 146.966C92.7152 147.057 92.5613 147.072 92.5494 146.966C91.9219 141.982 91.4009 136.978 90.8326 131.994C90.5485 129.507 90.2656 127.02 89.9841 124.536C89.7197 122.223 89.4671 119.906 89.1079 117.609C88.7784 115.342 88.277 113.103 87.6082 110.911C86.8713 108.642 85.8838 106.461 84.664 104.41C82.1973 100.159 79.5846 95.9824 76.9719 91.8021C74.3592 87.6217 71.6755 83.4059 68.9207 79.2768C68.5813 78.7686 68.2379 78.2603 67.8827 77.7599C67.8551 77.7323 67.9262 77.6969 67.9498 77.7363Z" fill="#263238"/>
<path d="M71.1665 167.564C70.1956 167.505 45.1185 157.363 44.4238 156.402C44.3929 156.345 44.3792 156.281 44.3844 156.217C44.3844 155.354 46.1249 152.344 47.5772 148.388C47.668 148.136 48.3153 146.962 49.2111 145.382C51.7015 141.052 56.0428 133.593 56.0428 133.593L72.4333 140.094L64.5874 151.816L63.3678 154.653C63.3678 154.653 71.0599 162.592 71.7071 163.715C72.3544 164.837 72.1334 167.619 71.1665 167.564Z" fill="#EB9481"/>
<path d="M71.1665 167.564C70.1956 167.505 45.1185 157.363 44.4238 156.402C44.3929 156.345 44.3792 156.281 44.3844 156.217C44.3844 155.354 46.1249 152.344 47.5772 148.388C47.668 148.136 48.3153 146.962 49.2111 145.382L64.6031 151.816L63.3836 154.653C63.3836 154.653 71.0757 162.592 71.7229 163.715C72.3702 164.838 72.1334 167.619 71.1665 167.564Z" fill="white"/>
<path d="M71.1665 167.564C70.1956 167.505 45.1184 157.364 44.4238 156.402C44.1555 156.036 45.2763 152.62 47.5812 148.388L63.3678 154.657C63.3678 154.657 71.0599 162.588 71.7111 163.719C72.3623 164.85 72.1334 167.619 71.1665 167.564Z" fill="#A6A6A6"/>
<path d="M71.2061 166.445C67.145 164.704 50.5927 158.061 46.4447 156.65C46.4092 156.65 46.4013 156.65 46.4447 156.674C50.4348 158.486 67.0384 164.995 71.1903 166.524C71.2692 166.544 71.2929 166.481 71.2061 166.445Z" fill="#263238"/>
<path d="M70.4954 162.217C70.045 162.02 69.5585 161.918 69.0667 161.918C68.5748 161.918 68.0883 162.02 67.638 162.217C66.8283 162.571 66.1865 163.223 65.8462 164.038C65.8462 164.061 65.8817 164.081 65.8936 164.057C66.3588 163.302 67.0568 162.717 67.8829 162.391C68.709 162.065 69.6187 162.015 70.4756 162.249C70.4823 162.247 70.488 162.243 70.4916 162.237C70.4953 162.231 70.4966 162.224 70.4954 162.217Z" fill="#263238"/>
<path d="M64.8005 155.701C63.1705 155.019 61.0314 154.838 59.4725 155.772C59.4133 155.807 59.4725 155.89 59.5238 155.886C61.2616 155.71 63.0133 155.719 64.7492 155.914C64.7759 155.917 64.8027 155.91 64.8247 155.894C64.8467 155.879 64.8623 155.856 64.8686 155.83C64.8748 155.804 64.8714 155.776 64.8589 155.753C64.8463 155.729 64.8256 155.71 64.8005 155.701Z" fill="#263238"/>
<path d="M65.8698 156.701C64.2398 156.02 62.1007 155.839 60.5418 156.772C60.4826 156.808 60.5418 156.891 60.5931 156.887C62.3309 156.709 64.0827 156.718 65.8185 156.914C65.8452 156.917 65.8721 156.91 65.894 156.895C65.916 156.879 65.9316 156.856 65.9379 156.83C65.9442 156.804 65.9407 156.777 65.9282 156.753C65.9157 156.729 65.8949 156.711 65.8698 156.701Z" fill="#263238"/>
<path d="M66.9434 157.702C65.3095 157.021 63.1704 156.84 61.6154 157.773C61.5523 157.809 61.6154 157.891 61.6628 157.888C63.4005 157.71 65.1524 157.719 66.8882 157.915C66.9154 157.92 66.9434 157.914 66.9666 157.899C66.9898 157.884 67.0065 157.861 67.0134 157.834C67.0204 157.807 67.017 157.779 67.0041 157.755C66.9911 157.73 66.9695 157.712 66.9434 157.702Z" fill="#263238"/>
<path d="M68.0133 158.703C66.3793 158.021 64.2442 157.84 62.6853 158.77C62.6221 158.809 62.6853 158.892 62.7326 158.888C64.4704 158.71 66.2222 158.719 67.958 158.916C67.9853 158.92 68.0132 158.914 68.0364 158.899C68.0596 158.884 68.0763 158.861 68.0832 158.835C68.0902 158.808 68.0868 158.78 68.0739 158.755C68.0609 158.731 68.0393 158.712 68.0133 158.703Z" fill="#263238"/>
<path d="M49.0494 153.175C47.2063 152.442 46.0618 155.307 47.9128 156.039C49.7638 156.772 50.9123 153.908 49.0494 153.175Z" fill="#263238"/>
<path d="M68.3327 152.037C67.7762 151.016 66.462 151.268 65.6608 151.777C64.3112 152.679 63.2225 153.92 62.5034 155.374C62.5003 155.38 62.4986 155.387 62.4985 155.394C62.4985 155.402 62.5 155.409 62.503 155.415C62.5061 155.422 62.5105 155.427 62.5161 155.432C62.5216 155.436 62.5281 155.439 62.535 155.441C62.535 155.571 62.6218 155.725 62.7758 155.693C64.2716 155.35 65.9094 155.173 67.2513 154.385C68.0209 153.928 68.8576 153.002 68.3327 152.037ZM64.9188 154.712C64.1887 154.897 63.4546 155.047 62.7324 155.26C63.3298 154.541 63.9634 153.853 64.6307 153.199C64.9592 152.887 65.3087 152.597 65.6766 152.332C66.2488 151.938 68.4116 151.209 67.8591 153.057C67.5552 154.078 65.791 154.491 64.9188 154.712Z" fill="#263238"/>
<path d="M58.1623 154.349C59.5042 155.137 61.1421 155.323 62.6339 155.669C62.7878 155.705 62.8904 155.551 62.8786 155.417C62.886 155.416 62.8931 155.414 62.8991 155.409C62.9052 155.405 62.91 155.399 62.9132 155.393C62.9164 155.386 62.9178 155.378 62.9172 155.371C62.9167 155.364 62.9143 155.356 62.9102 155.35C62.1923 153.893 61.1035 152.65 59.7528 151.745C58.9635 151.233 57.6414 150.977 57.0809 151.993C56.5205 153.01 57.3769 153.888 58.1623 154.349ZM57.5466 153.018C56.9981 151.17 59.1569 151.903 59.7291 152.301C60.0966 152.566 60.4448 152.857 60.7711 153.171C61.4371 153.827 62.0694 154.516 62.6655 155.236C61.9432 155.023 61.2091 154.869 60.479 154.684C59.595 154.448 57.8466 154.054 57.5466 153.018Z" fill="#263238"/>
<path d="M65.8622 151.162L47.5142 143.767C47.5142 143.767 70.2627 110.375 70.4285 107.889C70.5785 105.691 60.5855 86.5343 60.1948 80.9513C59.7686 74.9231 62.6733 70.2621 65.8701 67.3662L84.7944 75.3999C84.7944 75.3999 82.7974 78.5873 79.6637 80.3643C79.6637 80.3643 89.3686 102.507 88.816 109.315C88.2635 116.124 65.8622 151.162 65.8622 151.162Z" fill="#37474F"/>
<path d="M66.6751 147.679C64.0229 146.54 64.8004 146.828 62.1324 145.709C60.83 145.165 52.2658 141.608 50.9476 141.312C50.92 141.312 50.9002 141.351 50.9279 141.367C52.0684 142.065 60.7038 145.473 62.018 145.993C64.7057 147.049 63.944 146.718 66.6435 147.742C66.6475 147.747 66.6529 147.752 66.659 147.754C66.6652 147.757 66.6719 147.758 66.6786 147.758C66.6853 147.757 66.6917 147.755 66.6973 147.751C66.7029 147.747 66.7074 147.742 66.7104 147.736C66.7134 147.73 66.7148 147.723 66.7145 147.717C66.7142 147.71 66.7122 147.703 66.7086 147.698C66.7051 147.692 66.7002 147.687 66.6943 147.684C66.6884 147.681 66.6818 147.679 66.6751 147.679Z" fill="#263238"/>
<path d="M82.7658 79.9584C80.7956 80.4168 78.868 81.0416 77.0037 81.8259C76.9962 81.8285 76.9892 81.8325 76.9833 81.8378C76.9773 81.8431 76.9725 81.8494 76.969 81.8566C76.9655 81.8637 76.9635 81.8715 76.963 81.8794C76.9625 81.8873 76.9636 81.8952 76.9662 81.9027C76.9688 81.9102 76.9728 81.9172 76.9781 81.9231C76.9834 81.929 76.9898 81.9339 76.9969 81.9374C77.0041 81.9409 77.0118 81.9429 77.0198 81.9434C77.0277 81.9438 77.0356 81.9428 77.0432 81.9402C78.977 81.3768 80.9425 80.8488 82.8448 80.1829C82.9908 80.1317 82.9158 79.9268 82.7658 79.9584Z" fill="#263238"/>
<path d="M80.5124 79.1941C80.3285 79.5206 80.1663 79.8589 80.027 80.2067C79.8907 80.4706 79.8063 80.7582 79.7783 81.0538C79.7783 81.1129 79.8573 81.1247 79.8928 81.0892C80.0908 80.8528 80.2506 80.5869 80.3664 80.3012C80.5282 79.99 80.6939 79.6827 80.8479 79.3635C80.9544 79.1311 80.6347 78.9813 80.5124 79.1941Z" fill="#263238"/>
<path d="M80.7489 77.4052C80.8673 77.1136 80.9817 76.826 81.104 76.5344C81.2264 76.2429 81.3803 75.9434 81.4987 75.6361C81.4987 75.5888 81.5934 75.6361 81.5737 75.6716C81.4553 75.9631 81.3803 76.2704 81.2895 76.5699C81.1988 76.8693 81.0962 77.1688 80.9975 77.4682C80.812 78.0237 80.6028 78.5753 80.3463 79.1151C80.6568 79.1306 80.9669 79.0768 81.254 78.9575C81.5473 78.7702 81.7727 78.494 81.8973 78.1695C82.0631 77.8464 82.217 77.5155 82.3867 77.1924C82.5956 76.8431 82.7713 76.4751 82.9116 76.0931C82.9116 76.0459 83.0063 76.0931 82.9866 76.1286C82.7293 76.9362 82.3921 77.7162 81.9802 78.4571C81.8026 78.7448 81.6645 79.0481 81.3409 79.1585C80.9905 79.2563 80.6239 79.2817 80.2634 79.2333C80.216 79.2333 80.1608 79.2333 80.1766 79.1624C80.3382 78.5676 80.5292 77.9811 80.7489 77.4052Z" fill="#263238"/>
<path d="M79.9437 81.0852C80.6186 82.5075 81.2106 83.9259 81.8381 85.3443C82.4657 86.7627 83.0221 88.1338 83.5865 89.5444C84.7153 92.389 85.7256 95.2889 86.6136 98.2124C87.0517 99.6623 87.4582 101.124 87.8213 102.598C88.2212 104.066 88.514 105.562 88.6974 107.073C88.8558 108.582 88.7218 110.107 88.3028 111.565C87.8675 113.006 87.309 114.408 86.6333 115.753C86.2189 116.604 86.0808 116.49 86.2781 116.061C86.8425 114.839 88.3225 111.14 88.2159 108.031C88.1296 106.543 87.8996 105.066 87.5292 103.622C87.1845 102.133 86.7965 100.655 86.365 99.1895C85.5243 96.2975 84.5258 93.4647 83.4997 90.6357C82.9235 89.0597 82.3157 87.4837 81.7237 85.9077C81.1317 84.3317 80.5397 82.8818 79.8766 81.1403C79.8569 81.0694 79.924 81.0418 79.9437 81.0852Z" fill="#263238"/>
<path d="M66.0161 76.3847C66.3437 76.2625 66.8055 76.4635 67.137 76.5186C67.5663 76.5914 68.0002 76.6348 68.4354 76.6486C68.8661 76.6638 69.2973 76.6493 69.726 76.6053C70.1577 76.5942 70.5808 76.4822 70.9613 76.2783C71.5856 75.8243 72.1208 75.2593 72.54 74.6117C73.0395 73.9499 73.452 73.2269 73.7674 72.4604C73.7674 72.4132 73.8503 72.4604 73.8345 72.492C73.6963 72.9293 73.5937 73.3706 73.4398 73.8C73.2697 74.2035 73.0664 74.5923 72.832 74.9623C72.452 75.707 71.8901 76.3439 71.1981 76.8141C70.4364 77.2475 69.4576 77.2081 68.6091 77.1727C68.117 77.144 67.6276 77.0795 67.1449 76.9796C66.7976 76.9048 66.2135 76.8496 65.9924 76.5462C65.9821 76.5346 65.9743 76.5209 65.9698 76.5059C65.9654 76.491 65.9642 76.4753 65.9665 76.4599C65.9687 76.4445 65.9743 76.4298 65.9829 76.4168C65.9915 76.4038 66.0028 76.3928 66.0161 76.3847Z" fill="#263238"/>
<path d="M52.7514 140.264C55.7666 135.704 58.7266 131.107 61.6314 126.474C64.5361 121.841 67.4014 117.172 70.2272 112.467C70.9021 111.344 71.6796 110.225 72.1137 108.98C72.5873 107.629 72.319 106.317 71.8927 104.993C71.0879 102.578 70.147 100.21 69.0748 97.9011C68.0171 95.5726 66.8765 93.2834 65.7556 90.9864C64.6348 88.6894 63.4626 86.42 62.5983 84.0244C61.809 81.7353 61.4893 79.3634 62.105 76.9916C62.7207 74.6197 64.0467 72.5236 65.432 70.5496C65.7951 70.0296 66.17 69.5134 66.5371 68.9736C66.5647 68.9342 66.6239 68.9736 66.5963 69.0209C65.0689 71.0776 63.581 73.2564 62.6851 75.6716C62.2273 76.8621 61.9712 78.1205 61.9274 79.3949C61.9199 80.6886 62.1211 81.9751 62.5233 83.2049C63.2653 85.6004 64.4375 87.8659 65.5307 90.1196C66.6239 92.3733 67.7921 94.7058 68.8696 97.0264C69.9811 99.3621 70.9691 101.754 71.8296 104.193C72.1966 105.277 72.6189 106.412 72.5873 107.574C72.5597 108.846 71.9519 109.993 71.3204 111.065C68.5578 115.734 65.728 120.347 62.847 124.933C59.9659 129.52 57.0019 134.106 54.0025 138.645L52.8658 140.359C52.8066 140.429 52.704 140.347 52.7514 140.264Z" fill="#263238"/>
<path d="M85.8442 54.1631C87.5531 57.9061 96.1844 63.0635 100.226 63.6191C103.131 64.0131 111.963 64.1549 114.99 63.6939C118.542 63.1502 115.827 53.5957 113.731 53.8439C107.969 54.5137 103.075 55.2623 101.536 55.2623C99.6575 55.2623 89.4948 52.0079 88.2714 51.5469C85.2719 50.4319 84.8772 52.0394 85.8442 54.1631Z" fill="#EB9481"/>
<path d="M85.8993 55.1599C88.062 58.3552 95.2489 63.5796 95.2489 63.5796L96.2474 61.3732L99.5508 54.0764C99.5508 54.0764 92.948 52.0079 88.6027 51.0623C88.0914 50.9461 87.5713 50.8723 87.0477 50.8416C84.2732 50.6919 84.0325 52.4019 85.8993 55.1599Z" fill="#4F008D"/>
<path d="M85.8993 55.1598C88.062 58.3551 95.2489 63.5795 95.2489 63.5795L96.2474 61.3731C93.5676 58.2645 89.4276 53.5562 87.0477 50.8494C84.2732 50.6918 84.0325 52.4018 85.8993 55.1598Z" fill="#263238"/>
<path d="M93.9545 62.0983C94.5031 60.7548 96.9421 55.3451 97.5499 54.2183C97.5894 54.1395 97.6525 54.1474 97.617 54.2183C96.559 56.9085 95.3548 59.5391 94.0097 62.0983C93.9939 62.1456 93.9308 62.1298 93.9545 62.0983Z" fill="#263238"/>
<path d="M112.673 53.9426C116.178 53.4856 120.515 52.7015 124.19 54.2578C124.602 54.4194 124.949 54.715 125.172 55.097C126.83 55.7668 127.012 56.7479 127.012 56.7479C128.365 57.8432 128.413 58.8755 128.413 58.8755C128.413 58.8755 130.354 59.6635 130.058 60.9322C129.735 62.3348 127.075 60.9322 125.141 61.0464C120.701 61.3222 114.485 62.9495 113.202 63.1543L112.673 53.9426Z" fill="#EB9481"/>
<path d="M120.287 58.0717C121.585 57.9831 122.888 57.9831 124.186 58.0717C125.6 58.2488 126.998 58.5319 128.369 58.9188C128.378 58.9219 128.388 58.9214 128.397 58.9173C128.405 58.9133 128.412 58.906 128.415 58.8971C128.418 58.8882 128.417 58.8785 128.413 58.87C128.409 58.8615 128.402 58.8549 128.393 58.8518C125.817 57.8428 123.013 57.5594 120.287 58.0323C120.223 58.0244 120.223 58.0756 120.287 58.0717Z" fill="#263238"/>
<path d="M119.462 53.9779C121.628 54.0882 122.982 54.4349 125.161 55.0889V55.0653C122.761 54.0645 121.778 53.97 119.45 53.8833C119.375 53.9148 119.379 53.9779 119.462 53.9779Z" fill="#263238"/>
<path d="M119.813 61.7158C119.249 61.9798 119.387 62.2753 120.465 62.5235C121.542 62.7717 126.021 62.8466 125.864 64.4068C125.706 65.9671 119.387 65.7701 117.623 65.2185C115.859 64.6669 113.203 63.1539 113.203 63.1539C114.454 62.9451 117.39 62.1532 119.813 61.7158Z" fill="#EB9481"/>
<path d="M90.5365 60.1283C90.5088 60.8021 90.4457 61.4876 90.351 62.1692C90.351 62.1417 90.351 62.118 90.3786 62.0944C90.5088 61.7398 90.6391 61.3773 90.797 61.0345C90.797 61.0345 90.8364 61.0345 90.8325 61.0345C90.7566 61.4101 90.6429 61.7771 90.4931 62.1298C90.422 62.2993 90.3549 62.4647 90.2799 62.6302C90.2326 62.9336 90.1773 63.233 90.1181 63.5325C89.9997 64.0959 89.4669 66.4914 89.3288 66.8972C89.3051 66.98 89.2025 66.9603 89.2104 66.8657C89.238 66.4244 89.684 63.9304 89.7748 63.3631C89.9511 62.2676 90.1869 61.1825 90.4812 60.1126C90.501 60.0929 90.5404 60.1086 90.5365 60.1283Z" fill="#263238"/>
<path d="M86.432 78.0435C85.3783 78.5833 84.0206 79.4225 77.9033 78.2208C77.5086 78.142 77.1376 78.0474 76.7508 77.9332C71.0163 76.2153 64.1215 69.4819 63.7466 69.0051C63.7466 69.0051 72.8594 54.2577 84.5139 49.6203C85.9545 49.049 88.3383 50.1522 89.6446 51.5273C90.1143 52.0198 91.1364 55.6407 90.7457 58.572C90.355 61.5034 87.4818 77.5037 86.432 78.0435Z" fill="#4F008D"/>
<path d="M85.611 58.438C85.655 59.0612 85.5677 59.6866 85.3545 60.274C85.3045 59.6506 85.392 59.0239 85.611 58.438Z" fill="white"/>
<path d="M81.6369 68.481C81.662 68.7911 81.6515 69.1031 81.6054 69.4108C81.5674 69.7208 81.4918 70.0251 81.3804 70.317C81.3532 70.0056 81.3638 69.6921 81.412 69.3832C81.4523 69.0749 81.5278 68.7722 81.6369 68.481Z" fill="white"/>
<path d="M74.8843 60.8887C74.9287 61.5132 74.8413 62.14 74.6277 62.7287C74.5781 62.104 74.6657 61.4761 74.8843 60.8887Z" fill="white"/>
<path d="M88.2121 67.9688C88.2373 68.2802 88.2267 68.5935 88.1806 68.9025C88.1426 69.2126 88.067 69.5169 87.9556 69.8087C87.9284 69.4973 87.939 69.1838 87.9872 68.875C88.0271 68.5653 88.1025 68.2612 88.2121 67.9688Z" fill="white"/>
<path d="M79.5415 59.5884C79.852 59.562 80.1645 59.5713 80.4729 59.616C80.7836 59.6553 81.0884 59.732 81.3807 59.8445C80.7564 59.8892 80.1297 59.802 79.5415 59.5884Z" fill="white"/>
<path d="M71.877 66.8421C72.5012 66.7982 73.1277 66.8854 73.7161 67.0982C73.0917 67.1482 72.4639 67.0608 71.877 66.8421Z" fill="white"/>
<path d="M80.9067 74.6945C81.531 74.6498 82.1577 74.737 82.7459 74.9506C82.1215 74.9998 81.4938 74.9124 80.9067 74.6945Z" fill="white"/>
<path d="M69.5127 71.8416C70.1369 71.7977 70.7635 71.8849 71.3518 72.0977C70.7274 72.1469 70.0998 72.0595 69.5127 71.8416Z" fill="white"/>
<path d="M85.5522 51.3773C86.1765 51.3333 86.803 51.4206 87.3914 51.6334C86.7671 51.6773 86.1406 51.5901 85.5522 51.3773Z" fill="white"/>
<path d="M83.3222 53.8911C83.1226 54.1306 82.8947 54.3449 82.6433 54.5294C82.3988 54.7182 82.1341 54.8794 81.854 55.0101C82.0522 54.7722 82.2774 54.558 82.5249 54.3718C82.7718 54.1823 83.0392 54.021 83.3222 53.8911Z" fill="white"/>
<path d="M71.1703 61.0342C70.9684 61.2715 70.7392 61.4844 70.4876 61.6685C70.2455 61.8609 69.9803 62.0224 69.6982 62.1492C69.9013 61.9128 70.1303 61.7001 70.381 61.5149C70.6237 61.3233 70.8887 61.1619 71.1703 61.0342Z" fill="white"/>
<path d="M86.3452 64.2573C86.1433 64.4959 85.9141 64.7101 85.6624 64.8956C85.4197 65.0871 85.1547 65.2485 84.873 65.3763C85.0749 65.1377 85.3041 64.9235 85.5558 64.738C85.7998 64.5484 86.0646 64.3871 86.3452 64.2573Z" fill="white"/>
<path d="M76.518 70.4351C76.3161 70.6737 76.087 70.8879 75.8352 71.0733C75.5922 71.2643 75.3272 71.4257 75.0459 71.554C75.2478 71.3154 75.4769 71.1012 75.7287 70.9157C75.9727 70.7261 76.2375 70.5649 76.518 70.4351Z" fill="white"/>
<path d="M90.1103 55.8179C89.9084 56.0565 89.6792 56.2707 89.4275 56.4561C89.183 56.6449 88.9182 56.8062 88.6382 56.9368C88.8401 56.6982 89.0692 56.484 89.321 56.2986C89.564 56.1076 89.829 55.9462 90.1103 55.8179Z" fill="white"/>
<path d="M89.905 62.9769C89.666 62.7754 89.4514 62.5466 89.2657 62.2953C89.0736 62.0532 88.9119 61.7886 88.7842 61.5073C89.024 61.7065 89.2387 61.9341 89.4235 62.185C89.6121 62.4309 89.7735 62.6964 89.905 62.9769Z" fill="white"/>
<path d="M68.0012 67.9096C67.7622 67.708 67.5476 67.4792 67.3619 67.2279C67.1719 66.9844 67.0104 66.72 66.8804 66.4399C67.1194 66.6415 67.3339 66.8703 67.5197 67.1216C67.711 67.3642 67.8727 67.6287 68.0012 67.9096Z" fill="white"/>
<path d="M87.2415 73.7762C87.0016 73.577 86.7869 73.3495 86.6021 73.0985C86.413 72.8544 86.2515 72.5901 86.1206 72.3105C86.3596 72.5121 86.5742 72.7409 86.76 72.9922C86.9504 73.234 87.112 73.4971 87.2415 73.7762Z" fill="white"/>
<path d="M77.5994 57.0511C77.3604 56.851 77.1459 56.6235 76.96 56.3734C76.7717 56.1288 76.6103 55.8646 76.4785 55.5854C76.7184 55.7846 76.9331 56.0122 77.1179 56.2631C77.3062 56.5078 77.4676 56.772 77.5994 57.0511Z" fill="white"/>
<path d="M77.7693 77.1176C77.5303 76.916 77.3157 76.6873 77.1299 76.4359C76.9406 76.192 76.7791 75.9277 76.6484 75.6479C76.8883 75.8471 77.103 76.0747 77.2878 76.3256C77.4777 76.5706 77.6392 76.8363 77.7693 77.1176Z" fill="white"/>
<path d="M79.4069 65.2816C79.1702 65.0789 78.957 64.8503 78.7715 64.6C78.5788 64.3583 78.4171 64.0936 78.29 63.812C78.5278 64.0136 78.7411 64.2424 78.9255 64.4936C79.1173 64.7359 79.279 65.0005 79.4069 65.2816Z" fill="white"/>
<path d="M87.5094 55.4555C86.0215 55.1797 84.6244 52.1104 84.4468 50.0459C84.4468 49.904 85.1414 48.7811 85.9347 47.3745C86.4162 46.5196 86.9253 45.5543 87.3318 44.6402C87.4147 44.455 87.9001 45.0815 87.9001 45.0815L88.9578 45.8695L92.4506 48.5447C91.6189 49.5411 90.9124 50.6354 90.347 51.8031C90.2912 51.9297 90.2489 52.0617 90.2208 52.1971C90.2192 52.2194 90.2192 52.2418 90.2208 52.2641C90.0037 53.0442 88.942 55.7195 87.5094 55.4555Z" fill="#EB9481"/>
<path d="M90.2212 52.2168C90.2196 52.2391 90.2196 52.2615 90.2212 52.2838C90.0138 52.2231 89.8118 52.1453 89.6173 52.0513C85.793 50.2626 87.4782 45.1484 87.4782 45.1484L88.978 45.8892L92.4708 48.5644C91.639 49.5608 90.9326 50.6551 90.3672 51.8228C90.3046 51.9486 90.2556 52.0806 90.2212 52.2168Z" fill="#263238"/>
<path d="M96.4644 37.6582C96.4644 37.6582 98.2127 38.7653 98.2206 40.7353C98.2285 42.7053 97.4313 44.632 97.2655 44.7029C97.0998 44.7738 96.4644 37.6582 96.4644 37.6582Z" fill="#263238"/>
<path d="M87.7898 38.6829C86.74 40.7514 86.7952 47.2721 88.1055 48.9505C90.0078 51.3854 93.6703 52.2247 95.8844 49.8173C98.0274 47.4849 97.8064 38.9902 96.2791 37.4063C94.0571 35.066 89.3448 35.6215 87.7898 38.6829Z" fill="#EB9481"/>
<path d="M93.3626 43.9033C93.3626 43.9033 93.327 43.927 93.331 43.9427C93.3547 44.3879 93.3073 44.9001 92.9087 45.0577C92.9087 45.0577 92.9087 45.0853 92.9087 45.0814C93.402 45.0026 93.4573 44.321 93.3626 43.9033Z" fill="#263238"/>
<path d="M92.9561 43.45C92.2378 43.4106 92.2141 44.8448 92.8811 44.8802C93.5481 44.9157 93.556 43.4815 92.9561 43.45Z" fill="#263238"/>
<path d="M95.7977 43.8877C95.7977 43.8877 95.8332 43.8877 95.8332 43.9271C95.8095 44.3723 95.8608 44.8845 96.2634 45.0382C96.2634 45.0382 96.2634 45.0658 96.2634 45.0618C95.7661 44.987 95.7069 44.3053 95.7977 43.8877Z" fill="#263238"/>
<path d="M96.204 43.4307C96.9184 43.3873 96.9539 44.8215 96.2909 44.8609C95.6278 44.9003 95.6041 43.4661 96.204 43.4307Z" fill="#263238"/>
<path d="M92.5061 42.359C92.6947 42.3055 92.8805 42.2423 93.0626 42.1699C93.2699 42.1325 93.4588 42.0271 93.5994 41.8705C93.6335 41.8131 93.6477 41.7461 93.6399 41.6799C93.632 41.6137 93.6025 41.5519 93.556 41.504C93.4492 41.423 93.3226 41.3719 93.1894 41.3559C93.0562 41.34 92.9212 41.3598 92.7982 41.4134C92.5319 41.4846 92.3013 41.6516 92.1509 41.8823C92.1209 41.9372 92.1073 41.9995 92.1116 42.0619C92.116 42.1242 92.1382 42.1841 92.1756 42.2342C92.213 42.2844 92.264 42.3228 92.3226 42.345C92.3811 42.3671 92.4449 42.372 92.5061 42.359Z" fill="#263238"/>
<path d="M96.6935 42.9931C96.5015 42.9502 96.3118 42.8976 96.1252 42.8355C95.9172 42.808 95.7243 42.7124 95.5766 42.5636C95.5386 42.5088 95.5202 42.4428 95.5245 42.3763C95.5288 42.3098 95.5555 42.2467 95.6003 42.1972C95.7021 42.1103 95.8254 42.0524 95.9574 42.0295C96.0893 42.0067 96.225 42.0197 96.3502 42.0672C96.6201 42.123 96.8594 42.2776 97.0211 42.5006C97.0549 42.5534 97.0726 42.6148 97.0721 42.6775C97.0716 42.7401 97.0528 42.8012 97.0181 42.8534C96.9834 42.9056 96.9342 42.9466 96.8766 42.9714C96.819 42.9962 96.7554 43.0037 96.6935 42.9931Z" fill="#263238"/>
<path d="M92.3524 48.1151C92.459 48.2215 92.5616 48.3633 92.7234 48.3791C92.8893 48.379 93.0533 48.3441 93.2049 48.2766C93.2049 48.2766 93.2325 48.2766 93.2049 48.3003C93.1402 48.3869 93.0531 48.4543 92.953 48.4952C92.8529 48.5362 92.7435 48.5492 92.6366 48.5327C92.5464 48.5082 92.4654 48.4578 92.4037 48.3878C92.342 48.3177 92.3022 48.2311 92.2893 48.1387C92.2861 48.1304 92.2864 48.1211 92.2901 48.113C92.2938 48.1049 92.3006 48.0985 92.309 48.0954C92.3174 48.0923 92.3266 48.0926 92.3348 48.0963C92.3429 48.1 92.3493 48.1067 92.3524 48.1151Z" fill="#263238"/>
<path d="M94.9335 46.216C94.9335 46.216 94.9532 46.878 94.9335 47.1892C94.3271 47.125 93.7146 47.1462 93.1141 47.2523C92.972 47.2838 92.9878 47.1695 93.1496 47.0947C93.6333 46.8739 94.1721 46.8026 94.6967 46.8898C94.7283 46.807 94.6454 45.8654 94.6967 45.8693C94.9355 45.9161 95.1665 45.9957 95.3834 46.1057C95.3834 44.7188 95.1624 43.3477 95.1822 41.9608C95.1822 41.9136 95.2571 41.9057 95.265 41.9608C95.5455 43.428 95.6777 44.9195 95.6597 46.413C95.6637 46.5825 95.0519 46.2791 94.9335 46.216Z" fill="#263238"/>
<path d="M94.0454 46.9531C93.888 47.3662 93.5961 47.7145 93.2166 47.942C92.6206 48.1823 92.4272 47.6426 93.0271 47.154C93.3417 46.9953 93.6939 46.9258 94.0454 46.9531Z" fill="#263238"/>
<path d="M93.4256 47.8195C93.3626 47.8708 93.292 47.9119 93.2164 47.9417C92.6678 48.1623 92.4508 47.725 92.8928 47.2837C93.1927 47.3073 93.5361 47.4177 93.4256 47.8195Z" fill="#FF99BA"/>
<path d="M87.4901 44.2579C88.2123 44.4785 89.0411 42.3115 89.2779 41.4999C89.4832 40.767 89.72 38.4385 89.7555 38.277C89.791 38.1154 92.9128 40.3376 94.7204 39.8096C96.528 39.2817 97.7554 37.6466 97.783 36.8861C97.8106 36.1257 95.5492 34.1951 93.5956 34.0966C91.642 33.9981 88.9938 36.4606 88.9938 36.4606C89.3137 36.0982 89.604 35.7109 89.862 35.3023C89.8305 35.2156 88.5675 35.7199 88.3347 36.6182C88.3347 36.6182 88.5873 35.4874 88.4926 35.4677C88.3978 35.448 87.4151 36.4133 87.6361 37.1462C87.6361 37.1462 86.4995 38.1272 86.3969 39.2029C86.2943 40.2785 86.6416 43.9978 87.4901 44.2579Z" fill="#263238"/>
<path d="M96.0147 39.4C95.4771 39.691 94.8982 39.8982 94.2979 40.0146C93.6241 40.0746 92.946 39.9663 92.3246 39.6994C91.6986 39.458 91.1171 39.1145 90.6038 38.6829C90.15 38.3125 89.7435 37.8594 89.258 37.5285C89.1357 37.4418 88.9975 37.6191 89.0725 37.7294C89.8824 38.8714 91.0394 39.7225 92.3719 40.1564C92.9908 40.3579 93.6515 40.3955 94.2893 40.2657C94.9271 40.1359 95.5203 39.843 96.0108 39.4157C96.0108 39.4157 96.0226 39.4 96.0147 39.4Z" fill="#263238"/>
<path d="M88.2435 44.0646C88.2435 44.0646 87.1227 41.7952 86.1123 42.1616C85.102 42.528 85.7177 45.6682 86.7556 46.2435C86.8828 46.3256 87.0252 46.3812 87.1744 46.4071C87.3236 46.4329 87.4765 46.4284 87.6239 46.3938C87.7713 46.3592 87.9103 46.2953 88.0323 46.2058C88.1544 46.1163 88.2571 46.0032 88.3343 45.8731L88.2435 44.0646Z" fill="#EB9481"/>
<path d="M86.3137 43.0562C86.3137 43.0562 86.2901 43.0562 86.3137 43.0877C87.032 43.5132 87.3241 44.2697 87.4977 45.0577C87.465 44.9743 87.4146 44.8989 87.3499 44.8369C87.2851 44.7748 87.2077 44.7276 87.1229 44.6983C87.0381 44.6691 86.9479 44.6586 86.8586 44.6676C86.7693 44.6766 86.6831 44.7048 86.6058 44.7504C86.5821 44.7504 86.6058 44.7937 86.6058 44.7937C86.747 44.7718 86.8915 44.7941 87.0194 44.8576C87.1474 44.9211 87.2524 45.0227 87.3201 45.1483C87.4331 45.3587 87.5231 45.5806 87.5885 45.8102C87.6122 45.8851 87.7424 45.8654 87.7306 45.7826C87.9003 44.8016 87.3478 43.3162 86.3137 43.0562Z" fill="#263238"/>
<path d="M80.8435 54.1987C80.0541 58.6627 84.9006 73.7017 88.0067 76.5109C92.6282 80.6873 101.173 83.4335 104.271 84.3278C105.621 84.7218 109.354 75.2383 107.989 74.6118C105.064 73.284 95.9789 70.4472 95.1146 69.738C94.2503 69.0288 89.0407 61.5152 86.72 57.1891C83.614 51.3658 81.2342 51.941 80.8435 54.1987Z" fill="#EB9481"/>
<path d="M105.688 73.7764C105.688 73.7764 109.721 74.8047 112.322 75.5966C113.774 76.0419 116.198 77.0229 117.117 77.8346C118.491 79.052 123.456 85.0093 122.035 86.2425C120.748 87.3615 117.133 81.6997 117.133 81.6997C117.133 81.6997 121.285 87.0896 119.501 88.1495C117.717 89.2093 114.453 82.271 114.453 82.271C114.453 82.271 118.593 87.9052 116.569 88.705C115.037 89.3078 111.754 83.189 111.754 83.189C111.754 83.189 115.282 88.0549 113.727 88.7444C112.014 89.5088 108.632 84.0479 108.632 84.0479C104.401 85.1393 101.923 83.9297 100.293 82.8659C99.9098 82.6059 105.688 73.7764 105.688 73.7764Z" fill="#EB9481"/>
<path d="M115.815 79.7414C116.328 80.356 116.849 80.9786 117.303 81.6365C117.757 82.2945 118.187 82.9722 118.578 83.6696C119.107 84.5716 119.531 85.5314 119.841 86.53C119.162 84.7964 117.571 82.4127 117.117 81.7547C116.664 81.0968 116.241 80.4151 115.791 79.7571C115.779 79.7414 115.803 79.7256 115.815 79.7414Z" fill="#263238"/>
<path d="M113.404 81.3374C114.28 82.0309 116.115 84.6076 116.822 86.3373C116.853 86.4082 116.822 86.4043 116.77 86.3373C116.218 85.4823 113.976 82.1727 113.384 81.3492C113.372 81.3374 113.392 81.3256 113.404 81.3374Z" fill="#263238"/>
<path d="M111.087 82.3457C112.176 83.4857 113.036 84.8231 113.621 86.2857C113.648 86.3567 113.593 86.3448 113.55 86.2857C112.733 84.958 112.101 83.9217 111.043 82.3812C111.028 82.3457 111.063 82.3103 111.087 82.3457Z" fill="#263238"/>
<path d="M85.2481 54.5254C81.6448 49.4388 79.4899 51.3221 80.2122 56.846C80.891 62.0114 82.7025 68.1656 82.7025 68.1656L91.7799 63.7686C91.7799 63.7686 87.5411 57.7837 85.2481 54.5254Z" fill="#4F008D"/>
<path d="M87.4387 56.5269C87.5583 56.8142 87.6444 57.1143 87.6952 57.4212C87.7506 57.7292 87.7705 58.0425 87.7544 58.355C87.636 58.0662 87.5513 57.7648 87.5018 57.4567C87.4431 57.1504 87.4219 56.8382 87.4387 56.5269Z" fill="white"/>
<path d="M82.0591 59.6197C82.6383 59.3845 83.2617 59.277 83.8864 59.3045C83.5985 59.4227 83.2978 59.5073 82.9905 59.5567C82.6837 59.6152 82.371 59.6363 82.0591 59.6197Z" fill="white"/>
<path d="M82.2922 51.7085C82.0478 52.2843 81.6832 52.8014 81.2227 53.2254C81.4671 52.6496 81.8317 52.1324 82.2922 51.7085Z" fill="white"/>
<path d="M89.9841 61.9956C89.8643 62.2838 89.712 62.5574 89.5302 62.8112C89.3532 63.0682 89.1466 63.3036 88.9146 63.5125C89.159 62.9367 89.5236 62.4196 89.9841 61.9956Z" fill="white"/>
<path d="M83.6694 65.0809C83.38 64.9627 83.1058 64.8106 82.8524 64.6278C82.5948 64.4513 82.359 64.2449 82.1499 64.0132C82.7267 64.2572 83.2447 64.6212 83.6694 65.0809Z" fill="white"/>
<path d="M86.4319 56.0581C86.9174 56.724 87.4186 57.3741 87.9159 58.0281C87.7896 57.6971 87.6791 57.3622 87.5844 57.0234H87.608C87.7067 57.2834 87.8212 57.5395 87.9159 57.8114L88.058 58.2054C88.0702 58.2323 88.0807 58.2599 88.0895 58.2881C88.4842 58.7964 88.8789 59.3047 89.242 59.8247C89.6879 60.4473 90.1181 61.0777 90.5522 61.7081C90.9864 62.3385 91.4245 63.1225 91.8941 63.7569C91.9375 63.812 91.1048 64.1509 91.014 64.1942C90.9232 64.2375 90.8759 64.1627 90.9627 64.1351C91.0495 64.1075 91.7126 63.7017 91.7205 63.6938C91.2863 63.0555 90.7851 62.4685 90.3312 61.8499C89.8774 61.2313 89.4274 60.6127 88.9894 59.9863C88.1014 58.7097 87.2884 57.3859 86.4043 56.1054L86.4319 56.0581Z" fill="#263238"/>
<path d="M80.4255 60.5027C80.5636 60.7706 80.7136 61.0346 80.8202 61.3104L80.9701 61.6532C80.761 60.6721 80.5755 59.6832 80.3584 58.7021C80.7767 60.2781 81.199 61.8896 81.5858 63.4892C81.9529 65.018 82.3988 66.5624 82.6119 68.1227C82.8872 68.0022 83.1724 67.9059 83.4644 67.8351C83.1714 68.0244 82.8558 68.1766 82.5251 68.2882C82.0494 66.7016 81.6542 65.092 81.3411 63.4656C81.2425 63.0243 81.1517 62.583 81.057 62.1418C80.9543 61.8738 80.832 61.6177 80.7097 61.3538C80.5873 61.0898 80.4768 60.7943 80.3663 60.5145C80.39 60.4988 80.4176 60.483 80.4255 60.5027Z" fill="#263238"/>
<path d="M82.837 66.6451C84.0999 65.9359 89.3766 63.2095 90.5567 62.7051C90.6395 62.6697 90.683 62.7051 90.6001 62.7603C88.0954 64.2133 85.513 65.5286 82.8646 66.7003C82.833 66.7082 82.8015 66.6648 82.837 66.6451Z" fill="#263238"/>
<path d="M227.454 170.228H107.207L124.592 71.7866H244.839L227.454 170.228Z" fill="#4F008D"/>
<path d="M165.748 61.5898H126.396L124.592 71.7866H166.707L165.748 61.5898Z" fill="#4F008D"/>
<g opacity="0.1">
<path d="M227.454 170.228H107.207L124.592 71.7866H244.839L227.454 170.228Z" fill="black"/>
<path d="M165.748 61.5898H126.396L124.592 71.7866H166.707L165.748 61.5898Z" fill="black"/>
</g>
<path d="M122.149 65.7506C121.886 64.6231 121.886 63.4503 122.149 62.3228C122.412 63.4503 122.412 64.6231 122.149 65.7506Z" fill="#263238"/>
<path d="M118.652 66.7593C118.251 66.3433 117.904 65.8771 117.622 65.3724C117.327 64.8782 117.094 64.3487 116.932 63.7964C117.335 64.2099 117.681 64.675 117.962 65.1793C118.257 65.6753 118.489 66.206 118.652 66.7593Z" fill="#263238"/>
<path d="M116.127 69.3794C115.018 69.0428 114.001 68.4564 113.155 67.6655C113.708 67.8261 114.239 68.0565 114.733 68.3511C115.239 68.6344 115.707 68.9799 116.127 69.3794Z" fill="#263238"/>
<path d="M115.243 72.9094C114.113 73.1721 112.938 73.1721 111.809 72.9094C112.938 72.6467 114.113 72.6467 115.243 72.9094Z" fill="#263238"/>
<path d="M116.269 76.4004C115.85 76.7995 115.384 77.1449 114.879 77.4287C114.385 77.7234 113.854 77.9537 113.301 78.1143C113.717 77.7131 114.184 77.3675 114.69 77.0859C115.184 76.7899 115.715 76.5594 116.269 76.4004Z" fill="#263238"/>
<path d="M118.889 78.918C118.553 80.0268 117.966 81.0433 117.172 81.8887C117.333 81.3357 117.565 80.8059 117.863 80.3127C118.144 79.8062 118.489 79.3375 118.889 78.918Z" fill="#263238"/>
<path d="M122.425 79.7886C122.563 80.3493 122.629 80.9252 122.623 81.5025C122.631 82.0799 122.565 82.656 122.425 83.2164C122.284 82.6563 122.218 82.08 122.228 81.5025C122.222 80.9252 122.288 80.3493 122.425 79.7886Z" fill="#263238"/>
<path d="M125.922 78.7999C126.324 79.2159 126.67 79.682 126.952 80.1868C127.249 80.6801 127.48 81.2099 127.639 81.7628C126.846 80.9174 126.258 79.9008 125.922 78.792V78.7999Z" fill="#263238"/>
<path d="M128.444 76.1602C128.998 76.3192 129.528 76.5497 130.023 76.8457C130.528 77.1272 130.995 77.4729 131.412 77.8741C130.858 77.715 130.327 77.4845 129.833 77.1885C129.327 76.907 128.861 76.5613 128.444 76.1602Z" fill="#263238"/>
<path d="M129.316 72.6296C130.447 72.367 131.623 72.367 132.754 72.6296C131.623 72.8922 130.447 72.8922 129.316 72.6296Z" fill="#263238"/>
<path d="M128.306 69.1387C128.724 68.7399 129.19 68.3957 129.695 68.1143C130.188 67.8154 130.719 67.5835 131.274 67.4248C130.427 68.2168 129.409 68.8033 128.298 69.1387H128.306Z" fill="#263238"/>
<path d="M125.681 66.6211C125.844 66.0693 126.074 65.5399 126.368 65.0451C126.65 64.5404 126.996 64.0742 127.398 63.6582C127.239 64.2111 127.008 64.7409 126.711 65.2342C126.429 65.7389 126.083 66.2051 125.681 66.6211Z" fill="#263238"/>
<path d="M227.276 170.228H106.773L89.6602 75.3604H210.168L227.276 170.228Z" fill="#4F008D"/>
<path d="M131.42 133.353C134.186 133.353 136.428 131.115 136.428 128.353C136.428 125.592 134.186 123.354 131.42 123.354C128.654 123.354 126.412 125.592 126.412 128.353C126.412 131.115 128.654 133.353 131.42 133.353Z" fill="white"/>
<path d="M171.013 133.353C173.779 133.353 176.021 131.115 176.021 128.353C176.021 125.592 173.779 123.354 171.013 123.354C168.247 123.354 166.004 125.592 166.004 128.353C166.004 131.115 168.247 133.353 171.013 133.353Z" fill="white"/>
<path d="M158.411 134.153L158.135 133.629C158.111 133.581 155.522 128.806 150.316 128.806C145.58 128.806 144.396 133.302 144.365 133.495L144.223 134.066L143.074 133.79L143.212 133.215C143.212 133.16 144.625 127.624 150.316 127.624C156.236 127.624 159.066 132.856 159.185 133.081L159.461 133.601L158.411 134.153Z" fill="white"/>
<path d="M219.32 127.971L219.237 127.577C219.494 127.522 219.746 127.463 219.999 127.396L220.098 127.79C219.829 127.857 219.581 127.916 219.32 127.971Z" fill="#263238"/>
<path d="M221.625 127.337L221.499 126.967C221.992 126.797 222.486 126.612 222.963 126.411L223.117 126.774C222.632 126.979 222.13 127.168 221.625 127.337ZM224.565 126.08L224.388 125.734C224.85 125.493 225.311 125.233 225.749 124.946L225.955 125.281C225.505 125.592 225.035 125.856 224.565 126.08ZM227.281 124.414L227.048 124.095C227.474 123.783 227.885 123.456 228.271 123.121L228.532 123.417C228.117 123.776 227.723 124.11 227.277 124.43L227.281 124.414ZM229.688 122.318L229.4 122.046C229.763 121.652 230.107 121.258 230.422 120.864L230.734 121.104C230.407 121.538 230.055 121.943 229.696 122.333L229.688 122.318ZM231.642 119.796L231.306 119.587C231.579 119.147 231.822 118.689 232.033 118.216L232.396 118.378C232.173 118.871 231.919 119.35 231.638 119.812L231.642 119.796ZM232.948 116.873L232.554 116.762C232.698 116.268 232.805 115.764 232.873 115.253L233.268 115.305C233.203 115.84 233.094 116.37 232.944 116.888L232.948 116.873ZM233.386 113.721H232.992V113.606C232.992 113.13 232.964 112.645 232.917 112.168L233.311 112.129C233.363 112.62 233.39 113.113 233.39 113.606L233.386 113.721ZM232.676 110.636C232.57 110.128 232.438 109.625 232.281 109.131L232.676 109.012C232.838 109.525 232.976 110.045 233.071 110.553L232.676 110.636ZM231.741 107.669C231.551 107.204 231.346 106.727 231.093 106.246L231.448 106.069C231.689 106.558 231.91 107.046 232.104 107.519L231.741 107.669ZM230.359 104.86C230.114 104.43 229.846 103.977 229.57 103.512L229.905 103.303C230.193 103.772 230.466 104.229 230.695 104.667L230.359 104.86ZM228.709 102.184C228.421 101.751 228.129 101.314 227.829 100.876L228.157 100.656C228.457 101.093 228.749 101.53 229.037 101.972L228.709 102.184ZM226.933 99.576C226.637 99.1426 226.338 98.7053 226.045 98.2719L226.373 98.0512C226.665 98.4846 226.961 98.922 227.257 99.3514L226.933 99.576ZM225.169 96.952C224.881 96.5107 224.601 96.0615 224.325 95.6124L224.66 95.4075C224.936 95.8567 225.217 96.2979 225.501 96.7392L225.169 96.952ZM223.524 94.2452C223.255 93.7685 223.007 93.2957 222.782 92.8426L223.137 92.6653C223.358 93.1144 223.606 93.5793 223.867 94.0521L223.524 94.2452ZM222.122 91.4084C221.913 90.9159 221.728 90.4155 221.554 89.927L221.949 89.8009C222.115 90.2776 222.3 90.7701 222.505 91.2547L222.122 91.4084ZM221.096 88.4022C220.966 87.89 220.852 87.366 220.765 86.8262L221.16 86.7631C221.246 87.2675 221.353 87.7797 221.483 88.284L221.096 88.4022ZM220.568 85.2502C220.528 84.7656 220.508 84.277 220.508 83.7884V83.6584H220.903V83.7845C220.903 84.2612 220.903 84.7419 220.962 85.2147L220.568 85.2502ZM220.962 82.0982L220.568 82.0588C220.568 81.9524 220.587 81.8421 220.599 81.7278C220.646 81.3062 220.706 80.8847 220.777 80.4828L221.171 80.5498C221.104 80.9438 221.045 81.3575 220.998 81.7712C221.013 81.8933 221.013 81.9997 220.982 82.11L220.962 82.0982ZM221.511 79.0329L221.116 78.9265C221.262 78.4064 221.432 77.8981 221.621 77.4135L221.988 77.5554C221.809 78.0432 221.656 78.5404 221.53 79.0447L221.511 79.0329ZM241.177 76.7358C240.956 76.7358 240.727 76.7043 240.502 76.6728C240.194 76.6295 239.886 76.5782 239.583 76.5191L239.661 76.1251C239.954 76.1803 240.257 76.2315 240.557 76.2749C240.771 76.3024 240.988 76.3221 241.197 76.334L241.177 76.7358ZM242.799 76.6137L242.716 76.2197C243.212 76.1176 243.686 75.9339 244.121 75.676L244.326 76.0109C243.862 76.2981 243.352 76.5058 242.819 76.6255L242.799 76.6137ZM222.647 76.1448L222.296 75.9597C222.547 75.4898 222.826 75.0346 223.129 74.5964L223.453 74.821C223.164 75.2501 222.902 75.6961 222.667 76.1567L222.647 76.1448ZM238.039 76.1212C237.53 75.9599 237.029 75.7718 236.54 75.5578L236.701 75.1953C237.176 75.4058 237.662 75.5886 238.158 75.743L238.039 76.1212ZM245.538 74.8919L245.21 74.6713C245.492 74.2643 245.658 73.7894 245.692 73.2962L246.087 73.3238C246.053 73.889 245.868 74.4348 245.55 74.9037L245.538 74.8919ZM235.119 74.8328C234.657 74.5648 234.21 74.2715 233.781 73.9542L234.014 73.639C234.432 73.9467 234.867 74.2308 235.316 74.49L235.119 74.8328ZM224.423 73.6035L224.131 73.3396C224.489 72.9428 224.87 72.5678 225.272 72.2167L225.532 72.5122C225.145 72.858 224.779 73.2264 224.435 73.6154L224.423 73.6035ZM232.55 72.9377C232.157 72.5762 231.784 72.1934 231.433 71.7911L231.729 71.5311C232.07 71.9219 232.433 72.2941 232.814 72.6461L232.55 72.9377ZM245.396 71.8699C245.17 71.4197 244.857 71.0181 244.476 70.6879L244.737 70.3924C245.156 70.7546 245.501 71.1949 245.751 71.6887L245.396 71.8699ZM226.76 71.5587L226.535 71.2356C226.976 70.9347 227.434 70.6572 227.904 70.4043L228.09 70.751C227.636 71.0011 227.197 71.2746 226.772 71.5705L226.76 71.5587ZM230.446 70.5343C230.296 70.3215 230.15 70.1048 230.012 69.8802L229.499 70.0812L229.349 69.7187L229.803 69.5375C229.732 69.4193 229.661 69.3011 229.594 69.1829L229.937 68.9898C230.016 69.1277 230.095 69.2656 230.178 69.3838C230.399 69.305 230.624 69.2301 230.853 69.1592L230.967 69.5532C230.774 69.6123 230.572 69.6754 230.391 69.7423C230.513 69.9354 230.639 70.1363 230.785 70.3058L230.446 70.5343ZM243.206 69.8566C242.824 69.6666 242.428 69.5059 242.022 69.3759L241.761 69.2932L241.876 68.8992L242.144 68.9859C242.567 69.1204 242.979 69.2877 243.375 69.4862L243.206 69.8566ZM232.479 69.1513L232.396 68.7573C232.905 68.6431 233.434 68.5485 233.974 68.4737L234.034 68.8677C233.513 68.9504 232.996 69.0489 232.49 69.1632L232.479 69.1513ZM240.253 68.9386C239.76 68.8519 239.239 68.7849 238.706 68.7376L238.738 68.3436C239.287 68.3909 239.819 68.4579 240.317 68.5485L240.253 68.9386ZM235.577 68.7101L235.549 68.3161C236.019 68.2885 236.488 68.2727 236.954 68.2727H237.147V68.6667H236.958C236.512 68.6785 236.046 68.6904 235.589 68.7219L235.577 68.7101ZM228.907 67.7684C228.694 67.2877 228.512 66.7873 228.335 66.2791L228.729 66.1569C228.895 66.6534 229.08 67.1419 229.286 67.6108L228.907 67.7684ZM227.908 64.7425C227.79 64.2342 227.691 63.7063 227.616 63.1665L228.011 63.1113C228.086 63.6314 228.181 64.1475 228.295 64.6479L227.908 64.7425ZM227.466 61.5905C227.447 61.2359 227.435 60.8734 227.435 60.5109C227.435 60.3415 227.435 60.1681 227.435 59.9987H227.829C227.829 60.1681 227.829 60.3336 227.829 60.503C227.829 60.8576 227.829 61.2162 227.857 61.559L227.466 61.5905ZM227.936 58.4385L227.541 58.3991C227.597 57.879 227.672 57.3471 227.762 56.8231L228.157 56.8901C228.05 57.4141 227.975 57.9184 227.924 58.4464L227.936 58.4385ZM228.477 55.3613L228.082 55.2668C228.208 54.7585 228.354 54.2463 228.516 53.7341L228.911 53.8563C228.733 54.3724 228.587 54.8728 228.465 55.3692L228.477 55.3613ZM229.424 52.3788L229.057 52.2369C229.25 51.7444 229.451 51.2519 229.692 50.7752L230.047 50.9485C229.811 51.4213 229.601 51.902 229.412 52.4024L229.424 52.3788ZM230.781 49.5695L230.438 49.3686C230.707 48.9155 230.995 48.4624 231.295 48.029L231.618 48.2536C231.31 48.687 231.03 49.1283 230.77 49.5774L230.781 49.5695ZM232.561 47.0046L232.254 46.7564C232.585 46.3624 232.94 45.9447 233.307 45.5744L233.592 45.8462C233.221 46.2166 232.873 46.6106 232.55 47.0125L232.561 47.0046ZM234.708 44.7352L234.444 44.4436C234.839 44.0929 235.233 43.7462 235.656 43.4113L235.9 43.7226C235.478 44.0575 235.075 44.4003 234.697 44.743L234.708 44.7352ZM237.159 42.7888L236.934 42.4618C237.365 42.1663 237.814 41.8747 238.272 41.5989L238.474 41.9338C238.016 42.2136 237.589 42.5012 237.147 42.7967L237.159 42.7888ZM239.839 41.1616L239.654 40.8149C240.119 40.5666 240.601 40.3302 241.082 40.1096L241.248 40.4681C240.747 40.6927 240.285 40.9291 239.827 41.1695L239.839 41.1616ZM242.693 39.8535L242.546 39.4831C243.044 39.2901 243.545 39.0891 244.042 38.9434L244.169 39.3374C243.667 39.4871 243.17 39.6683 242.681 39.8614L242.693 39.8535Z" fill="#263238"/>
<path d="M245.735 38.8565L245.637 38.4625C246.126 38.3364 246.426 38.2812 246.426 38.2812L246.497 38.6753C246.497 38.6753 246.213 38.7343 245.735 38.8565Z" fill="#263238"/>
<path d="M252.713 36.3113C251.707 33.1987 244.966 34.3176 246.28 38.3876C247.594 42.4577 253.72 39.4278 252.713 36.3113Z" fill="#263238"/>
<path d="M242.613 35.0662C242.665 33.699 244.567 32.647 247.259 33.1317C249.95 33.6163 252.48 35.4287 252.48 35.4287C252.48 35.4287 249.824 37.0362 247.105 37.3317C244.385 37.6272 242.562 36.4294 242.613 35.0662Z" fill="#EBEBEB"/>
<path d="M252.48 35.4206C251.083 35.4206 249.69 35.3812 248.297 35.3379C246.904 35.2945 245.506 35.2236 244.113 35.1133C245.51 35.1133 246.908 35.1487 248.301 35.1921C249.694 35.2354 251.091 35.3063 252.48 35.4206Z" fill="#263238"/>
<path d="M245.317 33.8486C246.11 34.2274 246.858 34.694 247.547 35.2395C247.15 35.0535 246.765 34.843 246.394 34.609C246.021 34.3767 245.661 34.1228 245.317 33.8486Z" fill="#263238"/>
<path d="M248.975 35.291C248.261 35.8687 247.487 36.368 246.667 36.7803C247.384 36.202 248.162 35.7026 248.987 35.291H248.975Z" fill="#263238"/>
<path d="M249.382 34.5225C249.78 34.7134 250.129 34.9939 250.4 35.342C250.201 35.2481 250.014 35.1304 249.844 34.9913C249.672 34.8531 249.517 34.6958 249.382 34.5225Z" fill="#263238"/>
<path d="M245.179 43.1627C246.019 44.2423 248.178 43.9822 250.077 42.0201C251.975 40.058 252.981 37.1069 252.981 37.1069C252.981 37.1069 249.871 37.3433 247.499 38.6829C245.127 40.0225 244.334 42.0792 245.179 43.1627Z" fill="#EBEBEB"/>
<path d="M252.981 37.1069C251.845 37.8949 250.74 38.7696 249.631 39.6167C248.521 40.4638 247.436 41.3385 246.375 42.2408C247.511 41.4528 248.616 40.582 249.721 39.7349C250.826 38.8878 251.904 38.0131 252.981 37.1069Z" fill="#263238"/>
<path d="M248.08 42.552C248.291 42.1693 248.479 41.7747 248.644 41.37C248.812 40.9643 248.954 40.5485 249.07 40.125C248.859 40.5074 248.67 40.9021 248.506 41.307C248.339 41.7133 248.197 42.1291 248.08 42.552Z" fill="#263238"/>
<path d="M250.219 39.2583C249.295 39.209 248.369 39.2579 247.456 39.4041C247.916 39.4317 248.377 39.4317 248.837 39.4041C249.3 39.3816 249.761 39.3329 250.219 39.2583Z" fill="#263238"/>
<path d="M250.98 39.6485C251.086 39.454 251.168 39.2477 251.225 39.0339C251.284 38.8217 251.318 38.6036 251.328 38.3838C251.118 38.7738 250.999 39.2062 250.98 39.6485Z" fill="#263238"/>
<path d="M252.713 36.3111C252.49 36.3834 252.251 36.3879 252.025 36.3243C251.799 36.2607 251.598 36.1316 251.446 35.9536C251.294 35.7755 251.198 35.5564 251.171 35.3241C251.144 35.0917 251.186 34.8565 251.293 34.6483C251.4 34.44 251.566 34.2681 251.771 34.1542C251.976 34.0404 252.21 33.9898 252.443 34.0088C252.677 34.0278 252.899 34.1156 253.083 34.261C253.267 34.4064 253.403 34.603 253.474 34.8257C253.57 35.1235 253.544 35.4471 253.401 35.7255C253.258 36.0039 253.011 36.2145 252.713 36.3111Z" fill="#455A64"/>
<path d="M253.439 38.561C253.216 38.6329 252.977 38.6374 252.752 38.5737C252.527 38.51 252.325 38.381 252.174 38.2031C252.022 38.0252 251.926 37.8064 251.899 37.5742C251.871 37.3421 251.914 37.1071 252.02 36.8989C252.127 36.6907 252.293 36.5187 252.497 36.4047C252.701 36.2906 252.935 36.2396 253.168 36.2581C253.402 36.2766 253.624 36.3638 253.808 36.5086C253.992 36.6534 254.129 36.8493 254.201 37.0717C254.249 37.2194 254.267 37.3751 254.255 37.5299C254.243 37.6847 254.2 37.8356 254.129 37.9739C254.058 38.1122 253.961 38.2352 253.843 38.336C253.724 38.4367 253.587 38.5132 253.439 38.561Z" fill="#455A64"/>
<path d="M124.048 37.5559C123.859 39.3656 123.17 41.0873 122.057 42.5287C120.945 43.9702 119.454 45.0748 117.749 45.7192C116.045 46.3636 114.194 46.5226 112.405 46.1782C110.615 45.8339 108.956 44.9999 107.614 43.7693L102.692 44.4903L105.155 40.243C104.592 38.861 104.352 37.369 104.452 35.8805C104.553 34.3919 104.993 32.9458 105.737 31.6521C106.482 30.3584 107.512 29.2511 108.749 28.4143C109.986 27.5775 111.398 27.0332 112.878 26.8228C114.358 26.6123 115.866 26.7413 117.288 27.1998C118.71 27.6584 120.009 28.4345 121.086 29.4691C122.162 30.5038 122.989 31.7698 123.502 33.1711C124.015 34.5723 124.202 36.0719 124.048 37.5559Z" fill="white"/>
<path d="M124.048 37.5561C123.862 39.3649 123.18 41.0872 122.074 42.5324C121.534 43.2632 120.883 43.9053 120.144 44.4354C119.422 44.9853 118.624 45.4297 117.776 45.7553C116.928 46.0889 116.036 46.3011 115.128 46.3857C114.674 46.4263 114.218 46.4356 113.763 46.4133C113.306 46.4015 112.85 46.3541 112.401 46.2714C110.587 45.9382 108.902 45.1074 107.535 43.872L107.649 43.9074L102.736 44.66L102.376 44.7151L102.558 44.3999L105.005 40.1447V40.3141C104.428 38.9066 104.182 37.3854 104.287 35.8681C104.393 34.3507 104.846 32.8779 105.613 31.5634C106.378 30.253 107.431 29.1324 108.691 28.2853C109.95 27.4495 111.381 26.9089 112.879 26.7042C114.376 26.4995 115.901 26.636 117.338 27.1033C118.76 27.5863 120.056 28.3805 121.131 29.4279C122.204 30.4727 123.024 31.7476 123.529 33.156C124.034 34.5644 124.212 36.0691 124.048 37.5561ZM124.048 37.5561C124.207 36.0765 124.024 34.58 123.512 33.1822C123 31.7845 122.173 30.5229 121.095 29.4948C120.018 28.4668 118.717 27.6997 117.295 27.253C115.874 26.8062 114.368 26.6916 112.894 26.9181C111.436 27.1337 110.046 27.681 108.833 28.5178C107.631 29.3612 106.626 30.4555 105.889 31.7249C105.163 32.9972 104.736 34.4169 104.638 35.8777C104.542 37.3483 104.779 38.8217 105.333 40.1881L105.368 40.2747L105.321 40.3575L102.842 44.5969L102.669 44.3369L107.594 43.6474H107.661L107.708 43.6907C109.025 44.9141 110.657 45.7476 112.421 46.0981C112.86 46.1875 113.306 46.2415 113.755 46.2596C114.203 46.2911 114.652 46.2911 115.101 46.2596C115.999 46.1873 116.883 45.9924 117.729 45.6804C118.576 45.3724 119.374 44.9423 120.097 44.4039C120.833 43.8781 121.485 43.2445 122.031 42.5245C123.15 41.0863 123.848 39.3665 124.048 37.5561Z" fill="#263238"/>
<path d="M109.457 41.1138C109.449 40.9833 109.468 40.8527 109.514 40.7301C109.559 40.6074 109.629 40.4953 109.719 40.4007C109.809 40.3061 109.918 40.2311 110.038 40.1802C110.159 40.1294 110.289 40.1038 110.42 40.1051C110.688 40.1051 110.945 40.2114 111.134 40.4005C111.324 40.5897 111.43 40.8463 111.43 41.1138C111.43 41.3813 111.324 41.6378 111.134 41.827C110.945 42.0161 110.688 42.1224 110.42 42.1224C110.289 42.1237 110.159 42.0981 110.038 42.0473C109.918 41.9964 109.809 41.9214 109.719 41.8268C109.629 41.7322 109.559 41.6201 109.514 41.4975C109.468 41.3748 109.449 41.2442 109.457 41.1138ZM109.851 38.7852L109.622 30.9683H111.201L110.972 38.7852H109.851Z" fill="#4F008D"/>
<path d="M113.21 41.1138C113.203 40.9837 113.222 40.8534 113.267 40.731C113.311 40.6086 113.381 40.4967 113.471 40.4022C113.561 40.3076 113.669 40.2325 113.789 40.1814C113.909 40.1303 114.039 40.1044 114.169 40.1051C114.437 40.1051 114.694 40.2114 114.884 40.4005C115.073 40.5897 115.179 40.8463 115.179 41.1138C115.179 41.3813 115.073 41.6378 114.884 41.827C114.694 42.0161 114.437 42.1224 114.169 42.1224C114.039 42.1232 113.909 42.0972 113.789 42.0461C113.669 41.995 113.561 41.9199 113.471 41.8254C113.381 41.7308 113.311 41.6189 113.267 41.4965C113.222 41.3741 113.203 41.2439 113.21 41.1138ZM113.605 38.7852L113.388 30.9683H114.966L114.737 38.7852H113.605Z" fill="#4F008D"/>
<path d="M116.96 41.1138C116.952 40.9833 116.971 40.8527 117.016 40.7301C117.062 40.6074 117.131 40.4953 117.222 40.4007C117.312 40.3061 117.421 40.2311 117.541 40.1802C117.662 40.1294 117.792 40.1038 117.923 40.1051C118.191 40.1051 118.448 40.2114 118.637 40.4005C118.826 40.5897 118.933 40.8463 118.933 41.1138C118.933 41.3813 118.826 41.6378 118.637 41.827C118.448 42.0161 118.191 42.1224 117.923 42.1224C117.792 42.1237 117.662 42.0981 117.541 42.0473C117.421 41.9964 117.312 41.9214 117.222 41.8268C117.131 41.7322 117.062 41.6201 117.016 41.4975C116.971 41.3748 116.952 41.2442 116.96 41.1138ZM117.354 38.7852L117.125 30.9683H118.704L118.479 38.7852H117.354Z" fill="#4F008D"/>
</svg>
