<svg width="25" height="24" viewBox="0 0 25 24" fill="none" xmlns="http://www.w3.org/2000/svg">
<path d="M7.95284 2.71266C8.3276 1.76244 9.6724 1.76245 10.0472 2.71267L11.2085 5.65732C11.3229 5.94743 11.5526 6.17707 11.8427 6.29148L14.7873 7.45284C15.7376 7.8276 15.7376 9.1724 14.7873 9.54716L11.8427 10.7085C11.5526 10.8229 11.3229 11.0526 11.2085 11.3427L10.0472 14.2873C9.6724 15.2376 8.3276 15.2376 7.95284 14.2873L6.79148 11.3427C6.67707 11.0526 6.44743 10.8229 6.15732 10.7085L3.21266 9.54716C2.26244 9.1724 2.26245 7.8276 3.21267 7.45284L6.15732 6.29148C6.44743 6.17707 6.67707 5.94743 6.79148 5.65732L7.95284 2.71266Z" fill="#616161"/>
<path opacity="0.5" d="M17.4245 13.3916C17.6305 12.8695 18.3695 12.8695 18.5755 13.3916L19.4761 15.6753C19.539 15.8348 19.6652 15.961 19.8247 16.0239L22.1084 16.9245C22.6305 17.1305 22.6305 17.8695 22.1084 18.0755L19.8247 18.9761C19.6652 19.039 19.539 19.1652 19.4761 19.3247L18.5755 21.6084C18.3695 22.1305 17.6305 22.1305 17.4245 21.6084L16.5239 19.3247C16.461 19.1652 16.3348 19.039 16.1753 18.9761L13.8916 18.0755C13.3695 17.8695 13.3695 17.1305 13.8916 16.9245L16.1753 16.0239C16.3348 15.961 16.461 15.8348 16.5239 15.6753L17.4245 13.3916Z" fill="#616161"/>
</svg>
