<svg width="20" height="20" viewBox="0 0 20 20" fill="none" xmlns="http://www.w3.org/2000/svg">
<path fill-rule="evenodd" clip-rule="evenodd" d="M9.16675 2.2915C5.36979 2.2915 2.29175 5.36955 2.29175 9.1665C2.29175 12.9635 5.36979 16.0415 9.16675 16.0415C12.9637 16.0415 16.0417 12.9635 16.0417 9.1665C16.0417 5.36955 12.9637 2.2915 9.16675 2.2915ZM1.04175 9.1665C1.04175 4.67919 4.67943 1.0415 9.16675 1.0415C13.6541 1.0415 17.2917 4.67919 17.2917 9.1665C17.2917 13.6538 13.6541 17.2915 9.16675 17.2915C4.67943 17.2915 1.04175 13.6538 1.04175 9.1665ZM16.7983 16.4591C16.6054 16.4444 16.4447 16.6052 16.4594 16.7981C16.4596 16.7991 16.4628 16.8205 16.4789 16.8809C16.4979 16.9518 16.526 17.046 16.5691 17.1896C16.6085 17.3212 16.6341 17.4066 16.6552 17.4699C16.6768 17.5348 16.6842 17.5472 16.681 17.5411C16.7689 17.7052 16.9788 17.7582 17.134 17.6554C17.1283 17.6592 17.1407 17.6518 17.1905 17.605C17.2391 17.5592 17.3021 17.4962 17.3993 17.399C17.4965 17.3019 17.5594 17.2388 17.6052 17.1902C17.644 17.149 17.6558 17.1334 17.6565 17.1325C17.7579 16.9779 17.7053 16.7695 17.5427 16.6815C17.5417 16.6811 17.524 16.6729 17.4702 16.655C17.4068 16.6339 17.3215 16.6083 17.1898 16.5688C17.0463 16.5258 16.9521 16.4976 16.8812 16.4787C16.8207 16.4626 16.7994 16.4594 16.7983 16.4591ZM15.2137 16.9026C15.1344 15.9388 15.939 15.1342 16.9028 15.2135C17.0695 15.2272 17.271 15.2879 17.4886 15.3534C17.5085 15.3594 17.5285 15.3654 17.5486 15.3714C17.5668 15.3769 17.5849 15.3823 17.6029 15.3876C17.8027 15.4472 17.9902 15.5032 18.1314 15.5788C18.9447 16.0143 19.2072 17.0548 18.6979 17.8239C18.6094 17.9575 18.4709 18.0956 18.3233 18.2429C18.31 18.2562 18.2966 18.2695 18.2832 18.2829C18.2698 18.2964 18.2564 18.3097 18.2431 18.323C18.0959 18.4707 17.9577 18.6091 17.8241 18.6976C17.055 19.2069 16.0145 18.9444 15.579 18.1312C15.5034 17.9899 15.4475 17.8025 15.3879 17.6027C15.3825 17.5847 15.3771 17.5666 15.3717 17.5484C15.3656 17.5283 15.3596 17.5082 15.3536 17.4884C15.2881 17.2708 15.2274 17.0692 15.2137 16.9026Z" fill="#B29569"/>
</svg>
