<svg width="20" height="20" viewBox="0 0 20 20" fill="none" xmlns="http://www.w3.org/2000/svg">
<path d="M14.1666 17.7077H5.83329C2.79163 17.7077 1.04163 15.9577 1.04163 12.916V7.08268C1.04163 4.04102 2.79163 2.29102 5.83329 2.29102H14.1666C17.2083 2.29102 18.9583 4.04102 18.9583 7.08268V12.916C18.9583 15.9577 17.2083 17.7077 14.1666 17.7077ZM5.83329 3.54102C3.44996 3.54102 2.29163 4.69935 2.29163 7.08268V12.916C2.29163 15.2993 3.44996 16.4577 5.83329 16.4577H14.1666C16.55 16.4577 17.7083 15.2993 17.7083 12.916V7.08268C17.7083 4.69935 16.55 3.54102 14.1666 3.54102H5.83329Z" fill="#B29569"/>
<path d="M9.99986 10.7259C9.29986 10.7259 8.59153 10.5093 8.04986 10.0676L5.44152 7.98429C5.17485 7.76762 5.12486 7.37595 5.34153 7.10928C5.55819 6.84262 5.94986 6.79262 6.21653 7.00929L8.82485 9.09262C9.45819 9.60095 10.5332 9.60095 11.1665 9.09262L13.7749 7.00929C14.0415 6.79262 14.4415 6.83428 14.6499 7.10928C14.8665 7.37595 14.8249 7.77595 14.5499 7.98429L11.9415 10.0676C11.4082 10.5093 10.6999 10.7259 9.99986 10.7259Z" fill="#B29569"/>
</svg>
