<svg width="24" height="24" viewBox="0 0 24 24" fill="none" xmlns="http://www.w3.org/2000/svg">
<path fill-rule="evenodd" clip-rule="evenodd" d="M12.4221 3.07172C12.0479 3.42702 11.594 4.00091 10.9207 4.85688L10.5803 5.28955C10.5579 5.31806 10.5357 5.34645 10.5135 5.37469C10.2082 5.76436 9.92645 6.12398 9.53058 6.3352C9.12816 6.54991 8.67723 6.57489 8.20247 6.60119C8.16811 6.6031 8.13362 6.60501 8.09902 6.607L7.5716 6.63733C6.5258 6.69747 5.83206 6.73958 5.3485 6.84405C4.88256 6.94471 4.81264 7.06188 4.78277 7.12204C4.74721 7.19365 4.69886 7.34499 4.89387 7.8194C5.09246 8.30254 5.46122 8.92961 6.01202 9.86067L6.29057 10.3315C6.30806 10.3611 6.32548 10.3904 6.34278 10.4196C6.59739 10.8483 6.82654 11.2343 6.88683 11.6839C6.94664 12.1299 6.8304 12.5668 6.69941 13.0591C6.69051 13.0926 6.68153 13.1263 6.67254 13.1603L6.5296 13.7009C6.24727 14.7686 6.05799 15.4914 5.99436 16.0213C5.9307 16.5513 6.02302 16.6702 6.05987 16.7099C6.0604 16.7105 6.06096 16.7111 6.06156 16.7118C6.0859 16.7384 6.16713 16.8274 6.63372 16.7735C7.08183 16.7218 7.68494 16.5632 8.56223 16.3215C8.27738 16.0843 8.03042 15.8647 7.83799 15.6581C7.49803 15.293 7.1756 14.809 7.26467 14.1838C7.35441 13.5539 7.80376 13.1833 8.23534 12.9349C8.64882 12.697 9.22397 12.4718 9.8858 12.2127L10.3071 12.0477C10.5194 11.9645 10.6376 11.9176 10.7232 11.8759C10.7717 11.8522 10.7912 11.8388 10.7969 11.8342C10.8013 11.8284 10.8143 11.8089 10.837 11.7605C10.8772 11.6745 10.922 11.5559 11.0015 11.3426L11.1593 10.9192C11.4069 10.2545 11.6223 9.67648 11.8533 9.25952C12.0949 8.82353 12.4581 8.36965 13.0858 8.26903C13.7083 8.16922 14.198 8.48067 14.5705 8.81348C14.9292 9.13406 15.3285 9.61186 15.7901 10.1643L16.0823 10.5139C16.2298 10.6904 16.3134 10.7896 16.3818 10.8594C16.4123 10.8906 16.431 10.9066 16.4414 10.9147C16.4464 10.9185 16.4494 10.9206 16.4508 10.9214L16.4534 10.9229L16.456 10.9241C16.4574 10.9246 16.4607 10.9258 16.4666 10.9274C16.4789 10.9308 16.5025 10.9362 16.5453 10.9419C16.6413 10.9548 16.7698 10.9623 16.9985 10.9747L17.4518 10.9992C17.666 11.0108 17.8716 11.0219 18.0672 11.0344C18.5366 10.6211 18.8497 10.3172 19.0452 10.0619C19.2545 9.78846 19.2566 9.66485 19.247 9.59304C19.2375 9.52186 19.2053 9.38525 18.7962 9.13515C18.3719 8.87577 17.729 8.60585 16.7599 8.20255L16.271 7.9991C16.2391 7.98583 16.2073 7.97268 16.1757 7.95958C15.7344 7.77703 15.3179 7.60467 15.0079 7.27006C14.7031 6.94112 14.5528 6.5101 14.3888 6.03968C14.377 6.00589 14.3652 5.9719 14.3532 5.93773L14.1702 5.41591C13.8082 4.38394 13.5628 3.69006 13.3225 3.22927C13.0865 2.77679 12.9599 2.75674 12.9361 2.75297C12.9356 2.75288 12.9351 2.7528 12.9346 2.75273C12.9342 2.75265 12.9336 2.75255 12.933 2.75243C12.9108 2.74823 12.7873 2.72492 12.4221 3.07172ZM19.8916 11.3737C20.02 11.2381 20.1356 11.1051 20.2362 10.9737C20.5795 10.5253 20.816 10.0075 20.7337 9.39369C20.6355 8.6612 20.1413 8.19937 19.5786 7.85536C19.0428 7.52776 18.2896 7.21439 17.3948 6.84205L16.8473 6.61422C16.2495 6.36547 16.1671 6.31424 16.1082 6.25064C16.0437 6.181 15.9918 6.07764 15.7686 5.44126L15.5654 4.86168C15.2289 3.90238 14.949 3.10416 14.6525 2.53563C14.3512 1.95797 13.9232 1.39951 13.1865 1.27403C12.4477 1.14817 11.8608 1.53623 11.3892 1.98394C10.926 2.42373 10.4051 3.0861 9.77987 3.88098L9.40136 4.36217C8.98559 4.89075 8.90508 4.96878 8.82447 5.01179C8.75085 5.05107 8.65886 5.07233 8.01291 5.10947L7.48548 5.1398C7.46415 5.14103 7.44289 5.14225 7.4217 5.14347C6.45684 5.1989 5.64395 5.24561 5.03175 5.37787C4.38848 5.51684 3.76896 5.79101 3.43928 6.45492C3.1153 7.10738 3.25305 7.77308 3.5065 8.38968C3.7515 8.98573 4.17812 9.70681 4.69042 10.5727L4.99957 11.0953C5.3366 11.665 5.38557 11.7746 5.40014 11.8832C5.41522 11.9957 5.39514 12.1235 5.22238 12.7769L5.06436 13.3745C4.80093 14.3706 4.58272 15.1958 4.50506 15.8424C4.42595 16.5012 4.46246 17.1928 4.95951 17.7294C5.47112 18.2816 6.15973 18.3382 6.8057 18.2636C7.42603 18.192 8.21529 17.9738 9.15261 17.7147L9.28101 17.6792L9.87862 17.3888C9.89408 17.4025 9.90822 17.4153 9.92136 17.4276C9.95323 17.4576 9.96956 17.4759 9.97781 17.4861C9.98174 17.4909 9.98377 17.4939 9.98465 17.4952L9.98607 17.4975L9.98709 17.4998C9.98762 17.5011 9.98882 17.5042 9.99051 17.5099C9.99407 17.5219 9.9998 17.5451 10.0063 17.5875C10.0209 17.6828 10.0308 17.8105 10.0473 18.0385L10.0802 18.4905C10.1319 19.2028 10.1767 19.8204 10.2812 20.2883C10.3904 20.7773 10.6083 21.3113 11.1706 21.5937C11.7349 21.8771 12.2931 21.73 12.7484 21.5222C13.1829 21.3239 13.6995 20.9874 14.294 20.6003L14.6722 20.354C14.8629 20.2299 14.9694 20.1612 15.0531 20.1159C15.0902 20.0958 15.1114 20.0867 15.1223 20.0827C15.1274 20.0807 15.1302 20.08 15.131 20.0797L15.132 20.0795L15.1334 20.0794C15.1345 20.0793 15.1377 20.0792 15.1436 20.0794C15.156 20.0799 15.1799 20.0819 15.2226 20.0895C15.3181 20.1064 15.4432 20.1384 15.6655 20.1962L16.106 20.3109C16.8007 20.4917 17.4024 20.6482 17.8792 20.7C18.3737 20.7537 18.9568 20.722 19.4022 20.2695C19.8482 19.8165 19.8696 19.2327 19.8066 18.7394C19.746 18.2644 19.5781 17.6668 19.3843 16.9774L19.2614 16.5398C19.1994 16.3191 19.1651 16.1951 19.1465 16.1003C19.1381 16.0581 19.1357 16.0345 19.135 16.0224C19.1347 16.0167 19.1348 16.0137 19.1348 16.0128C19.1348 16.0127 19.1349 16.0118 19.135 16.0115C19.1351 16.0108 19.1358 16.0081 19.1376 16.0031C19.1414 15.9924 19.15 15.9713 19.1695 15.9339C19.2133 15.8498 19.2801 15.7424 19.4011 15.5499L19.6412 15.1679C20.0183 14.5682 20.3462 14.0465 20.5371 13.6094C20.7373 13.1511 20.8752 12.5898 20.58 12.0303C20.4124 11.7125 20.1646 11.5087 19.8916 11.3737ZM13.3016 9.74934C13.3014 9.74868 13.3051 9.7486 13.3133 9.75106C13.306 9.75124 13.3019 9.75 13.3016 9.74934ZM13.3259 9.75556C13.3611 9.76981 13.4372 9.81245 13.571 9.93196C13.8378 10.1704 14.1668 10.561 14.6761 11.1704L14.9313 11.4758C14.9494 11.4975 14.9676 11.5193 14.9859 11.5413C15.2087 11.8095 15.4466 12.0959 15.7802 12.2634C16.1146 12.4313 16.4861 12.4503 16.8328 12.4681C16.8612 12.4695 16.8894 12.471 16.9174 12.4725L17.313 12.4939C18.1025 12.5366 18.6092 12.566 18.9579 12.6369C19.1244 12.6708 19.2061 12.7055 19.2425 12.7266C19.2453 12.7281 19.2476 12.7296 19.2497 12.7309C19.2496 12.732 19.2495 12.7332 19.2494 12.7345C19.2463 12.7727 19.2293 12.8562 19.1625 13.009C19.0223 13.33 18.7575 13.7552 18.3401 14.4193L18.1312 14.7516C18.1163 14.7753 18.1012 14.7992 18.0859 14.8233C17.9026 15.1129 17.7028 15.4286 17.6498 15.8004C17.5971 16.1706 17.6994 16.5304 17.794 16.8631C17.8018 16.8908 17.8096 16.9183 17.8173 16.9455L17.9245 17.3271C18.1385 18.0889 18.2739 18.578 18.3187 18.9293C18.3391 19.0893 18.334 19.1728 18.3271 19.2118C18.2881 19.2195 18.2039 19.2265 18.0412 19.2088C17.6878 19.1704 17.1948 19.0442 16.4275 18.8446L16.0432 18.7446C16.0157 18.7374 15.9881 18.7302 15.9603 18.7228C15.6248 18.6345 15.2634 18.5393 14.8946 18.5984C14.5238 18.6578 14.2118 18.8624 13.9246 19.0507C13.9008 19.0663 13.8772 19.0817 13.8538 19.097L13.5244 19.3114C12.8666 19.7398 12.4451 20.0118 12.1256 20.1576C11.9735 20.227 11.8896 20.2457 11.8506 20.2496C11.8484 20.2498 11.8464 20.25 11.8446 20.2501C11.8431 20.248 11.8415 20.2455 11.8397 20.2425C11.8182 20.2069 11.782 20.1265 11.7452 19.9614C11.6679 19.6153 11.6292 19.1109 11.572 18.324L11.5434 17.9298C11.5414 17.9019 11.5394 17.8737 11.5374 17.8454C11.5134 17.5 11.4875 17.1288 11.3127 16.7975C11.1386 16.4675 10.8472 16.2353 10.5745 16.018C10.5521 16.0002 10.5298 15.9824 10.5077 15.9647L10.197 15.7157C9.57702 15.2187 9.17953 14.8976 8.93572 14.6358C8.81649 14.5078 8.7718 14.4334 8.75603 14.3979C8.78148 14.3697 8.84343 14.3156 8.98342 14.2351C9.28745 14.0602 9.75496 13.8749 10.4875 13.588L10.8541 13.4444C10.8804 13.4341 10.9069 13.4238 10.9336 13.4134C11.2537 13.2892 11.6028 13.1538 11.8659 12.8865C12.1292 12.619 12.2588 12.2678 12.3775 11.9463C12.3874 11.9194 12.3972 11.8928 12.407 11.8664L12.5443 11.498C12.8186 10.7621 12.9957 10.2927 13.1654 9.98655C13.2449 9.84302 13.2984 9.7806 13.3259 9.75556ZM8.74843 14.3722C8.74908 14.3724 8.75043 14.3765 8.7505 14.3838C8.7478 14.3756 8.74777 14.372 8.74843 14.3722ZM8.74646 14.4094C8.74393 14.4171 8.74106 14.4209 8.74026 14.4209C8.73947 14.4209 8.74073 14.4171 8.74646 14.4094ZM18.318 19.2409C18.3175 19.2403 18.3188 19.2359 18.3231 19.2295C18.3206 19.2382 18.3184 19.2414 18.318 19.2409ZM18.3448 19.2074C18.351 19.203 18.3552 19.2017 18.3558 19.2021C18.3564 19.2025 18.3533 19.2047 18.3448 19.2074ZM13.336 9.74704C13.3436 9.74117 13.3475 9.73987 13.3475 9.74069C13.3475 9.7415 13.3437 9.74445 13.336 9.74704Z" fill="#404040"/>
</svg>
