<svg width="40" height="40" viewBox="0 0 40 40" fill="none" xmlns="http://www.w3.org/2000/svg">
<path d="M19.771 4.47363C19.8694 4.28604 20.1286 4.29152 20.2241 4.4668L23.9487 12.9609C24.3538 13.8852 25.2014 14.5378 26.1919 14.6953L26.3921 14.7197L35.4497 15.5312C35.6534 15.5636 35.7344 15.8055 35.5942 15.9551L28.7798 21.6807C27.9429 22.3837 27.5597 23.4909 27.7896 24.5625V24.5635L29.7769 33.8623C29.8106 34.071 29.5944 34.2244 29.4097 34.1299L21.4946 29.4951H21.4956C20.5721 28.9536 19.4289 28.9536 18.5054 29.4951L10.5913 34.127C10.4052 34.2209 10.192 34.0635 10.2251 33.8594L12.2114 24.5605V24.5596C12.4375 23.4922 12.0613 22.3834 11.2212 21.6777H11.2202L4.40479 15.96C4.26582 15.8133 4.34688 15.5675 4.54736 15.5342L13.606 14.7227C14.6815 14.626 15.6172 13.9498 16.0493 12.9639L19.771 4.47363Z" stroke="#FFCC00" stroke-width="2"/>
<path d="M17.9996 19.1997C17.9996 19.1997 17.993 19.1905 17.9785 19.1734C17.9654 19.1562 17.9469 19.1325 17.9232 19.1022C17.9034 19.0811 17.8797 19.0561 17.852 19.0271C17.8244 18.9955 17.7901 18.9625 17.7559 18.9283C17.7203 18.8953 17.6834 18.8611 17.6452 18.8334C17.6083 18.8031 17.5674 18.7807 17.5345 18.7623C17.5003 18.7412 17.4686 18.7359 17.4489 18.7293C17.4383 18.7254 17.4291 18.7254 17.4212 18.724C17.4172 18.7254 17.4133 18.7227 17.4093 18.724L17.4041 18.7254H17.4014H17.4001C17.4159 18.7254 17.3645 18.7267 17.4357 18.724L17.3632 18.7267C17.3448 18.7267 17.3566 18.728 17.358 18.728C17.3619 18.728 17.3645 18.728 17.3672 18.7267C17.3777 18.7227 17.3672 18.7267 17.3645 18.7267C17.3606 18.7267 17.3553 18.728 17.35 18.7306C17.329 18.7372 17.2973 18.7425 17.2644 18.7636C17.2315 18.782 17.1906 18.8044 17.1537 18.8347C17.1168 18.8637 17.0786 18.8967 17.043 18.9296C16.9745 18.9968 16.9139 19.064 16.8718 19.1127C16.8283 19.1628 16.8046 19.1918 16.8046 19.1918L16.7743 19.2274C16.5937 19.4382 16.2617 19.4738 16.0338 19.3077C15.8783 19.1944 15.8111 19.0179 15.8401 18.8492C15.8401 18.8492 15.8493 18.7952 15.8757 18.7017C15.9033 18.6081 15.9494 18.475 16.0404 18.3182C16.1313 18.1628 16.263 17.9796 16.4857 17.8123C16.5951 17.7306 16.7281 17.6489 16.8862 17.5935C16.9245 17.5791 16.9653 17.5659 17.0075 17.5553C17.0509 17.5448 17.0852 17.5329 17.1445 17.525L17.2262 17.5132C17.2512 17.5105 17.2881 17.5066 17.2934 17.5066L17.3659 17.5013L17.4067 17.5H17.4107H17.4186L17.4357 17.5013H17.4673L17.5345 17.5053C17.5793 17.5092 17.6228 17.5171 17.6663 17.5237C17.7519 17.5395 17.8376 17.5619 17.9153 17.5909C18.0734 17.6463 18.2065 17.7266 18.3158 17.8096C18.5385 17.977 18.6703 18.1601 18.7612 18.3156C18.8073 18.3933 18.8416 18.4671 18.8666 18.5317C18.8943 18.5936 18.914 18.6595 18.9298 18.7082C18.9443 18.7557 18.9443 18.7807 18.9509 18.8031C18.9549 18.8242 18.9562 18.836 18.9562 18.836C19.0049 19.1022 18.8086 19.3539 18.5201 19.3973C18.3132 19.4303 18.1143 19.3473 17.9996 19.1997Z" fill="#FFCC00"/>
<path d="M23.2041 19.1997C23.2041 19.1997 23.1975 19.1905 23.183 19.1733C23.1698 19.1562 23.1514 19.1325 23.1276 19.1022C23.1079 19.0811 23.0842 19.0561 23.0565 19.0271C23.0288 18.9955 22.9946 18.9625 22.9603 18.9283C22.9247 18.8953 22.8878 18.8611 22.8496 18.8334C22.8127 18.8031 22.7719 18.7807 22.739 18.7623C22.7047 18.7412 22.6731 18.7359 22.6533 18.7293C22.6428 18.7254 22.6335 18.7254 22.6256 18.724C22.6217 18.7254 22.6177 18.7227 22.6138 18.724L22.6085 18.7254H22.6059H22.6046H22.6032C22.619 18.7254 22.5677 18.7267 22.6388 18.724L22.5663 18.7267C22.5479 18.7267 22.5598 18.728 22.5611 18.728C22.565 18.728 22.5677 18.728 22.5703 18.7267C22.5808 18.7227 22.5703 18.7267 22.5677 18.7267C22.5637 18.7267 22.5584 18.728 22.5532 18.7306C22.5321 18.7372 22.5005 18.7425 22.4675 18.7636C22.4346 18.782 22.3937 18.8044 22.3568 18.8347C22.32 18.8637 22.2817 18.8967 22.2462 18.9296C22.1777 18.9968 22.117 19.064 22.0749 19.1127C22.0314 19.1628 22.0077 19.1918 22.0077 19.1918L21.9774 19.2274C21.7969 19.4382 21.4648 19.4738 21.2369 19.3077C21.0814 19.1944 21.0142 19.0179 21.0432 18.8492C21.0432 18.8492 21.0524 18.7952 21.0788 18.7016C21.1064 18.6081 21.1526 18.475 21.2435 18.3182C21.3344 18.1628 21.4661 17.9796 21.6888 17.8123C21.7982 17.7306 21.9313 17.6489 22.0894 17.5935C22.1276 17.5791 22.1684 17.5659 22.2106 17.5553C22.2541 17.5448 22.2883 17.5329 22.3476 17.525L22.4293 17.5132C22.4543 17.5105 22.4912 17.5066 22.4965 17.5066L22.569 17.5013L22.6098 17.5H22.6138H22.6217L22.6388 17.5013H22.6704L22.7376 17.5053C22.7824 17.5092 22.8259 17.5171 22.8694 17.5237C22.955 17.5395 23.0407 17.5619 23.1184 17.5909C23.2765 17.6463 23.4096 17.7266 23.519 17.8096C23.7416 17.977 23.8734 18.1601 23.9643 18.3156C24.0104 18.3933 24.0447 18.4671 24.0697 18.5317C24.0974 18.5936 24.1172 18.6595 24.133 18.7082C24.1475 18.7557 24.1475 18.7807 24.1541 18.8031C24.158 18.8242 24.1593 18.836 24.1593 18.836C24.2081 19.1022 24.0118 19.3539 23.7232 19.3973C23.5163 19.4303 23.3174 19.3473 23.2041 19.1997Z" fill="#FFCC00"/>
<path d="M19.9841 24.0872C18.3279 24.0872 17.0182 23.3032 16.2961 22.4639C16.2237 22.3796 16.2066 22.2662 16.2527 22.1674C16.2988 22.066 16.3989 22.0001 16.507 22.0001C16.5557 22.0001 16.6058 22.0133 16.6493 22.0383C17.3937 22.4678 18.6441 22.9988 19.9802 22.9988H20.0012C21.3386 22.9988 22.5877 22.4665 23.3321 22.0383C23.3769 22.0133 23.4257 21.9988 23.4744 22.0001C23.5825 22.0001 23.6826 22.066 23.7287 22.1674C23.7735 22.2662 23.7577 22.3809 23.6852 22.4639C22.9632 23.3019 21.6522 24.0872 19.9973 24.0872" fill="#FFCC00"/>
</svg>
