<svg width="20" height="20" viewBox="0 0 20 20" fill="none" xmlns="http://www.w3.org/2000/svg">
<path fill-rule="evenodd" clip-rule="evenodd" d="M7.50008 5.20825C6.23443 5.20825 5.20842 6.23427 5.20842 7.49992C5.20842 8.76557 6.23443 9.79159 7.50008 9.79159C8.76573 9.79159 9.79175 8.76557 9.79175 7.49992C9.79175 6.23427 8.76573 5.20825 7.50008 5.20825ZM6.45842 7.49992C6.45842 6.92462 6.92479 6.45825 7.50008 6.45825C8.07538 6.45825 8.54175 6.92462 8.54175 7.49992C8.54175 8.07522 8.07538 8.54159 7.50008 8.54159C6.92479 8.54159 6.45842 8.07522 6.45842 7.49992Z" fill="#9E9E9E"/>
<path fill-rule="evenodd" clip-rule="evenodd" d="M7.50008 10.2083C6.50362 10.2083 5.57059 10.4089 4.86355 10.7624C4.1939 11.0972 3.54175 11.6754 3.54175 12.4999L3.54164 12.552C3.54036 12.9773 3.53821 13.6934 4.21694 14.1847C4.5319 14.4127 4.94749 14.5581 5.46233 14.6507C5.98192 14.7442 6.64776 14.7916 7.50008 14.7916C8.35241 14.7916 9.01825 14.7442 9.53784 14.6507C10.0527 14.5581 10.4683 14.4127 10.7832 14.1847C11.462 13.6934 11.4598 12.9773 11.4585 12.552L11.4584 12.4999C11.4584 11.6754 10.8063 11.0972 10.1366 10.7624C9.42957 10.4089 8.49655 10.2083 7.50008 10.2083ZM4.79175 12.4999C4.79175 12.4039 4.88579 12.1488 5.42257 11.8804C5.92196 11.6307 6.6556 11.4583 7.50008 11.4583C8.34457 11.4583 9.07821 11.6307 9.5776 11.8804C10.1144 12.1488 10.2084 12.4039 10.2084 12.4999C10.2084 13.0036 10.1763 13.0809 10.0503 13.1721C9.94857 13.2458 9.73916 13.3444 9.31649 13.4205C8.89858 13.4957 8.31443 13.5416 7.50008 13.5416C6.68574 13.5416 6.10158 13.4957 5.68367 13.4205C5.261 13.3444 5.0516 13.2458 4.94989 13.1721C4.82382 13.0809 4.79175 13.0036 4.79175 12.4999Z" fill="#9E9E9E"/>
<path d="M15.8334 10.6249C16.1786 10.6249 16.4584 10.3451 16.4584 9.99992C16.4584 9.65474 16.1786 9.37492 15.8334 9.37492H12.5001C12.1549 9.37492 11.8751 9.65474 11.8751 9.99992C11.8751 10.3451 12.1549 10.6249 12.5001 10.6249H15.8334Z" fill="#9E9E9E"/>
<path d="M16.4584 7.49992C16.4584 7.8451 16.1786 8.12492 15.8334 8.12492H11.6667C11.3216 8.12492 11.0417 7.8451 11.0417 7.49992C11.0417 7.15474 11.3216 6.87492 11.6667 6.87492H15.8334C16.1786 6.87492 16.4584 7.15474 16.4584 7.49992Z" fill="#9E9E9E"/>
<path d="M15.8334 13.1249C16.1786 13.1249 16.4584 12.8451 16.4584 12.4999C16.4584 12.1547 16.1786 11.8749 15.8334 11.8749H13.3334C12.9882 11.8749 12.7084 12.1547 12.7084 12.4999C12.7084 12.8451 12.9882 13.1249 13.3334 13.1249H15.8334Z" fill="#9E9E9E"/>
<path fill-rule="evenodd" clip-rule="evenodd" d="M8.2864 2.70825H11.7138C13.2452 2.70824 14.4583 2.70823 15.4076 2.83586C16.3846 2.96722 17.1754 3.24399 17.799 3.86762C18.4227 4.49126 18.6994 5.28205 18.8308 6.25907C18.9584 7.20841 18.9584 8.42142 18.9584 9.95287V10.0469C18.9584 11.5784 18.9584 12.7914 18.8308 13.7408C18.6994 14.7178 18.4227 15.5086 17.799 16.1322C17.1754 16.7559 16.3846 17.0326 15.4076 17.164C14.4583 17.2916 13.2452 17.2916 11.7138 17.2916H8.28641C6.75496 17.2916 5.5419 17.2916 4.59256 17.164C3.61554 17.0326 2.82475 16.7559 2.20112 16.1322C1.57748 15.5086 1.30072 14.7178 1.16936 13.7408C1.04173 12.7914 1.04174 11.5784 1.04175 10.0469V9.95291C1.04174 8.42144 1.04173 7.20841 1.16936 6.25907C1.30072 5.28205 1.57748 4.49126 2.20112 3.86762C2.82475 3.24399 3.61554 2.96722 4.59256 2.83586C5.54191 2.70823 6.75494 2.70824 8.2864 2.70825ZM4.75912 4.07472C3.92071 4.18744 3.43768 4.39883 3.085 4.75151C2.73233 5.10418 2.52094 5.58722 2.40821 6.42563C2.29308 7.28201 2.29175 8.4109 2.29175 9.99992C2.29175 11.5889 2.29308 12.7178 2.40821 13.5742C2.52094 14.4126 2.73233 14.8957 3.085 15.2483C3.43768 15.601 3.92071 15.8124 4.75912 15.9251C5.61551 16.0403 6.7444 16.0416 8.33341 16.0416H11.6667C13.2558 16.0416 14.3847 16.0403 15.241 15.9251C16.0794 15.8124 16.5625 15.601 16.9152 15.2483C17.2678 14.8957 17.4792 14.4126 17.5919 13.5742C17.7071 12.7178 17.7084 11.5889 17.7084 9.99992C17.7084 8.4109 17.7071 7.28201 17.5919 6.42563C17.4792 5.58722 17.2678 5.10418 16.9152 4.75151C16.5625 4.39883 16.0794 4.18744 15.241 4.07472C14.3847 3.95958 13.2558 3.95825 11.6667 3.95825H8.33342C6.7444 3.95825 5.61551 3.95958 4.75912 4.07472Z" fill="#9E9E9E"/>
</svg>
