<svg width="20" height="20" viewBox="0 0 20 20" fill="none" xmlns="http://www.w3.org/2000/svg">
<path fill-rule="evenodd" clip-rule="evenodd" d="M7.50002 1.04199C5.31389 1.04199 3.54169 2.8142 3.54169 5.00033C3.54169 7.18645 5.31389 8.95866 7.50002 8.95866C9.68615 8.95866 11.4584 7.18645 11.4584 5.00033C11.4584 2.8142 9.68615 1.04199 7.50002 1.04199ZM4.79169 5.00033C4.79169 3.50455 6.00425 2.29199 7.50002 2.29199C8.99579 2.29199 10.2084 3.50455 10.2084 5.00033C10.2084 6.4961 8.99579 7.70866 7.50002 7.70866C6.00425 7.70866 4.79169 6.4961 4.79169 5.00033Z" fill="#404040"/>
<path d="M12.5 1.87533C12.1548 1.87533 11.875 2.15515 11.875 2.50033C11.875 2.8455 12.1548 3.12533 12.5 3.12533C13.5356 3.12533 14.375 3.96479 14.375 5.00033C14.375 6.03586 13.5356 6.87533 12.5 6.87533C12.1548 6.87533 11.875 7.15515 11.875 7.50033C11.875 7.8455 12.1548 8.12533 12.5 8.12533C14.2259 8.12533 15.625 6.72622 15.625 5.00033C15.625 3.27444 14.2259 1.87533 12.5 1.87533Z" fill="#404040"/>
<path fill-rule="evenodd" clip-rule="evenodd" d="M3.06514 11.2673C4.23128 10.601 5.80057 10.2087 7.50002 10.2087C9.19947 10.2087 10.7688 10.601 11.9349 11.2673C13.0834 11.9236 13.9584 12.9254 13.9584 14.167C13.9584 15.4085 13.0834 16.4104 11.9349 17.0667C10.7688 17.733 9.19947 18.1253 7.50002 18.1253C5.80057 18.1253 4.23128 17.733 3.06514 17.0667C1.91668 16.4104 1.04169 15.4085 1.04169 14.167C1.04169 12.9254 1.91668 11.9236 3.06514 11.2673ZM3.68532 12.3526C2.72253 12.9028 2.29169 13.5676 2.29169 14.167C2.29169 14.7664 2.72253 15.4312 3.68532 15.9814C4.63043 16.5214 5.97781 16.8753 7.50002 16.8753C9.02224 16.8753 10.3696 16.5214 11.3147 15.9814C12.2775 15.4312 12.7084 14.7664 12.7084 14.167C12.7084 13.5676 12.2775 12.9028 11.3147 12.3526C10.3696 11.8126 9.02224 11.4587 7.50002 11.4587C5.97781 11.4587 4.63043 11.8126 3.68532 12.3526Z" fill="#404040"/>
<path d="M15.1339 11.0565C14.7967 10.9826 14.4635 11.1959 14.3895 11.5331C14.3156 11.8703 14.529 12.2035 14.8661 12.2775C15.5264 12.4223 16.0541 12.671 16.4024 12.956C16.7512 13.2414 16.875 13.5201 16.875 13.7503C16.875 13.9592 16.7745 14.2045 16.4974 14.4619C16.2184 14.7212 15.7896 14.9607 15.2365 15.1272C14.906 15.2267 14.7187 15.5754 14.8182 15.9059C14.9177 16.2364 15.2664 16.4237 15.5969 16.3241C16.2824 16.1177 16.8952 15.7985 17.3482 15.3777C17.8031 14.9551 18.125 14.3992 18.125 13.7503C18.125 13.0297 17.7298 12.427 17.194 11.9886C16.6578 11.5498 15.9355 11.2323 15.1339 11.0565Z" fill="#404040"/>
</svg>
