<svg width="20" height="20" viewBox="0 0 20 20" fill="none" xmlns="http://www.w3.org/2000/svg">
<path d="M4.07642 8.01144C4.07642 7.67612 4.34612 7.4043 4.67883 7.4043H7.89168C8.22438 7.4043 8.49409 7.67612 8.49409 8.01144C8.49409 8.34676 8.22438 8.61858 7.89168 8.61858H4.67883C4.34612 8.61858 4.07642 8.34676 4.07642 8.01144Z" fill="#B29569"/>
<path fill-rule="evenodd" clip-rule="evenodd" d="M17.6571 8.33615C17.6052 8.33297 17.5487 8.33299 17.4902 8.33301L17.4756 8.33301H15.1792C13.2864 8.33301 11.6667 9.77973 11.6667 11.6663C11.6667 13.553 13.2864 14.9997 15.1792 14.9997H17.4756L17.4902 14.9997C17.5487 14.9997 17.6052 14.9997 17.6571 14.9965C18.4259 14.9494 19.1059 14.3652 19.1631 13.5492C19.1668 13.4957 19.1668 13.438 19.1667 13.3846L19.1667 13.37V9.96264L19.1667 9.94813C19.1668 9.89468 19.1668 9.837 19.1631 9.78349C19.1059 8.9675 18.4259 8.38329 17.6571 8.33615ZM14.9756 12.5552C15.4629 12.5552 15.8579 12.1573 15.8579 11.6663C15.8579 11.1754 15.4629 10.7774 14.9756 10.7774C14.4883 10.7774 14.0932 11.1754 14.0932 11.6663C14.0932 12.1573 14.4883 12.5552 14.9756 12.5552Z" fill="#B29569"/>
<path opacity="0.5" d="M17.6162 8.33493C17.6162 7.35108 17.5805 6.29572 16.9516 5.53914C16.8908 5.46611 16.8262 5.39519 16.7574 5.32636C16.1337 4.70273 15.343 4.42596 14.3659 4.29461C13.4166 4.16697 12.2036 4.16698 10.6721 4.16699H8.9114C7.37994 4.16698 6.1669 4.16697 5.21756 4.29461C4.24054 4.42596 3.44975 4.70273 2.82612 5.32636C2.20248 5.95 1.92572 6.74079 1.79436 7.71781C1.66673 8.66715 1.66674 9.88017 1.66675 11.4116V11.5057C1.66674 13.0371 1.66673 14.2502 1.79436 15.1995C1.92572 16.1765 2.20248 16.9673 2.82612 17.591C3.44975 18.2146 4.24054 18.4914 5.21756 18.6227C6.1669 18.7503 7.37992 18.7503 8.91137 18.7503H10.6721C12.2035 18.7503 13.4166 18.7503 14.3659 18.6227C15.343 18.4914 16.1337 18.2146 16.7574 17.591C16.9278 17.4205 17.0725 17.2373 17.1956 17.0408C17.571 16.4412 17.6163 15.7064 17.6163 14.9991C17.5761 15.0004 17.5337 15.0003 17.4902 15.0003L15.1792 15.0003C13.2864 15.0003 11.6667 13.5536 11.6667 11.667C11.6667 9.78038 13.2864 8.33367 15.1792 8.33367L17.4902 8.33366C17.5337 8.33365 17.5761 8.33363 17.6162 8.33493Z" fill="#B29569"/>
<path d="M8.41778 2.14375L6.66657 3.32743L5.22217 4.29396C6.1708 4.16697 7.38233 4.16698 8.91122 4.16699H10.6719C12.2034 4.16698 13.4164 4.16697 14.3658 4.29461C14.5567 4.32028 14.7406 4.35151 14.9174 4.3898L13.3332 3.33366L11.5728 2.14375C10.6323 1.50807 9.35825 1.50807 8.41778 2.14375Z" fill="#B29569"/>
</svg>
